<?xml version="1.0" standalone="no"?>
<!DOCTYPE svg PUBLIC "-//W3C//DTD SVG 1.1//EN" "http://www.w3.org/Graphics/SVG/1.1/DTD/svg11.dtd" >
<svg xmlns="http://www.w3.org/2000/svg">
<metadata>
This is a custom SVG webfont generated by Font Squirrel.
Copyright   : Copyright c 1981 1982 1983 1989 and 1993 Linotype Library GmbH or its affiliated LinotypeHell companies All rights reservedThe digitally encoded machine readable software for producing the Typefaces licensed to you is now the property of Heidelberger Druckmaschinen AG and its licensors and may not be reproduced used displayed modified disclosed or transferred without the express written approval of Heidelberger Druckmaschinen AGCopyright c 1988 1990 1993 Adobe Systems Incorporated All Rights Reserved
Foundry URL : httpwwwLinotypeLibrarycom
</metadata>
<defs>
<font id="webfontEuauauMC" horiz-adv-x="983" >
<font-face units-per-em="2048" ascent="1638" descent="-410" />
<missing-glyph horiz-adv-x="491" />
<glyph unicode=" "  horiz-adv-x="491" />
<glyph unicode="&#x09;" horiz-adv-x="491" />
<glyph unicode="&#xa0;" horiz-adv-x="491" />
<glyph unicode="!" horiz-adv-x="606" d="M444 270h-282v-270h282v270zM201 408h205l38 579v475h-282v-475z" />
<glyph unicode="&#x22;" horiz-adv-x="948" d="M147 1462v-657h254v657h-254zM547 1462v-657h254v657h-254z" />
<glyph unicode="#" d="M377 586l31 250h200l-33 -250h-198zM0 586v-230h152l-46 -356h199l43 356h201l-45 -356h198l46 356h176v230h-150l33 250h176v229h-149l45 356h-199l-45 -356h-199l43 356h-196l-45 -356h-177v-229h150l-33 -250h-178z" />
<glyph unicode="$" d="M420 -23v-178h131v178q203 14 308.5 112.5t105.5 320.5q0 86 -18.5 145t-51.5 101t-79 71t-103 53l-162 66v387q53 -16 73.5 -68.5t22.5 -130.5h283v29q0 68 -16.5 133.5t-59.5 118.5t-115.5 89t-187.5 46v141h-131v-141q-184 -20 -283.5 -123.5t-99.5 -294.5 q0 -141 65.5 -240.5t214.5 -152.5l103 -37v-414q-41 10 -64.5 34t-36 56.5t-15.5 72.5t-3 83h-283v-43q0 -80 15.5 -151.5t58.5 -128t122 -90.5t206 -44zM420 1233v-328q-100 57 -101 172q1 127 101 156zM551 188v363q59 -31 89 -76t30 -123q0 -57 -28 -103.5t-91 -60.5z " />
<glyph unicode="%" horiz-adv-x="1593" d="M1118 1485l-831 -1542h182l831 1542h-182zM272 1067q0 111 14.5 169t75.5 58t76 -58t15 -169q0 -123 -14.5 -183.5t-76.5 -60.5q-61 0 -75.5 60.5t-14.5 183.5zM55 1059q0 -98 12.5 -172t46 -123t94 -72.5t154.5 -23.5q96 0 156 23.5t93.5 72.5t46 123t12.5 172 t-12.5 172t-46 123t-93 72.5t-156.5 23.5q-94 0 -154.5 -23.5t-94 -72.5t-46 -123t-12.5 -172zM924 362q0 -100 12 -172.5t46 -121t94.5 -70t154.5 -21.5q96 0 155.5 21.5t93 70t46 121t12.5 172.5q0 98 -12.5 172t-46 123.5t-93 73t-155.5 23.5q-94 0 -154.5 -23.5 t-94.5 -73t-46 -123.5t-12 -172zM1141 371q0 111 14 169t76 58q61 0 75.5 -58.5t14.5 -168.5q0 -123 -14.5 -183.5t-75.5 -60.5t-75.5 60.5t-14.5 183.5z" />
<glyph unicode="&#x26;" horiz-adv-x="1214" d="M872 481l-219 297q129 92 191.5 180.5t62.5 198.5q0 63 -21.5 118.5t-66.5 97.5t-113.5 65.5t-162.5 23.5q-82 0 -150.5 -21.5t-118 -61.5t-77 -96t-27.5 -128q0 -31 4 -59.5t14.5 -59t30 -65.5t49.5 -80l51 -76q-137 -86 -215.5 -189.5t-78.5 -232.5q0 -61 18 -135 t67.5 -137.5t137.5 -103.5t225 -40q111 0 204 35t148 101l82 -113h314l-193 270q66 94 108 204t42 228h-254q0 -47 -14.5 -110.5t-37.5 -110.5zM457 641l245 -348q-74 -92 -190 -92q-49 0 -88 17.5t-64.5 45t-39 62t-13.5 67.5q0 68 32 125t118 123zM412 1163q0 57 35.5 88 t89.5 31q57 0 93 -31.5t36 -91.5q0 -39 -21.5 -79t-71.5 -81l-53 -45l-35 50q-73 98 -73 159z" />
<glyph unicode="'" horiz-adv-x="532" d="M139 1462v-657h254v657h-254z" />
<glyph unicode="(" horiz-adv-x="606" d="M606 1462h-217q-154 -242 -220.5 -472t-66.5 -447t67 -444.5t220 -469.5h217q-63 117 -108 226.5t-73 217t-40 223.5t-12 247t12 246.5t40 226t73 220t108 226.5z" />
<glyph unicode=")" horiz-adv-x="606" d="M217 1462h-217q63 -117 108.5 -226.5t73 -220t39.5 -226t12 -246.5t-12 -247t-39.5 -223.5t-73 -217t-108.5 -226.5h217q154 242 220.5 469.5t66.5 444.5t-66.5 447t-220.5 472z" />
<glyph unicode="*" horiz-adv-x="798" d="M483 1462h-168v-262l-249 82l-52 -160l250 -82l-155 -213l137 -98l153 213l154 -213l137 98l-155 213l249 82l-51 160l-250 -82v262z" />
<glyph unicode="+" horiz-adv-x="1228" d="M487 391v-391h254v391h392v254h-392v391h-254v-391h-391v-254h391z" />
<glyph unicode="," horiz-adv-x="491" d="M381 319h-270v-319h106v-27q0 -57 -26.5 -104t-79.5 -57v-144q82 8 134 40t82.5 82t42 118.5t11.5 144.5v266z" />
<glyph unicode="-" horiz-adv-x="757" d="M668 713h-578v-242h578v242z" />
<glyph unicode="." horiz-adv-x="491" d="M381 319h-270v-319h270v319z" />
<glyph unicode="/" horiz-adv-x="679" d="M457 1491l-457 -1514h223l463 1514h-229z" />
<glyph unicode="0" d="M37 676q0 -193 21.5 -327t73.5 -218t140 -119t220 -35q162 0 253 61.5t136 169t55 247t10 290.5q0 193 -21.5 327t-73.5 218t-139 122t-220 38q-162 0 -253.5 -64.5t-136.5 -172t-55 -246.5t-10 -291zM332 612v158q0 139 7 233.5t24.5 150.5t48 79.5t80.5 23.5 q47 0 77.5 -18t49 -68.5t25.5 -137.5t7 -224v-158q0 -139 -7 -233t-24.5 -150.5t-48 -80t-79.5 -23.5q-47 0 -78 18.5t-49.5 68.5t-25.5 137t-7 224z" />
<glyph unicode="1" d="M373 0h295v1450h-217q-23 -123 -108 -178t-232 -55h-27v-193h289v-1024z" />
<glyph unicode="2" d="M930 0v229h-547q10 41 47 97.5t102 115.5l164 152q61 55 104.5 107.5t70 107.5t39 115.5t12.5 130.5q0 190 -106.5 292.5t-328.5 102.5q-233 0 -341.5 -108.5t-108.5 -311.5v-55h282q0 57 5.5 108.5t23 90t49 61t86.5 22.5q143 0 144 -180q0 -55 -5.5 -98t-21.5 -80 t-46 -74t-79 -80l-119 -110q-80 -74 -140 -146.5t-100 -148.5t-59.5 -160t-19.5 -180h893z" />
<glyph unicode="3" d="M324 424h-283v-6q0 -211 104.5 -326t315.5 -115q152 0 245 39t146 102.5t71.5 141.5t18.5 152q0 137 -58.5 228t-199.5 114v4q104 23 162.5 105.5t58.5 213.5q0 193 -109.5 283t-308.5 90q-209 0 -317.5 -105.5t-108.5 -322.5h271q0 51 5 94t21.5 75t46 49t76.5 17 q72 0 107 -43t35 -147q0 -45 -9.5 -86t-29 -72.5t-51 -51t-78.5 -19.5h-97v-193h99q61 0 98 -20.5t57.5 -55t27.5 -79t7 -93.5q0 -47 -5 -90t-22.5 -74.5t-49 -50t-85.5 -18.5q-96 0 -127.5 66.5t-33.5 193.5z" />
<glyph unicode="4" d="M29 543v-242h516v-301h270v301h139v229h-139v920h-305zM545 1081v-551h-287l283 551h4z" />
<glyph unicode="5" d="M870 1192v229h-755l-54 -788h265q8 61 41.5 97t97.5 36q49 0 82 -14.5t52 -49t27.5 -94t8.5 -149.5q0 -141 -40 -212t-132 -71q-47 0 -76 23.5t-44 59.5t-19.5 77t-4.5 78h-282v-39q0 -61 15.5 -132t60.5 -131.5t130 -97.5t222 -37q139 0 229 36t142.5 106.5t73 169 t20.5 219.5q0 86 -16.5 169t-56.5 148.5t-108.5 105.5t-173.5 40q-94 0 -159.5 -25.5t-106.5 -83.5h-4l31 330h534z" />
<glyph unicode="6" d="M338 451q0 147 37 210.5t125 63.5q86 0 122.5 -63.5t36.5 -210.5q0 -61 -5 -113.5t-21.5 -91.5t-48 -60.5t-84.5 -21.5q-51 0 -83 21.5t-49.5 59.5t-23.5 91.5t-6 114.5zM637 1081h283q-2 104 -36 175t-89.5 114t-128 61.5t-150.5 18.5q-180 0 -278.5 -67.5t-144.5 -179 t-55 -256t-9 -298.5q0 -133 14 -256t62.5 -216t138.5 -146.5t241 -53.5q246 0 357.5 130.5t111.5 381.5q0 98 -19.5 181.5t-61.5 143.5t-109.5 94t-163.5 34q-98 0 -166.5 -34t-105.5 -91h-4v72q0 80 6 147.5t25.5 116.5t55 76.5t93.5 27.5q74 0 103.5 -45t29.5 -131z" />
<glyph unicode="7" d="M938 1421h-893v-254h610q-106 -145 -184 -296.5t-132 -301t-87 -294t-49 -275.5h309q18 154 53 312.5t88.5 312t124 299t160.5 272.5v225z" />
<glyph unicode="8" d="M324 414q0 53 7 98t26.5 79t52 53.5t82.5 19.5q49 0 81.5 -19.5t52 -53.5t26.5 -79t7 -98q0 -51 -7 -97.5t-26.5 -80t-52 -53t-81.5 -19.5t-82 19.5t-52.5 53t-26.5 80t-7 97.5zM348 1059q0 199 144 198q143 0 143 -198q0 -104 -39 -153.5t-104 -49.5q-66 0 -105 49.5 t-39 153.5zM29 410q0 -63 15 -139t64.5 -142t140.5 -109t243 -43t242.5 43t140 109t64.5 141.5t15 139.5q0 137 -61.5 235t-183.5 123v4q57 14 97 45t64.5 70t36 82t11.5 82q0 213 -114 306t-312 93q-199 0 -312.5 -93t-113.5 -306q0 -39 10 -82t34.5 -82t64.5 -70t99 -45 v-4q-123 -25 -184 -123t-61 -235z" />
<glyph unicode="9" d="M324 971q0 61 5 113.5t21.5 91t48 60t84.5 21.5q51 0 83 -21.5t49.5 -59t23.5 -91t6 -114.5q0 -147 -37 -211t-125 -64q-86 0 -122.5 64t-36.5 211zM346 338h-283q2 -104 36 -175t89.5 -113t128 -57.5t150.5 -15.5q178 0 277.5 64.5t145.5 175.5t55 255t9 300 q0 133 -14 256t-62.5 216t-138.5 149.5t-241 56.5q-246 0 -357.5 -133t-111.5 -385q0 -98 19.5 -181t61.5 -143.5t109.5 -94.5t163.5 -34q98 0 166.5 34t105.5 89h4v-70q0 -80 -6 -147.5t-25.5 -116.5t-54 -76.5t-94.5 -27.5q-74 0 -103.5 46t-29.5 128z" />
<glyph unicode=":" horiz-adv-x="491" d="M111 1067v-319h270v319h-270zM111 319v-319h270v319h-270z" />
<glyph unicode=";" horiz-adv-x="491" d="M381 1067h-270v-319h270v319zM381 319h-270v-319h106v-27q0 -57 -26.5 -104t-79.5 -57v-144q82 8 134 40t82.5 82t42 118.5t11.5 144.5v266z" />
<glyph unicode="&#x3c;" horiz-adv-x="1228" d="M96 627v-217l1037 -420v248l-693 280l693 281v254z" />
<glyph unicode="=" horiz-adv-x="1228" d="M96 422v-254h1037v254h-1037zM96 868v-254h1037v254h-1037z" />
<glyph unicode="&#x3e;" horiz-adv-x="1228" d="M96 238v-248l1037 420v217l-1037 426v-254l692 -281z" />
<glyph unicode="?" horiz-adv-x="985" d="M614 270h-282v-270h282v270zM74 1010h270v51q0 100 34 162.5t111 62.5q70 0 105 -48t35 -126q0 -61 -17.5 -115.5t-60.5 -101.5l-78 -88q-70 -78 -98.5 -148.5t-28.5 -173.5v-79h254v30q0 78 23.5 127t76.5 109l82 92q74 86 101.5 159.5t27.5 159.5q0 180 -107.5 288 t-324.5 108q-100 0 -177 -32t-127 -87t-75.5 -133t-25.5 -170v-47z" />
<glyph unicode="@" horiz-adv-x="1638" d="M1096 1108l-27 -109q-45 72 -107.5 105t-140.5 33q-100 0 -181 -44t-138.5 -115t-88 -161t-30.5 -184q0 -82 26.5 -146.5t68.5 -109.5t95.5 -68.5t108.5 -23.5q82 0 143.5 32.5t102.5 75.5h4q10 -109 133 -108q33 0 84 13t108.5 42t115 75t103.5 111.5t74.5 150.5 t28.5 193q0 141 -61.5 255t-165 196t-241.5 126t-292 44q-158 0 -296 -59.5t-241.5 -163t-163 -241.5t-59.5 -296t59.5 -296t163 -240.5t242 -160t295.5 -57.5q233 0 399 82t277 236h-182q-86 -51 -194.5 -91t-250.5 -40q-117 0 -222 44t-184 121t-126 180t-47 220 q0 111 43 213t118.5 182t179 127t224.5 47q106 0 204.5 -34.5t174.5 -98t121 -149.5t45 -189q0 -80 -22.5 -146.5t-54.5 -112.5t-68.5 -71.5t-67.5 -25.5q-41 0 -41 41q0 27 12 84l119 512h-180zM612 668q0 43 17.5 87t48.5 80.5t73 60.5t91 24q63 0 108 -45.5t45 -110.5 q0 -45 -17 -92t-49 -85t-75 -61.5t-96 -23.5q-66 0 -106 49t-40 117z" />
<glyph unicode="A" horiz-adv-x="1138" d="M713 551l-142 657h-4l-141 -657h287zM752 1462l387 -1462h-308l-67 309h-389l-68 -309h-307l387 1462h365z" />
<glyph unicode="B" horiz-adv-x="1138" d="M397 217v440h127q49 0 90 -10t71 -35.5t47.5 -67.5t17.5 -106q0 -127 -66 -174t-172 -47h-115zM397 862v383h107q111 0 162 -43t51 -147t-56.5 -148.5t-179.5 -44.5h-84zM102 1462v-1462h498q129 0 216 35t141.5 93t77 136t22.5 164q0 147 -72 235.5t-194 104.5v4 q111 31 166 116t55 204q0 104 -31 175.5t-86 114.5t-132 61.5t-167 18.5h-494z" />
<glyph unicode="C" horiz-adv-x="1099" d="M727 969h295q0 80 -11.5 171t-56.5 170t-136 130t-249 51q-166 0 -264 -56.5t-150.5 -156.5t-67.5 -240.5t-15 -306.5q0 -168 15 -307t67.5 -239.5t150.5 -154t264 -53.5q145 0 236.5 45.5t141.5 125t68.5 186t18.5 225.5h-295q0 -119 -14 -191.5t-38.5 -112.5 t-58.5 -53.5t-73 -13.5q-47 0 -83 19.5t-59.5 76t-34.5 159t-11 268.5q0 156 8 263t28.5 173.5t56.5 96.5t91 30q100 0 138 -72.5t38 -232.5z" />
<glyph unicode="D" horiz-adv-x="1175" d="M412 217v1028h125q84 0 134 -31.5t75.5 -94t33.5 -157t8 -219.5q0 -150 -9 -250t-36.5 -161.5t-74.5 -88t-125 -26.5h-131zM117 1462v-1462h465q147 0 243.5 45t153.5 137t80.5 234.5t23.5 335.5q0 162 -18 293t-70.5 224t-146.5 143t-248 50h-483z" />
<glyph unicode="E" horiz-adv-x="985" d="M920 1462h-818v-1462h838v242h-543v393h492v242h-492v344h523v241z" />
<glyph unicode="F" horiz-adv-x="948" d="M102 1462v-1462h295v635h492v242h-492v344h523v241h-818z" />
<glyph unicode="G" horiz-adv-x="1138" d="M752 1028h282q0 223 -106.5 343t-347.5 120q-141 0 -235.5 -47t-152 -140.5t-81 -232.5t-23.5 -323q0 -190 16.5 -335t64.5 -243t133 -145.5t220 -47.5q104 0 179 36t128 122h5v-135h217v788h-478v-217h195v-149q0 -59 -18.5 -103.5t-46 -73t-59.5 -43t-58 -14.5 q-63 0 -103.5 40t-62 115t-29.5 181.5t-8 237.5q0 274 47 393t154 119q45 0 76.5 -23.5t52 -59.5t30 -79t9.5 -84z" />
<glyph unicode="H" horiz-adv-x="1138" d="M102 1462v-1462h295v649h344v-649h295v1462h-295v-559h-344v559h-295z" />
<glyph unicode="I" horiz-adv-x="528" d="M117 0h295v1462h-295v-1462z" />
<glyph unicode="J" horiz-adv-x="948" d="M858 1462h-295v-1044q0 -117 -25.5 -173.5t-105.5 -56.5t-105.5 56.5t-25.5 173.5v45h-270v-64q0 -86 16 -163.5t60.5 -136t119 -90.5t191.5 -32q223 0 331.5 99.5t108.5 333.5v1052z" />
<glyph unicode="K" horiz-adv-x="1099" d="M397 1462h-295v-1462h295v434l109 166l301 -600h332l-443 836l398 626h-320l-373 -585h-4v585z" />
<glyph unicode="L" horiz-adv-x="948" d="M102 0h818v242h-523v1220h-295v-1462z" />
<glyph unicode="M" horiz-adv-x="1515" d="M109 1462v-1462h270v1167h4l260 -1167h229l261 1167h4v-1167h270v1462h-436l-211 -1032h-4l-209 1032h-438z" />
<glyph unicode="N" horiz-adv-x="1175" d="M442 1462h-340v-1462h271v1024h4l360 -1024h336v1462h-270v-1001h-4z" />
<glyph unicode="O" horiz-adv-x="1138" d="M367 731q0 147 7 249.5t28.5 168t61.5 95.5t105 30q66 0 106 -30t61.5 -95.5t28.5 -167.5t7 -250q0 -147 -7 -250.5t-28.5 -168t-61.5 -94.5t-106 -30t-105.5 30t-61 94.5t-28.5 168t-7 250.5zM72 731q0 -168 15 -307t67.5 -239.5t150.5 -154t264 -53.5t264.5 53.5 t150.5 154t67.5 239.5t15.5 307q0 166 -15.5 306.5t-67.5 240.5t-150.5 156.5t-264.5 56.5t-264 -56.5t-150.5 -156.5t-67.5 -240.5t-15 -306.5z" />
<glyph unicode="P" horiz-adv-x="1062" d="M397 801v444h123q111 0 158 -57.5t47 -167.5q0 -113 -54.5 -166t-142.5 -53h-131zM102 1462v-1462h295v584h158q104 0 190 26.5t146.5 79.5t94.5 137t34 197q0 82 -20.5 161t-67.5 140t-124 99t-190 38h-516z" />
<glyph unicode="Q" horiz-adv-x="1138" d="M367 731q0 147 7 249.5t28.5 168t61.5 95.5t105 30q66 0 106 -30t61.5 -95.5t28.5 -167.5t7 -250q0 -147 -7 -250.5t-28.5 -168t-61.5 -94.5t-106 -30t-105.5 30t-61 94.5t-28.5 168t-7 250.5zM938 -174l174 158l-158 153q72 104 92.5 256t20.5 338q0 166 -15.5 306.5 t-67.5 240.5t-150.5 156.5t-264.5 56.5t-264 -56.5t-150.5 -156.5t-67.5 -240.5t-15 -306.5q0 -168 15 -307t67.5 -239.5t150.5 -154t264 -53.5q113 0 195 23z" />
<glyph unicode="R" horiz-adv-x="1138" d="M102 1462v-1462h295v618h158q92 0 131 -49t43 -135l8 -280q2 -43 8.5 -83t28.5 -71h320v12q-41 23 -54 84q-8 61 -12 178q-2 59 -4 107.5t-6 89.5q-12 123 -63.5 178.5t-161.5 71.5v4q125 27 184 120t59 240q0 190 -102.5 283.5t-286.5 93.5h-545zM397 823v422h140 q205 0 204 -203q0 -119 -57 -169t-164 -50h-123z" />
<glyph unicode="S" horiz-adv-x="1062" d="M340 457h-295v-60q0 -203 107.5 -311.5t357.5 -108.5q240 0 374 105.5t134 337.5q0 68 -12.5 123t-44 101t-85 86t-137.5 77l-227 98q-94 39 -123 85t-29 114q0 33 7.5 63.5t27 54t52 38t81.5 14.5q86 0 123 -56.5t37 -160.5h283v41q0 104 -34 179t-94.5 123t-143.5 69.5 t-181 21.5q-211 0 -331.5 -106.5t-120.5 -323.5q0 -90 22.5 -158.5t70.5 -121t119.5 -91.5t170.5 -72q74 -25 124 -48t80.5 -52t44 -64.5t13.5 -84.5q0 -92 -54.5 -136.5t-121.5 -44.5q-57 0 -95.5 16.5t-61 45.5t-30.5 70.5t-8 93.5v43z" />
<glyph unicode="T" d="M958 1462h-933v-241h319v-1221h295v1221h319v241z" />
<glyph unicode="U" horiz-adv-x="1101" d="M379 1462h-295v-1020q0 -147 39 -239t104.5 -142.5t149.5 -67t174 -16.5t174 18.5t149.5 72t104.5 144.5t39 230v1020h-295v-1020q0 -55 -7 -101t-26.5 -80t-52.5 -53.5t-86 -19.5q-51 0 -85 19.5t-53.5 53.5t-26.5 80t-7 101v1020z" />
<glyph unicode="V" horiz-adv-x="1062" d="M322 1462h-316l336 -1462h379l336 1462h-305l-217 -1081h-7z" />
<glyph unicode="W" horiz-adv-x="1556" d="M16 1462l267 -1462h329l164 1061h4l164 -1061h330l266 1462h-283l-161 -1081h-4l-172 1081h-283l-172 -1081h-4l-162 1081h-283z" />
<glyph unicode="X" horiz-adv-x="1099" d="M41 1462l336 -723l-365 -739h324l209 496l211 -496h331l-364 739l340 723h-322l-186 -473l-188 473h-326z" />
<glyph unicode="Y" horiz-adv-x="1064" d="M338 1462h-332l379 -887v-575h295v575l379 887h-320l-204 -565h-5z" />
<glyph unicode="Z" horiz-adv-x="985" d="M49 215v-215h887v242h-555l547 997v223h-842v-241h502z" />
<glyph unicode="[" horiz-adv-x="645" d="M164 1462v-1833h469v205h-215v1423h215v205h-469z" />
<glyph unicode="\" horiz-adv-x="679" d="M0 1491l457 -1514h229l-463 1514h-223z" />
<glyph unicode="]" horiz-adv-x="645" d="M12 -166v-205h469v1833h-469v-205h215v-1423h-215z" />
<glyph unicode="^" horiz-adv-x="1228" d="M115 633h254l245 506l246 -506h254l-385 788h-229z" />
<glyph unicode="_" horiz-adv-x="1024" d="M0 -250h1024v103h-1024v-103z" />
<glyph unicode="`" horiz-adv-x="454" d="M168 1231h192l-110 295h-277z" />
<glyph unicode="a" horiz-adv-x="985" d="M608 551v-217q0 -45 -16.5 -78t-42 -53.5t-56 -29.5t-59.5 -9q-57 0 -81.5 45t-24.5 108q0 74 36.5 117t122.5 62q27 6 59.5 19t61.5 36zM92 764h254v31q0 66 33 104.5t98 38.5q72 0 101.5 -36t29.5 -99q0 -55 -24.5 -84t-87.5 -45l-160 -43q-74 -20 -126 -47t-86 -67 t-50.5 -96t-16.5 -134q0 -55 14.5 -111.5t45 -101.5t82 -71t125.5 -26q102 0 166.5 26t113.5 112h4q6 -29 13.5 -58.5t21.5 -56.5h270q-20 49 -27 92t-7 121v580q0 74 -15.5 136t-58.5 107t-121 69.5t-205 24.5q-80 0 -150.5 -17t-122.5 -57t-83 -104.5t-31 -160.5v-27z" />
<glyph unicode="b" horiz-adv-x="1024" d="M94 1462v-1462h271v117h4q47 -78 105 -109t144 -31q174 0 256 133.5t82 440.5t-81.5 443t-256.5 136q-80 0 -136 -32.5t-101 -98.5h-4v463h-283zM377 551q0 180 27.5 271t121.5 91q92 0 120 -91t28 -271t-28 -271.5t-120 -91.5q-94 0 -121.5 91.5t-27.5 271.5z" />
<glyph unicode="c" horiz-adv-x="948" d="M625 705h270q0 197 -99.5 311t-295.5 114q-98 0 -180 -26.5t-141.5 -93t-92.5 -178t-33 -281.5q0 -166 26.5 -277.5t79 -178t131.5 -92.5t185 -26q225 0 322.5 114t97.5 331h-270q0 -135 -33 -196.5t-105 -61.5q-47 0 -76.5 21.5t-46 68.5t-22.5 119.5t-6 175.5 q0 96 6 166.5t22.5 117t49 70t84.5 23.5q41 0 65.5 -19.5t37.5 -51.5t18.5 -70.5t5.5 -79.5z" />
<glyph unicode="d" horiz-adv-x="1024" d="M659 117v-117h271v1462h-283v-463h-4q-45 66 -101.5 98.5t-135.5 32.5q-174 0 -256 -136t-82 -443t81.5 -440.5t256.5 -133.5q86 0 144 31t105 109h4zM350 551q0 180 28 271t120 91q94 0 121.5 -91t27.5 -271t-27.5 -271.5t-121.5 -91.5q-92 0 -120 91.5t-28 271.5z" />
<glyph unicode="e" horiz-adv-x="948" d="M625 676h-289v43q0 39 7 78t23.5 70.5t44 51t70.5 19.5t71 -17.5t43 -51t21.5 -82t8.5 -111.5zM336 508h559v63q0 127 -16.5 230.5t-61.5 176.5t-124 112.5t-201 39.5q-143 0 -229.5 -47t-132.5 -126.5t-61.5 -182t-15.5 -213.5q0 -104 9.5 -208.5t50.5 -188.5 t127 -135.5t239 -51.5q203 0 297 100.5t103 293.5h-254q-12 -104 -45 -155.5t-105 -51.5q-39 0 -65.5 21.5t-43 57.5t-23.5 82t-7 95v88z" />
<glyph unicode="f" horiz-adv-x="606" d="M156 909v-909h282v909h164v193h-164v96q0 47 24.5 67.5t84.5 20.5h26q18 0 29 -2v201q-76 6 -151 6q-68 0 -123.5 -13.5t-93 -44t-58 -82t-20.5 -124.5v-125h-144v-193h144z" />
<glyph unicode="g" horiz-adv-x="1024" d="M354 516q0 111 5.5 187.5t21.5 122.5t45 66.5t76 20.5q84 0 115.5 -84t31.5 -284q0 -70 -7 -128.5t-24.5 -99.5t-47 -64.5t-74.5 -23.5t-73 23.5t-43 63.5t-20.5 91.5t-5.5 108.5zM920 1102h-271v-123h-4q-41 86 -104.5 118.5t-122.5 32.5q-115 0 -183.5 -51t-104.5 -132 t-47 -181t-11 -197q0 -301 85 -429t253 -128q68 0 130 37t105 98h4v-145q0 -82 -34.5 -137t-120.5 -55q-27 0 -50.5 8t-44.5 22q-43 31 -43 84h-270q0 -141 97.5 -218t277.5 -77q248 0 353.5 106.5t105.5 319.5v1047z" />
<glyph unicode="h" horiz-adv-x="1024" d="M94 1462v-1462h283v731q0 182 149 182q63 0 92 -33.5t29 -119.5v-760h283v817q0 166 -73 239.5t-208 73.5q-186 0 -268 -141h-4v473h-283z" />
<glyph unicode="i" horiz-adv-x="491" d="M104 1479v-242h283v242h-283zM104 1102v-1102h283v1102h-283z" />
<glyph unicode="j" horiz-adv-x="491" d="M104 1479v-242h283v242h-283zM104 1102v-1082q0 -86 -17 -128t-87 -42h-23q-10 0 -22 5v-205q31 -2 57.5 -3t50.5 -1q94 0 157 18.5t99.5 54t52 89t15.5 122.5v1172h-283z" />
<glyph unicode="k" horiz-adv-x="1024" d="M387 1462h-283v-1462h283v322l100 131l236 -453h311l-364 668l317 434h-311l-285 -412h-4v772z" />
<glyph unicode="l" horiz-adv-x="491" d="M104 1462v-1462h283v1462h-283z" />
<glyph unicode="m" horiz-adv-x="1552" d="M94 1102v-1102h283v725q0 98 40 143t107 45q59 0 85 -36.5t26 -106.5v-770h283v725q0 98 39.5 143t107.5 45q59 0 85 -36.5t26 -106.5v-770h282v801q0 160 -66.5 244.5t-207.5 84.5q-100 0 -173 -44t-106 -132h-4q-23 86 -89.5 131t-164.5 45q-92 0 -158.5 -32.5 t-119.5 -108.5h-4v113h-271z" />
<glyph unicode="n" horiz-adv-x="1024" d="M94 1102v-1102h283v731q0 182 149 182q63 0 92 -33.5t29 -119.5v-760h283v817q0 166 -73 239.5t-208 73.5q-92 0 -163.5 -37.5t-116.5 -119.5h-4v129h-271z" />
<glyph unicode="o" d="M340 551q0 84 4 155.5t19.5 123t46 80t82.5 28.5q86 0 118.5 -90t32.5 -297t-32.5 -297t-118.5 -90q-51 0 -82 28.5t-46.5 80t-19.5 123t-4 155.5zM57 551q0 -143 20.5 -253t70 -182.5t133.5 -106.5q79 -32 196 -32h15q121 0 203.5 35t134 108t74 181.5t22.5 249.5 q0 145 -20.5 253.5t-70 182.5t-133.5 110q-79 34 -197 34q-7 0 -13 -1q-121 0 -204 -37.5t-134.5 -110.5t-74 -181.5t-22.5 -249.5z" />
<glyph unicode="p" horiz-adv-x="1024" d="M94 1102v-1456h283v456h4q45 -66 101.5 -95.5t135.5 -29.5q174 0 256 133.5t82 440.5t-81.5 443t-256.5 136q-86 0 -144 -33.5t-105 -111.5h-4v117h-271zM377 551q0 180 27.5 271t121.5 91q92 0 120 -91t28 -271t-28 -271.5t-120 -91.5q-94 0 -121.5 91.5t-27.5 271.5z " />
<glyph unicode="q" horiz-adv-x="1024" d="M647 102v-456h283v1456h-271v-117h-4q-47 78 -105 111.5t-144 33.5q-174 0 -256 -136t-82 -443t81.5 -440.5t256.5 -133.5q80 0 136 30t101 95h4zM647 551q0 -180 -27.5 -271.5t-121.5 -91.5q-92 0 -120 91.5t-28 271.5t28 271t120 91q94 0 121.5 -91t27.5 -271z" />
<glyph unicode="r" horiz-adv-x="681" d="M94 1102v-1102h283v662q0 55 18.5 93t49 61.5t67.5 33.5t74 10q23 0 44 -1t44 -3v270q-12 2 -25.5 3t-25.5 1q-88 0 -149.5 -48t-104.5 -128h-4v148h-271z" />
<glyph unicode="s" horiz-adv-x="909" d="M301 360h-254v-38q0 -80 18.5 -144.5t64.5 -109.5t125 -68t198 -23q90 0 164.5 18.5t129 61.5t85 107.5t30.5 152.5q0 125 -55 198t-189 118l-169 57q-72 23 -97.5 55.5t-25.5 73.5q0 59 40 89t93 30q70 0 97.5 -40t27.5 -126h254v45q0 150 -92.5 231.5t-284.5 81.5 q-109 0 -185.5 -26.5t-126 -71.5t-72 -105.5t-22.5 -127.5q0 -117 59.5 -192t176.5 -115l198 -72q41 -16 72 -44t31 -81q0 -66 -39 -98.5t-104 -32.5q-72 0 -110 44t-38 116v36z" />
<glyph unicode="t" horiz-adv-x="606" d="M156 1417v-315h-144v-193h144v-630q0 -84 10 -139.5t37.5 -89.5t80 -45t134.5 -11q49 0 93 3t91 3v197q-14 -2 -30.5 -3t-32.5 -1q-61 0 -81 27.5t-20 92.5v596h164v193h-164v315h-282z" />
<glyph unicode="u" horiz-adv-x="1024" d="M659 129v-129h271v1102h-283v-731q0 -182 -149 -183q-63 0 -92 34t-29 120v760h-283v-817q0 -166 73 -237t208 -71q92 0 163.5 35t116.5 117h4z" />
<glyph unicode="v" horiz-adv-x="909" d="M616 1102l-149 -789h-4l-158 789h-295l285 -1102h328l276 1102h-283z" />
<glyph unicode="w" horiz-adv-x="1441" d="M14 1102l240 -1102h328l137 782h4l145 -782h322l237 1102h-270l-133 -783h-4l-146 783h-307l-137 -783h-4l-129 783h-283z" />
<glyph unicode="x" horiz-adv-x="946" d="M625 1102l-152 -332l-151 332h-295l286 -535l-299 -567h295l164 360l164 -360h295l-299 567l287 535h-295z" />
<glyph unicode="y" horiz-adv-x="909" d="M94 -143v-211h115q98 0 162.5 14t110.5 60.5t80 131.5t71 222l266 1028h-283l-143 -762h-4l-164 762h-295l309 -1102q-6 -68 -39.5 -109t-111.5 -41q-37 1 -74 7z" />
<glyph unicode="z" horiz-adv-x="872" d="M49 217v-217h774v229h-440l440 656v217h-753v-230h419z" />
<glyph unicode="{" horiz-adv-x="645" d="M61 627v-168q51 0 93.5 -47t42.5 -119v-389q0 -131 54 -203t159 -72h182v205h-62q-49 0 -64 44t-15 104v333q0 92 -41 152.5t-107 73.5v4q66 12 107 72.5t41 152.5v340q0 59 15 103t64 44h62v205h-182q-104 0 -158.5 -71.5t-54.5 -202.5v-395q0 -72 -42.5 -119t-93.5 -47 z" />
<glyph unicode="|" horiz-adv-x="454" d="M100 1491v-1514h254v1514h-254z" />
<glyph unicode="}" horiz-adv-x="645" d="M53 -166v-205h183q104 0 158.5 72t54.5 203v389q0 72 41.5 119t93.5 47v168q-51 0 -93 47t-42 119v395q0 131 -54.5 202.5t-158.5 71.5h-183v-205h62q49 0 64.5 -44t15.5 -103v-340q0 -92 40.5 -152.5t106.5 -72.5v-4q-66 -12 -106.5 -72.5t-40.5 -153.5v-333 q0 -59 -15.5 -103.5t-64.5 -44.5h-62z" />
<glyph unicode="~" horiz-adv-x="1228" d="M1087 498l-73 217q-8 -18 -26.5 -43t-44 -46.5t-54.5 -36t-60 -14.5q-43 0 -86 17.5t-127 62.5q-115 59 -223 60q-92 0 -151.5 -49.5t-100.5 -126.5l74 -217q8 18 26.5 42.5t44 46t54.5 36t59 14.5q16 0 33 -2t38.5 -10.5t51 -21.5t72.5 -36q59 -31 115.5 -50t126.5 -19 q92 0 151 49t100 127z" />
<glyph unicode="&#xa1;" horiz-adv-x="606" d="M162 1102v-271h282v271h-282zM162 115v-469h282v469l-38 579h-205z" />
<glyph unicode="&#xa2;" d="M455 -23v-180h106v180q190 23 272 134.5t82 316.5h-270q0 -31 -2 -67.5t-10 -71.5t-24.5 -64.5t-47.5 -48.5v750q29 -10 45.5 -34t24.5 -52.5t11 -62.5t3 -64h270q0 125 -30.5 203.5t-80.5 124.5t-113.5 65.5t-129.5 23.5v156h-106v-156q-123 -10 -199 -59t-118 -128 t-56 -181.5t-14 -218.5q0 -172 29.5 -280.5t81.5 -171t123 -86.5t153 -28zM455 926v-750q-39 12 -60.5 50t-31 90.5t-11.5 115t-2 123.5q0 160 18.5 253t86.5 118z" />
<glyph unicode="&#xa3;" d="M18 795v-168h209q23 -57 23 -101q0 -104 -66.5 -199.5t-173.5 -162.5l84 -170q61 25 105.5 38t95.5 13q47 0 97 -11l100 -23l94 -22q45 -11 82 -12q154 0 305 93l-90 192q-68 -45 -124.5 -65.5t-88.5 -20.5q-27 0 -58.5 9.5t-63.5 21.5t-61.5 21.5t-50.5 9.5 q-23 0 -52.5 -5.5t-39.5 -9.5l-8 4q102 86 143 158t41 162q0 49 -10 80h289v168h-342l-58 116q-29 59 -41 110.5t-12 74.5q0 61 38 111t134 50q45 0 76 -18t49.5 -50t26.5 -74t8 -89h270q-4 223 -119.5 323.5t-326.5 100.5q-111 0 -193 -28.5t-137 -78t-82 -116t-27 -142.5 q0 -113 93 -290h-138z" />
<glyph unicode="&#xa4;" d="M240 711q0 123 67.5 193.5t184.5 70.5t184 -70.5t67 -193.5t-67.5 -194t-183.5 -71q-117 0 -184.5 71t-67.5 194zM0 346l125 -127l104 105q115 -82 263 -82q74 0 140 21.5t122 60.5l104 -105l125 127l-102 103q39 57 59.5 123.5t20.5 138.5t-20.5 138t-59.5 124l102 102 l-125 127l-104 -102q-55 37 -122 58.5t-140 21.5q-72 0 -138.5 -20.5t-124.5 -59.5l-104 102l-125 -127l102 -102q-39 -57 -59 -124t-20 -138q0 -74 21.5 -140.5t57.5 -121.5z" />
<glyph unicode="&#xa5;" d="M365 326v-326h253v326h291v168h-291v88l23 47h268v168h-188l297 624h-295l-229 -551h-5l-219 551h-299l291 -624h-188v-168h268l23 -47v-88h-291v-168h291z" />
<glyph unicode="&#xa6;" horiz-adv-x="454" d="M100 1491v-555h254v555h-254zM100 526v-549h254v549h-254z" />
<glyph unicode="&#xa7;" horiz-adv-x="985" d="M541 446l-203 111q-35 18 -52.5 50t-17.5 61q0 39 27 78.5t86 74.5l197 -104q78 -41 108.5 -78t30.5 -90q0 -33 -21.5 -71t-74.5 -83q-18 14 -37.5 26.5t-42.5 24.5zM348 76h-270v-31q0 -158 101.5 -254t312.5 -96q199 0 308 86t109 266q0 92 -29.5 152.5t-80.5 101.5 q37 20 65.5 54t50 74t32.5 83t11 80q0 133 -65.5 211t-159.5 123l-244 114q-72 35 -101.5 71t-29.5 71q0 49 34 82.5t93 33.5q82 0 113 -38q29 -39 29 -101h270q0 72 -21.5 133.5t-68.5 105.5t-121 68.5t-178 24.5q-88 0 -165 -18.5t-133 -59.5t-89 -104.5t-33 -155.5 q0 -141 123 -233q-86 -43 -135 -119t-49 -174t50 -179t167 -137l252 -121q72 -35 101.5 -74.5t29.5 -97.5q0 -45 -32 -88t-103 -43q-61 0 -102.5 43t-41.5 115v31z" />
<glyph unicode="&#xa8;" horiz-adv-x="454" d="M289 1491v-242h229v242h-229zM-57 1491v-242h223v242h-223z" />
<glyph unicode="&#xa9;" horiz-adv-x="1638" d="M59 731q0 -158 59.5 -296t163 -240.5t242 -160t295.5 -57.5q158 0 296 57.5t241.5 160t163 240.5t59.5 296t-59.5 296t-163 241.5t-241.5 163t-296 59.5t-296 -59.5t-241.5 -163t-163 -241.5t-59.5 -296zM289 731q0 111 40 210t110.5 173t168 117t211.5 43q115 0 212 -43 t168 -117t111 -173t40 -210t-40 -210t-111 -173t-168 -117t-212 -43t-212 43t-167.5 117t-110.5 173t-40 210zM1219 610h-205q-10 -66 -58.5 -104.5t-124.5 -38.5q-49 0 -89 21.5t-67.5 58.5t-42 86t-14.5 104q0 117 54.5 194t161.5 77q78 0 120.5 -39t59.5 -99h196 q-10 78 -42.5 136.5t-82 97.5t-112 59.5t-129.5 20.5q-98 0 -176 -35t-131.5 -94.5t-82 -141.5t-28.5 -176q0 -92 29.5 -174t85 -142.5t133.5 -95t176 -34.5q66 0 127 21.5t110.5 61.5t84.5 100t47 136z" />
<glyph unicode="&#xaa;" horiz-adv-x="643" d="M395 1100v-121q0 -53 -34.5 -74.5t-69.5 -21.5t-50.5 25.5t-15.5 60.5q0 41 22.5 65.5t76.5 34.5q16 4 35.5 11.5t35.5 19.5zM600 895v352q0 45 -10 82t-40 63.5t-84 42t-142 15.5q-125 0 -203 -45t-78 -158v-26h193v18q0 35 21.5 57.5t61.5 22.5q76 0 76 -76 q0 -27 -16.5 -43t-56.5 -26l-119 -25q-98 -20 -140.5 -65.5t-42.5 -143.5q0 -33 9.5 -66.5t31 -60.5t56.5 -44t86 -17q72 0 114.5 16t77.5 70q4 -16 8.5 -36t14.5 -36h205q-14 31 -18.5 56.5t-4.5 72.5z" />
<glyph unicode="&#xab;" horiz-adv-x="872" d="M106 758v-332l306 -246v271l-162 141l162 141v271zM461 758v-332l305 -246v271l-162 141l162 141v271z" />
<glyph unicode="&#xac;" horiz-adv-x="1228" d="M879 614v-413h254v667h-1037v-254h783z" />
<glyph unicode="&#xad;" horiz-adv-x="757" d="M668 713h-578v-242h578v242z" />
<glyph unicode="&#xae;" horiz-adv-x="1638" d="M289 731q0 111 40 210t110.5 173t168 117t211.5 43q115 0 212 -43t168 -117t111 -173t40 -210t-40 -210t-111 -173t-168 -117t-212 -43t-212 43t-167.5 117t-110.5 173t-40 210zM59 731q0 -158 59.5 -296t163 -240.5t242 -160t295.5 -57.5q158 0 296 57.5t241.5 160 t163 240.5t59.5 296t-59.5 296t-163 241.5t-241.5 163t-296 59.5t-296 -59.5t-241.5 -163t-163 -241.5t-59.5 -296zM702 795v202h119q25 0 52.5 -3t51 -13t38 -29.5t14.5 -54.5q0 -66 -39 -84t-98 -18h-138zM522 1141v-819h180v329h66l193 -329h196l-203 337 q86 10 144.5 66.5t58.5 161.5q0 123 -78 188.5t-237 65.5h-320z" />
<glyph unicode="&#xaf;" horiz-adv-x="454" d="M528 1462h-596v-155h596v155z" />
<glyph unicode="&#xb0;" horiz-adv-x="819" d="M262 1147q0 61 43 104t105 43q61 0 104 -43t43 -104t-43 -104.5t-104 -43.5t-104.5 43.5t-43.5 104.5zM106 1147q0 -63 24 -118.5t65 -96.5t96 -64.5t119 -23.5q63 0 118.5 23.5t96.5 64.5t64.5 96t23.5 119q0 63 -23.5 118.5t-64.5 96.5t-96.5 64.5t-118.5 23.5 t-118.5 -23.5t-96.5 -64.5t-65 -96.5t-24 -118.5z" />
<glyph unicode="&#xb1;" horiz-adv-x="1228" d="M96 254v-254h1037v254h-1037zM487 1036v-221h-391v-254h391v-221h254v221h392v254h-392v221h-254z" />
<glyph unicode="&#xb2;" horiz-adv-x="638" d="M0 573h639v168h-360q6 25 30.5 57.5t77.5 73.5l117 91q80 61 107.5 121.5t27.5 144.5q0 100 -72.5 160.5t-238.5 60.5q-176 0 -252 -66.5t-76 -187.5v-51h217q0 25 4 51.5t15.5 48t32 35.5t53.5 14q41 0 64.5 -27.5t23.5 -68.5q0 -47 -20.5 -85t-80.5 -81l-102 -74 q-117 -82 -162 -175t-45 -210z" />
<glyph unicode="&#xb3;" horiz-adv-x="638" d="M217 852h-217v-21q0 -129 69.5 -200.5t223.5 -71.5q111 0 178.5 24.5t105 63.5t50 86t12.5 90q0 82 -38 135.5t-130 69.5v4q68 14 105.5 64.5t37.5 130.5q0 117 -74.5 170t-228.5 53q-74 0 -130 -16.5t-93 -51.5q-74 -70 -74 -211h205q0 49 18.5 86t75.5 37 q37 0 60.5 -25.5t23.5 -64.5q0 -41 -25.5 -74.5t-84.5 -33.5h-58v-144h58q41 0 64.5 -12t36.5 -30.5t17.5 -41t4.5 -45.5q0 -45 -21.5 -76.5t-71.5 -31.5q-57 0 -77.5 40t-22.5 97z" />
<glyph unicode="&#xb4;" horiz-adv-x="454" d="M205 1526l-111 -295h193l200 295h-282z" />
<glyph unicode="&#xb5;" horiz-adv-x="1024" d="M647 1102v-731q0 -182 -149 -183q-63 0 -92 34t-29 120v760h-283v-1456h283v348q10 -6 24.5 -11.5t36.5 -5.5q51 0 111.5 35t105.5 117h4v-129h271v1102h-283z" />
<glyph unicode="&#xb6;" d="M373 686v-962h217v1546h149v-1546h217v1738h-548q-90 0 -165 -17.5t-128.5 -62.5t-83 -121.5t-29.5 -193.5q0 -186 93.5 -283.5t277.5 -97.5z" />
<glyph unicode="&#xb7;" horiz-adv-x="491" d="M47 578q0 -86 56.5 -142.5t142.5 -56.5t142 56.5t56 142.5t-56 142t-142 56t-142.5 -56t-56.5 -142z" />
<glyph unicode="&#xb8;" horiz-adv-x="454" d="M301 0h-111l-112 -182l45 -41q16 6 31.5 9t38.5 3q41 0 65.5 -19.5t24.5 -50.5q0 -29 -30 -49t-73 -20q-39 0 -79 9t-62 22l-39 -95q25 -14 81 -26.5t124 -12.5q125 0 191.5 50.5t66.5 142.5q0 37 -15.5 64.5t-40 47t-55 29.5t-61.5 10q-18 0 -33.5 -3l-34.5 -7z" />
<glyph unicode="&#xb9;" horiz-adv-x="638" d="M236 1167v-594h229v877h-176q-14 -72 -71.5 -105.5t-151.5 -33.5h-17v-144h187z" />
<glyph unicode="&#xba;" horiz-adv-x="643" d="M229 1100q0 94 15.5 156.5t77.5 62.5q51 0 71.5 -51t20.5 -168t-20.5 -167t-71.5 -50q-61 0 -77 61.5t-16 155.5zM25 1100q0 -86 13 -152.5t47 -110.5t91 -65.5t146 -19.5q84 0 141 22.5t92 66.5t49 108.5t14 150.5q0 88 -13 154.5t-47 110.5t-91 65.5t-145 19.5 q-168 0 -232.5 -89t-64.5 -261z" />
<glyph unicode="&#xbb;" horiz-adv-x="872" d="M461 451v-271l305 246v332l-305 246v-271l162 -141zM106 451v-271l306 246v332l-306 246v-271l162 -141z" />
<glyph unicode="&#xbc;" horiz-adv-x="1476" d="M186 1167v-594h230v877h-176q-14 -72 -71.5 -105.5t-152.5 -33.5h-16v-144h186zM1028 1485l-831 -1542h182l831 1542h-182zM821 344v-186h348v-158h217v158h91v168h-91v551h-253zM1169 623v-297h-180l176 297h4z" />
<glyph unicode="&#xbd;" horiz-adv-x="1476" d="M838 0h639v168h-361q6 25 30.5 57.5t78.5 73.5l116 90q80 61 108 121.5t28 144.5q0 100 -73 161t-239 61q-176 0 -251.5 -67t-75.5 -187v-52h217q0 25 4 51.5t15 48t31.5 36t53.5 14.5q41 0 64.5 -27.5t23.5 -68.5q0 -47 -20.5 -85t-79.5 -81l-103 -74 q-117 -82 -161.5 -175t-44.5 -210zM186 1167v-594h230v877h-176q-14 -72 -71.5 -105.5t-152.5 -33.5h-16v-144h186zM979 1485l-832 -1542h183l831 1542h-182z" />
<glyph unicode="&#xbe;" horiz-adv-x="1476" d="M217 852h-217v-21q0 -129 69.5 -200.5t223.5 -71.5q111 0 178.5 24.5t105 63.5t50 86t12.5 90q0 82 -38 135.5t-130 69.5v4q68 14 105.5 64.5t37.5 130.5q0 117 -74.5 170t-228.5 53q-74 0 -130 -16.5t-93 -51.5q-74 -70 -74 -211h205q0 49 18.5 86t75.5 37 q37 0 60.5 -25.5t23.5 -64.5q0 -41 -25.5 -74.5t-84.5 -33.5h-58v-144h58q41 0 64.5 -12t36.5 -30.5t17.5 -41t4.5 -45.5q0 -45 -21.5 -76.5t-71.5 -31.5q-57 0 -77.5 40t-22.5 97zM1108 1485l-832 -1542h183l831 1542h-182zM1169 326h-180l176 297h4v-297zM821 344v-186 h348v-158h217v158h91v168h-91v551h-253z" />
<glyph unicode="&#xbf;" horiz-adv-x="985" d="M371 831h282v271h-282v-271zM911 92h-270v-51q0 -94 -34 -156.5t-111 -62.5q-70 0 -105 48t-35 126q0 55 17.5 109.5t60.5 101.5l78 88q70 78 98.5 148.5t28.5 172.5v80h-254v-30q0 -78 -23.5 -127.5t-76.5 -108.5l-82 -92q-74 -86 -101.5 -160t-27.5 -160 q0 -176 107.5 -282.5t324.5 -106.5q102 0 178 32t126 88t75.5 133t25.5 163v47z" />
<glyph unicode="&#xc0;" horiz-adv-x="1138" d="M510 1548h192l-110 295h-283zM426 551l141 657h4l142 -657h-287zM387 1462l-387 -1462h307l68 309h389l67 -309h308l-387 1462h-365z" />
<glyph unicode="&#xc1;" horiz-adv-x="1138" d="M547 1843l-111 -295h193l200 295h-282zM426 551l141 657h4l142 -657h-287zM387 1462l-387 -1462h307l68 309h389l67 -309h308l-387 1462h-365z" />
<glyph unicode="&#xc2;" horiz-adv-x="1138" d="M422 1843l-160 -295h205l98 174l94 -174h218l-160 295h-295zM426 551l141 657h4l142 -657h-287zM387 1462l-387 -1462h307l68 309h389l67 -309h308l-387 1462h-365z" />
<glyph unicode="&#xc3;" horiz-adv-x="1138" d="M248 1567h143q16 74 66 73q25 0 53 -11l60 -23l65 -23.5t65 -11.5q78 0 129.5 71.5t61.5 182.5h-148q0 -20 -14 -47t-43 -27q-31 0 -61 12l-99 43q-31 14 -88 15q-78 0 -126 -65.5t-64 -188.5zM426 551l141 657h4l142 -657h-287zM387 1462l-387 -1462h307l68 309h389 l67 -309h308l-387 1462h-365z" />
<glyph unicode="&#xc4;" horiz-adv-x="1138" d="M631 1808v-241h229v241h-229zM279 1808v-241h229v241h-229zM426 551l141 657h4l142 -657h-287zM387 1462l-387 -1462h307l68 309h389l67 -309h308l-387 1462h-365z" />
<glyph unicode="&#xc5;" horiz-adv-x="1138" d="M451 1735q0 49 34.5 83.5t83.5 34.5t84 -34.5t35 -83.5t-35 -84t-84 -35t-83.5 35t-34.5 84zM336 1735q0 -49 18.5 -91t50 -74t73.5 -50.5t91 -18.5t91 18.5t74 50.5t50.5 74t18.5 91t-18.5 91t-50.5 73.5t-74 50t-91 18.5t-91 -18.5t-73.5 -50t-50 -73.5t-18.5 -91z M426 551l141 657h4l142 -657h-287zM387 1462l-387 -1462h307l68 309h389l67 -309h308l-387 1462h-365z" />
<glyph unicode="&#xc6;" horiz-adv-x="1554" d="M725 551h-246l228 682h18v-682zM541 1462l-545 -1462h301l102 309h326v-309h784v242h-501v393h450v242h-450v344h481v241h-948z" />
<glyph unicode="&#xc7;" horiz-adv-x="1099" d="M535 -23l-97 -159l45 -41q16 6 31.5 9t38.5 3q41 0 65.5 -19.5t24.5 -50.5q0 -29 -29.5 -49t-72.5 -20q-39 0 -79 9t-63 22l-39 -95q25 -14 81.5 -26.5t123.5 -12.5q125 0 191.5 50.5t66.5 142.5q0 37 -15 64.5t-40 47t-55.5 29.5t-61.5 10q-18 0 -33.5 -3t-33.5 -7 l61 99q121 12 197 61t119 128t58 179.5t15 210.5h-295q0 -119 -14 -191.5t-38.5 -112.5t-58.5 -53.5t-73 -13.5q-47 0 -83 19.5t-59.5 76t-34.5 159t-11 268.5q0 156 8 263t28.5 173.5t56.5 96.5t91 30q100 0 138 -73t38 -232h295q0 80 -11.5 171t-56.5 170t-136 130 t-249 51q-166 0 -264 -56.5t-150.5 -156.5t-67.5 -240.5t-15 -306.5q0 -162 14 -298t62.5 -236.5t140.5 -157t246 -62.5z" />
<glyph unicode="&#xc8;" horiz-adv-x="985" d="M459 1548h192l-110 295h-283zM920 1462h-818v-1462h838v242h-543v393h492v242h-492v344h523v241z" />
<glyph unicode="&#xc9;" horiz-adv-x="985" d="M496 1843l-111 -295h193l200 295h-282zM920 1462h-818v-1462h838v242h-543v393h492v242h-492v344h523v241z" />
<glyph unicode="&#xca;" horiz-adv-x="985" d="M371 1843l-160 -295h205l98 174l94 -174h217l-159 295h-295zM920 1462h-818v-1462h838v242h-543v393h492v242h-492v344h523v241z" />
<glyph unicode="&#xcb;" horiz-adv-x="985" d="M580 1808v-241h229v241h-229zM227 1808v-241h230v241h-230zM920 1462h-818v-1462h838v242h-543v393h492v242h-492v344h523v241z" />
<glyph unicode="&#xcc;" horiz-adv-x="528" d="M205 1548h192l-110 295h-283zM117 0h295v1462h-295v-1462z" />
<glyph unicode="&#xcd;" horiz-adv-x="528" d="M242 1843l-111 -295h193l200 295h-282zM117 0h295v1462h-295v-1462z" />
<glyph unicode="&#xce;" horiz-adv-x="528" d="M117 1843l-154 -295h199l98 174l94 -174h217l-159 295h-295zM117 0h295v1462h-295v-1462z" />
<glyph unicode="&#xcf;" horiz-adv-x="528" d="M326 1808v-241h229v241h-229zM-20 1808v-241h223v241h-223zM117 0h295v1462h-295v-1462z" />
<glyph unicode="&#xd0;" horiz-adv-x="1175" d="M412 862v383h125q84 0 134 -31.5t75.5 -94t33.5 -157t8 -219.5q0 -150 -9 -250t-36.5 -161.5t-74.5 -88t-125 -26.5h-131v428h190v217h-190zM117 645v-645h465q147 0 243.5 45t153.5 137t80.5 234.5t23.5 335.5q0 162 -18 293t-70.5 224t-146.5 143t-248 50h-483v-600 h-117v-217h117z" />
<glyph unicode="&#xd1;" horiz-adv-x="1175" d="M266 1567h144q16 74 65 73q25 0 53 -11l61 -23l64.5 -23.5t65.5 -11.5q78 0 129 71.5t61 182.5h-147q0 -20 -14.5 -47t-42.5 -27q-31 0 -62 12l-98 43q-31 14 -88 15q-78 0 -126.5 -65.5t-64.5 -188.5zM442 1462h-340v-1462h271v1024h4l360 -1024h336v1462h-270v-1001h-4 z" />
<glyph unicode="&#xd2;" horiz-adv-x="1138" d="M510 1548h192l-110 295h-283zM367 731q0 147 7 249.5t28.5 168t61.5 95.5t105 30q66 0 106 -30t61.5 -95.5t28.5 -167.5t7 -250q0 -147 -7 -250.5t-28.5 -168t-61.5 -94.5t-106 -30t-105.5 30t-61 94.5t-28.5 168t-7 250.5zM72 731q0 -168 15 -307t67.5 -239.5 t150.5 -154t264 -53.5t264.5 53.5t150.5 154t67.5 239.5t15.5 307q0 166 -15.5 306.5t-67.5 240.5t-150.5 156.5t-264.5 56.5t-264 -56.5t-150.5 -156.5t-67.5 -240.5t-15 -306.5z" />
<glyph unicode="&#xd3;" horiz-adv-x="1138" d="M547 1843l-111 -295h193l200 295h-282zM367 731q0 147 7 249.5t28.5 168t61.5 95.5t105 30q66 0 106 -30t61.5 -95.5t28.5 -167.5t7 -250q0 -147 -7 -250.5t-28.5 -168t-61.5 -94.5t-106 -30t-105.5 30t-61 94.5t-28.5 168t-7 250.5zM72 731q0 -168 15 -307t67.5 -239.5 t150.5 -154t264 -53.5t264.5 53.5t150.5 154t67.5 239.5t15.5 307q0 166 -15.5 306.5t-67.5 240.5t-150.5 156.5t-264.5 56.5t-264 -56.5t-150.5 -156.5t-67.5 -240.5t-15 -306.5z" />
<glyph unicode="&#xd4;" horiz-adv-x="1138" d="M422 1843l-160 -295h205l98 174l94 -174h218l-160 295h-295zM367 731q0 147 7 249.5t28.5 168t61.5 95.5t105 30q66 0 106 -30t61.5 -95.5t28.5 -167.5t7 -250q0 -147 -7 -250.5t-28.5 -168t-61.5 -94.5t-106 -30t-105.5 30t-61 94.5t-28.5 168t-7 250.5zM72 731 q0 -168 15 -307t67.5 -239.5t150.5 -154t264 -53.5t264.5 53.5t150.5 154t67.5 239.5t15.5 307q0 166 -15.5 306.5t-67.5 240.5t-150.5 156.5t-264.5 56.5t-264 -56.5t-150.5 -156.5t-67.5 -240.5t-15 -306.5z" />
<glyph unicode="&#xd5;" horiz-adv-x="1138" d="M248 1567h143q16 74 66 73q25 0 53 -11l60 -23l65 -23.5t65 -11.5q78 0 129.5 71.5t61.5 182.5h-148q0 -20 -14 -47t-43 -27q-31 0 -61 12l-99 43q-31 14 -88 15q-78 0 -126 -65.5t-64 -188.5zM367 731q0 147 7 249.5t28.5 168t61.5 95.5t105 30q66 0 106 -30t61.5 -95.5 t28.5 -167.5t7 -250q0 -147 -7 -250.5t-28.5 -168t-61.5 -94.5t-106 -30t-105.5 30t-61 94.5t-28.5 168t-7 250.5zM72 731q0 -168 15 -307t67.5 -239.5t150.5 -154t264 -53.5t264.5 53.5t150.5 154t67.5 239.5t15.5 307q0 166 -15.5 306.5t-67.5 240.5t-150.5 156.5 t-264.5 56.5t-264 -56.5t-150.5 -156.5t-67.5 -240.5t-15 -306.5z" />
<glyph unicode="&#xd6;" horiz-adv-x="1138" d="M631 1808v-241h229v241h-229zM279 1808v-241h229v241h-229zM367 731q0 147 7 249.5t28.5 168t61.5 95.5t105 30q66 0 106 -30t61.5 -95.5t28.5 -167.5t7 -250q0 -147 -7 -250.5t-28.5 -168t-61.5 -94.5t-106 -30t-105.5 30t-61 94.5t-28.5 168t-7 250.5zM72 731 q0 -168 15 -307t67.5 -239.5t150.5 -154t264 -53.5t264.5 53.5t150.5 154t67.5 239.5t15.5 307q0 166 -15.5 306.5t-67.5 240.5t-150.5 156.5t-264.5 56.5t-264 -56.5t-150.5 -156.5t-67.5 -240.5t-15 -306.5z" />
<glyph unicode="&#xd7;" horiz-adv-x="1228" d="M440 518l-319 -317l176 -176l317 319l318 -319l176 176l-320 317l320 318l-176 176l-318 -320l-317 320l-176 -176z" />
<glyph unicode="&#xd8;" horiz-adv-x="1138" d="M231 82l-61 -137l98 -43l54 118q98 -43 247 -43q166 0 264.5 53.5t150.5 154t67.5 239.5t15.5 307q0 109 -6 206t-22.5 180t-48.5 149.5t-83 113.5l62 144l-99 43l-53 -125q-98 49 -248 49q-166 0 -264 -56.5t-150.5 -156.5t-67.5 -240.5t-15 -306.5q0 -109 6 -206 t22.5 -180t48 -149.5t82.5 -113.5zM426 264l330 770h4q8 -59 10 -134t2 -169q0 -147 -7 -250.5t-28.5 -168t-61.5 -94.5t-106 -30q-104 0 -143 76zM713 1200l-330 -772h-4q-8 57 -10 131t-2 172q0 147 7 249.5t28.5 168t61.5 95.5t105 30q99 0 144 -74z" />
<glyph unicode="&#xd9;" horiz-adv-x="1101" d="M492 1548h192l-111 295h-282zM379 1462h-295v-1020q0 -147 39 -239t104.5 -142.5t149.5 -67t174 -16.5t174 18.5t149.5 72t104.5 144.5t39 230v1020h-295v-1020q0 -55 -7 -101t-26.5 -80t-52.5 -53.5t-86 -19.5q-51 0 -85 19.5t-53.5 53.5t-26.5 80t-7 101v1020z" />
<glyph unicode="&#xda;" horiz-adv-x="1101" d="M528 1843l-110 -295h192l201 295h-283zM379 1462h-295v-1020q0 -147 39 -239t104.5 -142.5t149.5 -67t174 -16.5t174 18.5t149.5 72t104.5 144.5t39 230v1020h-295v-1020q0 -55 -7 -101t-26.5 -80t-52.5 -53.5t-86 -19.5q-51 0 -85 19.5t-53.5 53.5t-26.5 80t-7 101v1020 z" />
<glyph unicode="&#xdb;" horiz-adv-x="1101" d="M403 1843l-159 -295h205l98 174l94 -174h217l-160 295h-295zM379 1462h-295v-1020q0 -147 39 -239t104.5 -142.5t149.5 -67t174 -16.5t174 18.5t149.5 72t104.5 144.5t39 230v1020h-295v-1020q0 -55 -7 -101t-26.5 -80t-52.5 -53.5t-86 -19.5q-51 0 -85 19.5t-53.5 53.5 t-26.5 80t-7 101v1020z" />
<glyph unicode="&#xdc;" horiz-adv-x="1101" d="M612 1808v-241h230v241h-230zM260 1808v-241h229v241h-229zM379 1462h-295v-1020q0 -147 39 -239t104.5 -142.5t149.5 -67t174 -16.5t174 18.5t149.5 72t104.5 144.5t39 230v1020h-295v-1020q0 -55 -7 -101t-26.5 -80t-52.5 -53.5t-86 -19.5q-51 0 -85 19.5t-53.5 53.5 t-26.5 80t-7 101v1020z" />
<glyph unicode="&#xdd;" horiz-adv-x="1064" d="M510 1843l-111 -295h193l201 295h-283zM338 1462h-332l379 -887v-575h295v575l379 887h-320l-204 -565h-5z" />
<glyph unicode="&#xde;" horiz-adv-x="1062" d="M397 539v444h123q111 0 158 -57.5t47 -167.5q0 -113 -54.5 -166t-142.5 -53h-131zM102 1462v-1462h295v322h158q104 0 190 26.5t146.5 79.5t94.5 137t34 197q0 82 -20.5 160.5t-67.5 140t-124 99.5t-190 38h-221v262h-295z" />
<glyph unicode="&#xdf;" horiz-adv-x="1024" d="M84 0h283v1073q0 98 26.5 161.5t110.5 63.5q41 0 66.5 -15t41 -40.5t21.5 -58.5t6 -70q0 -86 -30.5 -140t-104.5 -54h-35v-193h51q94 0 129 -67.5t35 -180.5q0 -70 -6 -125t-25.5 -94t-54.5 -59.5t-90 -20.5q-25 0 -43 8v-188q23 -2 61.5 -4t73.5 -2q117 0 188.5 40 t111.5 106.5t53.5 146.5t13.5 155q0 166 -52.5 269.5t-175.5 124.5v4q53 23 89 51.5t56.5 65t29 81.5t8.5 103q0 174 -103.5 262t-300.5 88q-223 0 -328.5 -97.5t-105.5 -314.5v-1079z" />
<glyph unicode="&#xe0;" horiz-adv-x="985" d="M434 1231h193l-111 295h-283zM608 551v-217q0 -45 -16.5 -78t-42 -53.5t-56 -29.5t-59.5 -9q-57 0 -81.5 45t-24.5 108q0 74 36.5 117t122.5 62q27 6 59.5 19t61.5 36zM92 764h254v31q0 66 33 104.5t98 38.5q72 0 101.5 -36t29.5 -99q0 -55 -24.5 -84t-87.5 -45l-160 -43 q-74 -20 -126 -47t-86 -67t-50.5 -96t-16.5 -134q0 -55 14.5 -111.5t45 -101.5t82 -71t125.5 -26q102 0 166.5 26t113.5 112h4q6 -29 13.5 -58.5t21.5 -56.5h270q-20 49 -27 92t-7 121v580q0 74 -15.5 136t-58.5 107t-121 69.5t-205 24.5q-80 0 -150.5 -17t-122.5 -57 t-83 -104.5t-31 -160.5v-27z" />
<glyph unicode="&#xe1;" horiz-adv-x="985" d="M471 1526l-111 -295h193l201 295h-283zM608 551v-217q0 -45 -16.5 -78t-42 -53.5t-56 -29.5t-59.5 -9q-57 0 -81.5 45t-24.5 108q0 74 36.5 117t122.5 62q27 6 59.5 19t61.5 36zM92 764h254v31q0 66 33 104.5t98 38.5q72 0 101.5 -36t29.5 -99q0 -55 -24.5 -84t-87.5 -45 l-160 -43q-74 -20 -126 -47t-86 -67t-50.5 -96t-16.5 -134q0 -55 14.5 -111.5t45 -101.5t82 -71t125.5 -26q102 0 166.5 26t113.5 112h4q6 -29 13.5 -58.5t21.5 -56.5h270q-20 49 -27 92t-7 121v580q0 74 -15.5 136t-58.5 107t-121 69.5t-205 24.5q-80 0 -150.5 -17 t-122.5 -57t-83 -104.5t-31 -160.5v-27z" />
<glyph unicode="&#xe2;" horiz-adv-x="985" d="M346 1526l-160 -295h205l98 174l95 -174h217l-160 295h-295zM608 551v-217q0 -45 -16.5 -78t-42 -53.5t-56 -29.5t-59.5 -9q-57 0 -81.5 45t-24.5 108q0 74 36.5 117t122.5 62q27 6 59.5 19t61.5 36zM92 764h254v31q0 66 33 104.5t98 38.5q72 0 101.5 -36t29.5 -99 q0 -55 -24.5 -84t-87.5 -45l-160 -43q-74 -20 -126 -47t-86 -67t-50.5 -96t-16.5 -134q0 -55 14.5 -111.5t45 -101.5t82 -71t125.5 -26q102 0 166.5 26t113.5 112h4q6 -29 13.5 -58.5t21.5 -56.5h270q-20 49 -27 92t-7 121v580q0 74 -15.5 136t-58.5 107t-121 69.5 t-205 24.5q-80 0 -150.5 -17t-122.5 -57t-83 -104.5t-31 -160.5v-27z" />
<glyph unicode="&#xe3;" horiz-adv-x="985" d="M172 1249h143q16 74 66 74q25 0 53 -11l61 -24l64.5 -23.5t65.5 -11.5q78 0 129 72t61 182h-147q0 -20 -14.5 -46.5t-43.5 -26.5q-31 0 -61 12l-98 43q-31 14 -89 14q-78 0 -126 -65.5t-64 -188.5zM608 551v-217q0 -45 -16.5 -78t-42 -53.5t-56 -29.5t-59.5 -9 q-57 0 -81.5 45t-24.5 108q0 74 36.5 117t122.5 62q27 6 59.5 19t61.5 36zM92 764h254v31q0 66 33 104.5t98 38.5q72 0 101.5 -36t29.5 -99q0 -55 -24.5 -84t-87.5 -45l-160 -43q-74 -20 -126 -47t-86 -67t-50.5 -96t-16.5 -134q0 -55 14.5 -111.5t45 -101.5t82 -71 t125.5 -26q102 0 166.5 26t113.5 112h4q6 -29 13.5 -58.5t21.5 -56.5h270q-20 49 -27 92t-7 121v580q0 74 -15.5 136t-58.5 107t-121 69.5t-205 24.5q-80 0 -150.5 -17t-122.5 -57t-83 -104.5t-31 -160.5v-27z" />
<glyph unicode="&#xe4;" horiz-adv-x="985" d="M555 1491v-242h229v242h-229zM203 1491v-242h229v242h-229zM608 551v-217q0 -45 -16.5 -78t-42 -53.5t-56 -29.5t-59.5 -9q-57 0 -81.5 45t-24.5 108q0 74 36.5 117t122.5 62q27 6 59.5 19t61.5 36zM92 764h254v31q0 66 33 104.5t98 38.5q72 0 101.5 -36t29.5 -99 q0 -55 -24.5 -84t-87.5 -45l-160 -43q-74 -20 -126 -47t-86 -67t-50.5 -96t-16.5 -134q0 -55 14.5 -111.5t45 -101.5t82 -71t125.5 -26q102 0 166.5 26t113.5 112h4q6 -29 13.5 -58.5t21.5 -56.5h270q-20 49 -27 92t-7 121v580q0 74 -15.5 136t-58.5 107t-121 69.5 t-205 24.5q-80 0 -150.5 -17t-122.5 -57t-83 -104.5t-31 -160.5v-27z" />
<glyph unicode="&#xe5;" horiz-adv-x="985" d="M375 1430q0 49 34.5 83.5t84.5 34.5q49 0 83.5 -34.5t34.5 -83.5t-34.5 -84t-83.5 -35t-84 35t-35 84zM260 1430q0 -49 18.5 -91.5t50 -74t73.5 -50t92 -18.5q49 0 91 18.5t73.5 50t50 73.5t18.5 92q0 49 -18.5 91t-50 73.5t-73.5 50t-91 18.5t-91.5 -18.5t-74 -50 t-50 -73.5t-18.5 -91zM608 551v-217q0 -45 -16.5 -78t-42 -53.5t-56 -29.5t-59.5 -9q-57 0 -81.5 45t-24.5 108q0 74 36.5 117t122.5 62q27 6 59.5 19t61.5 36zM92 764h254v31q0 66 33 104.5t98 38.5q72 0 101.5 -36t29.5 -99q0 -55 -24.5 -84t-87.5 -45l-160 -43 q-74 -20 -126 -47t-86 -67t-50.5 -96t-16.5 -134q0 -55 14.5 -111.5t45 -101.5t82 -71t125.5 -26q102 0 166.5 26t113.5 112h4q6 -29 13.5 -58.5t21.5 -56.5h270q-20 49 -27 92t-7 121v580q0 74 -15.5 136t-58.5 107t-121 69.5t-205 24.5q-80 0 -150.5 -17t-122.5 -57 t-83 -104.5t-31 -160.5v-27z" />
<glyph unicode="&#xe6;" horiz-adv-x="1478" d="M90 764h254v31q0 66 33 104.5t98 38.5q72 0 101.5 -36t29.5 -99q0 -55 -24.5 -84t-87.5 -45l-160 -43q-74 -20 -126 -47t-86 -67t-50.5 -96t-16.5 -134q0 -55 14.5 -111.5t45 -101.5t82 -71t125.5 -26q66 0 116.5 6.5t92.5 25t78 55t69 98.5q14 -37 39.5 -71t64.5 -60.5 t95.5 -40t132.5 -13.5q199 0 294 100.5t103 293.5h-254q-12 -104 -45 -155.5t-102 -51.5q-39 0 -65 21.5t-42 57.5t-23.5 82t-7.5 95v88h555v63q0 127 -16 230.5t-61.5 176.5t-123 112.5t-200.5 39.5q-92 0 -160.5 -33.5t-99.5 -97.5q-45 76 -109.5 103.5t-175.5 27.5 q-80 0 -150.5 -17t-122.5 -57t-83 -104.5t-31 -160.5v-27zM1153 676h-285v43q0 39 7.5 78t23.5 70.5t44 51t69 19.5q86 0 111.5 -66.5t29.5 -195.5zM606 551v-217q0 -45 -16.5 -78t-42 -53.5t-56 -29.5t-59.5 -9q-57 0 -81.5 45t-24.5 108q0 74 36.5 117t122.5 62 q27 6 59.5 19t61.5 36z" />
<glyph unicode="&#xe7;" horiz-adv-x="948" d="M446 -23l-96 -159l45 -41q16 6 31.5 9t38.5 3q41 0 65.5 -19.5t24.5 -50.5q0 -29 -29.5 -49t-72.5 -20q-39 0 -79 9t-63 22l-39 -95q25 -14 81.5 -26.5t123.5 -12.5q125 0 191.5 50.5t66.5 142.5q0 37 -15 64.5t-40 47t-55.5 29.5t-61.5 10q-18 0 -33.5 -3t-33.5 -7 l63 101q180 18 258 129.5t78 310.5h-270q0 -135 -33 -196.5t-105 -61.5q-47 0 -76.5 21.5t-46 68.5t-22.5 119.5t-6 175.5q0 96 6 166.5t22.5 117t49 70t84.5 23.5q41 0 65.5 -19.5t37.5 -51.5t18.5 -71t5.5 -79h270q0 197 -99.5 311t-295.5 114q-98 0 -180 -26.5 t-141.5 -93t-92.5 -178t-33 -281.5q0 -162 24.5 -270.5t74 -176t123 -95.5t171.5 -32z" />
<glyph unicode="&#xe8;" horiz-adv-x="948" d="M416 1231h192l-110 295h-283zM625 676h-289v43q0 39 7 78t23.5 70.5t44 51t70.5 19.5t71 -17.5t43 -51t21.5 -82t8.5 -111.5zM336 508h559v63q0 127 -16.5 230.5t-61.5 176.5t-124 112.5t-201 39.5q-143 0 -229.5 -47t-132.5 -126.5t-61.5 -182t-15.5 -213.5 q0 -104 9.5 -208.5t50.5 -188.5t127 -135.5t239 -51.5q203 0 297 100.5t103 293.5h-254q-12 -104 -45 -155.5t-105 -51.5q-39 0 -65.5 21.5t-43 57.5t-23.5 82t-7 95v88z" />
<glyph unicode="&#xe9;" horiz-adv-x="948" d="M453 1526l-111 -295h193l200 295h-282zM625 676h-289v43q0 39 7 78t23.5 70.5t44 51t70.5 19.5t71 -17.5t43 -51t21.5 -82t8.5 -111.5zM336 508h559v63q0 127 -16.5 230.5t-61.5 176.5t-124 112.5t-201 39.5q-143 0 -229.5 -47t-132.5 -126.5t-61.5 -182t-15.5 -213.5 q0 -104 9.5 -208.5t50.5 -188.5t127 -135.5t239 -51.5q203 0 297 100.5t103 293.5h-254q-12 -104 -45 -155.5t-105 -51.5q-39 0 -65.5 21.5t-43 57.5t-23.5 82t-7 95v88z" />
<glyph unicode="&#xea;" horiz-adv-x="948" d="M328 1526l-160 -295h205l98 174l94 -174h217l-159 295h-295zM625 676h-289v43q0 39 7 78t23.5 70.5t44 51t70.5 19.5t71 -17.5t43 -51t21.5 -82t8.5 -111.5zM336 508h559v63q0 127 -16.5 230.5t-61.5 176.5t-124 112.5t-201 39.5q-143 0 -229.5 -47t-132.5 -126.5 t-61.5 -182t-15.5 -213.5q0 -104 9.5 -208.5t50.5 -188.5t127 -135.5t239 -51.5q203 0 297 100.5t103 293.5h-254q-12 -104 -45 -155.5t-105 -51.5q-39 0 -65.5 21.5t-43 57.5t-23.5 82t-7 95v88z" />
<glyph unicode="&#xeb;" horiz-adv-x="948" d="M537 1491v-242h229v242h-229zM184 1491v-242h230v242h-230zM625 676h-289v43q0 39 7 78t23.5 70.5t44 51t70.5 19.5t71 -17.5t43 -51t21.5 -82t8.5 -111.5zM336 508h559v63q0 127 -16.5 230.5t-61.5 176.5t-124 112.5t-201 39.5q-143 0 -229.5 -47t-132.5 -126.5 t-61.5 -182t-15.5 -213.5q0 -104 9.5 -208.5t50.5 -188.5t127 -135.5t239 -51.5q203 0 297 100.5t103 293.5h-254q-12 -104 -45 -155.5t-105 -51.5q-39 0 -65.5 21.5t-43 57.5t-23.5 82t-7 95v88z" />
<glyph unicode="&#xec;" horiz-adv-x="491" d="M186 1231h193l-111 295h-276zM104 1102v-1102h283v1102h-283z" />
<glyph unicode="&#xed;" horiz-adv-x="491" d="M223 1526l-110 -295h192l201 295h-283zM104 1102v-1102h283v1102h-283z" />
<glyph unicode="&#xee;" horiz-adv-x="491" d="M98 1526l-153 -295h198l99 174l94 -174h217l-160 295h-295zM104 1102v-1102h283v1102h-283z" />
<glyph unicode="&#xef;" horiz-adv-x="491" d="M307 1491v-242h230v242h-230zM-39 1491v-242h223v242h-223zM104 1102v-1102h283v1102h-283z" />
<glyph unicode="&#xf0;" d="M135 1280l80 -86l158 92q53 -61 102 -123.5t86 -122.5l-4 -4q-35 29 -71.5 41.5t-71.5 12.5q-94 0 -162 -38t-111 -109t-63.5 -170t-20.5 -222q0 -143 20.5 -253t70 -182.5t133.5 -106.5t211 -32q121 0 203.5 35t134 108t74 181.5t22.5 249.5t-21.5 260t-64.5 222.5 t-105.5 196.5t-144.5 183l158 92l-89 86l-153 -92l-67 65l-70 64l-213 -125l66 -63l69 -68zM340 537q0 78 4 143t19.5 113.5t46 76t82.5 27.5q86 0 118.5 -85t32.5 -275q0 -199 -32.5 -286t-118.5 -87q-51 0 -82 27.5t-46.5 76.5t-19.5 118t-4 151z" />
<glyph unicode="&#xf1;" horiz-adv-x="1024" d="M190 1249h144q16 74 65 74q25 0 54 -11l60 -24l64.5 -23.5t65.5 -11.5q78 0 129 72t62 182h-148q0 -20 -14.5 -46.5t-42.5 -26.5q-31 0 -62 12l-98 43q-31 14 -88 14q-78 0 -126.5 -65.5t-64.5 -188.5zM94 1102v-1102h283v731q0 182 149 182q63 0 92 -33.5t29 -119.5 v-760h283v817q0 166 -73 239.5t-208 73.5q-92 0 -163.5 -37.5t-116.5 -119.5h-4v129h-271z" />
<glyph unicode="&#xf2;" d="M432 1231h193l-111 295h-283zM340 551q0 84 4 155.5t19.5 123t46 80t82.5 28.5q86 0 118.5 -90t32.5 -297t-32.5 -297t-118.5 -90q-51 0 -82 28.5t-46.5 80t-19.5 123t-4 155.5zM57 551q0 -143 20.5 -253t70 -182.5t133.5 -106.5t211 -32q121 0 203.5 35t134 108 t74 181.5t22.5 249.5q0 145 -20.5 253.5t-70 182.5t-133.5 110t-210 33q-121 0 -204 -37.5t-134.5 -110.5t-74 -181.5t-22.5 -249.5z" />
<glyph unicode="&#xf3;" d="M469 1526l-111 -295h193l201 295h-283zM340 551q0 84 4 155.5t19.5 123t46 80t82.5 28.5q86 0 118.5 -90t32.5 -297t-32.5 -297t-118.5 -90q-51 0 -82 28.5t-46.5 80t-19.5 123t-4 155.5zM57 551q0 -143 20.5 -253t70 -182.5t133.5 -106.5t211 -32q121 0 203.5 35 t134 108t74 181.5t22.5 249.5q0 145 -20.5 253.5t-70 182.5t-133.5 110t-210 33q-121 0 -204 -37.5t-134.5 -110.5t-74 -181.5t-22.5 -249.5z" />
<glyph unicode="&#xf4;" d="M344 1526l-160 -295h205l98 174l95 -174h217l-160 295h-295zM340 551q0 84 4 155.5t19.5 123t46 80t82.5 28.5q86 0 118.5 -90t32.5 -297t-32.5 -297t-118.5 -90q-51 0 -82 28.5t-46.5 80t-19.5 123t-4 155.5zM57 551q0 -143 20.5 -253t70 -182.5t133.5 -106.5t211 -32 q121 0 203.5 35t134 108t74 181.5t22.5 249.5q0 145 -20.5 253.5t-70 182.5t-133.5 110t-210 33q-121 0 -204 -37.5t-134.5 -110.5t-74 -181.5t-22.5 -249.5z" />
<glyph unicode="&#xf5;" d="M170 1249h143q16 74 66 74q25 0 53 -11l61 -24l64.5 -23.5t65.5 -11.5q78 0 129 72t61 182h-147q0 -20 -14.5 -46.5t-43.5 -26.5q-31 0 -61 12l-98 43q-31 14 -89 14q-78 0 -126 -65.5t-64 -188.5zM340 551q0 84 4 155.5t19.5 123t46 80t82.5 28.5q86 0 118.5 -90 t32.5 -297t-32.5 -297t-118.5 -90q-51 0 -82 28.5t-46.5 80t-19.5 123t-4 155.5zM57 551q0 -143 20.5 -253t70 -182.5t133.5 -106.5t211 -32q121 0 203.5 35t134 108t74 181.5t22.5 249.5q0 145 -20.5 253.5t-70 182.5t-133.5 110t-210 33q-121 0 -204 -37.5t-134.5 -110.5 t-74 -181.5t-22.5 -249.5z" />
<glyph unicode="&#xf6;" d="M553 1491v-242h229v242h-229zM201 1491v-242h229v242h-229zM340 551q0 84 4 155.5t19.5 123t46 80t82.5 28.5q86 0 118.5 -90t32.5 -297t-32.5 -297t-118.5 -90q-51 0 -82 28.5t-46.5 80t-19.5 123t-4 155.5zM57 551q0 -143 20.5 -253t70 -182.5t133.5 -106.5t211 -32 q121 0 203.5 35t134 108t74 181.5t22.5 249.5q0 145 -20.5 253.5t-70 182.5t-133.5 110t-210 33q-121 0 -204 -37.5t-134.5 -110.5t-74 -181.5t-22.5 -249.5z" />
<glyph unicode="&#xf7;" horiz-adv-x="1228" d="M416 84q0 -84 56 -138.5t142 -54.5t142.5 54.5t56.5 138.5q0 86 -56.5 142.5t-142.5 56.5t-142 -56.5t-56 -142.5zM416 952q0 -86 56 -142t142 -56t142.5 56t56.5 142t-56.5 142.5t-142.5 56.5t-142 -56.5t-56 -142.5zM96 645v-254h1037v254h-1037z" />
<glyph unicode="&#xf8;" d="M184 72l-75 -138l90 -47l69 127q80 -41 224 -37q121 0 203.5 35t134 108t74 181.5t22.5 249.5q0 172 -28 291t-99 188l75 144l-90 47l-69 -134q-86 45 -223 43q-121 0 -204 -37.5t-134.5 -110.5t-74 -181.5t-22.5 -249.5q0 -172 27.5 -290.5t99.5 -188.5zM381 231 l254 488h4q2 -35 3 -77t1 -91q0 -207 -32.5 -297t-118.5 -90q-76 -1 -111 67zM600 868l-252 -487h-4q-2 18 -3 37.5t-1 42.5v90q0 84 4 155.5t19.5 123t46 80t82.5 28.5q75 0 108 -70z" />
<glyph unicode="&#xf9;" horiz-adv-x="1024" d="M453 1231h192l-110 295h-283zM659 129v-129h271v1102h-283v-731q0 -182 -149 -183q-63 0 -92 34t-29 120v760h-283v-817q0 -166 73 -237t208 -71q92 0 163.5 35t116.5 117h4z" />
<glyph unicode="&#xfa;" horiz-adv-x="1024" d="M489 1526l-110 -295h192l201 295h-283zM659 129v-129h271v1102h-283v-731q0 -182 -149 -183q-63 0 -92 34t-29 120v760h-283v-817q0 -166 73 -237t208 -71q92 0 163.5 35t116.5 117h4z" />
<glyph unicode="&#xfb;" horiz-adv-x="1024" d="M365 1526l-160 -295h205l98 174l94 -174h217l-160 295h-294zM659 129v-129h271v1102h-283v-731q0 -182 -149 -183q-63 0 -92 34t-29 120v760h-283v-817q0 -166 73 -237t208 -71q92 0 163.5 35t116.5 117h4z" />
<glyph unicode="&#xfc;" horiz-adv-x="1024" d="M573 1491v-242h230v242h-230zM221 1491v-242h230v242h-230zM659 129v-129h271v1102h-283v-731q0 -182 -149 -183q-63 0 -92 34t-29 120v760h-283v-817q0 -166 73 -237t208 -71q92 0 163.5 35t116.5 117h4z" />
<glyph unicode="&#xfd;" horiz-adv-x="909" d="M432 1526l-110 -295h192l201 295h-283zM94 -143v-211h115q98 0 162.5 14t110.5 60.5t80 131.5t71 222l266 1028h-283l-143 -762h-4l-164 762h-295l309 -1102q-6 -68 -39.5 -109t-111.5 -41q-37 1 -74 7z" />
<glyph unicode="&#xfe;" horiz-adv-x="1024" d="M94 1462v-1816h283v456h4q45 -66 101.5 -95.5t135.5 -29.5q174 0 256 133.5t82 440.5t-81.5 443t-256.5 136q-86 0 -143 -33.5t-94 -111.5h-4v477h-283zM377 551q0 180 27.5 271t121.5 91q92 0 120 -91t28 -271t-28 -271.5t-120 -91.5q-94 0 -121.5 91.5t-27.5 271.5z " />
<glyph unicode="&#xff;" horiz-adv-x="909" d="M516 1491v-242h229v242h-229zM164 1491v-242h229v242h-229zM94 -143v-211h115q98 0 162.5 14t110.5 60.5t80 131.5t71 222l266 1028h-283l-143 -762h-4l-164 762h-295l309 -1102q-6 -68 -39.5 -109t-111.5 -41q-37 1 -74 7z" />
<glyph unicode="&#x152;" horiz-adv-x="1593" d="M367 731q0 145 6 248.5t27.5 169t61.5 95.5t107 30q66 0 103 -26.5t55 -90t22.5 -168t4.5 -258.5t-4.5 -258t-22.5 -167.5t-55 -90.5t-103 -27q-68 0 -107.5 30t-61 95.5t-27.5 169t-6 248.5zM1532 1221v241h-748v-78h-4q-37 61 -112.5 84t-153.5 23q-143 0 -230 -62.5 t-134.5 -167t-62.5 -238.5t-15 -275q0 -147 11 -286.5t56 -248.5t137.5 -172.5t251.5 -63.5q37 0 76 7.5t75 18.5t62.5 32.5t38.5 48.5h4v-84h764v242h-512v393h465v242h-465v344h496z" />
<glyph unicode="&#x153;" horiz-adv-x="1517" d="M1188 676h-289v43q0 39 7 78t23.5 70.5t44 51t70.5 19.5t71 -17.5t43.5 -51t21.5 -82t8 -111.5zM498 164q-53 0 -85 28.5t-47.5 80t-19.5 123t-4 155.5t4 155.5t19.5 123t46 80t82.5 28.5q86 0 118.5 -90t32.5 -297t-31.5 -297t-115.5 -90zM899 508h559v63 q0 127 -16.5 230.5t-61.5 176.5t-123.5 112.5t-201.5 39.5q-82 0 -155 -38.5t-114 -114.5q-41 78 -108.5 115.5t-183.5 37.5q-121 0 -204 -37.5t-134.5 -110.5t-74 -181.5t-22.5 -249.5q0 -143 19.5 -252t67 -181.5t126 -106.5t197.5 -34q106 0 190 39t113 117 q23 -61 90.5 -108.5t196.5 -47.5q190 0 282.5 100.5t100.5 293.5h-254q-12 -104 -45 -155.5t-105 -51.5q-39 0 -65.5 21.5t-43 57.5t-23.5 82t-7 95v88z" />
<glyph unicode="&#x178;" horiz-adv-x="1064" d="M594 1808v-241h229v241h-229zM242 1808v-241h229v241h-229zM338 1462h-332l379 -887v-575h295v575l379 887h-320l-204 -565h-5z" />
<glyph unicode="&#x2c6;" horiz-adv-x="454" d="M80 1526l-154 -295h199l98 174l94 -174h218l-160 295h-295z" />
<glyph unicode="&#x2dc;" horiz-adv-x="454" d="M-88 1249h137q16 74 66 74q25 0 53 -11l60 -24l65 -23.5t65 -11.5q78 0 129.5 72t61.5 182h-148q0 -20 -14 -46.5t-43 -26.5q-31 0 -61 12l-99 43q-31 14 -88 14q-78 0 -123 -65.5t-61 -188.5z" />
<glyph unicode="&#x2000;" />
<glyph unicode="&#x2001;" horiz-adv-x="1968" />
<glyph unicode="&#x2002;" />
<glyph unicode="&#x2003;" horiz-adv-x="1968" />
<glyph unicode="&#x2004;" horiz-adv-x="655" />
<glyph unicode="&#x2005;" horiz-adv-x="491" />
<glyph unicode="&#x2006;" horiz-adv-x="327" />
<glyph unicode="&#x2007;" horiz-adv-x="327" />
<glyph unicode="&#x2008;" horiz-adv-x="245" />
<glyph unicode="&#x2009;" horiz-adv-x="393" />
<glyph unicode="&#x200a;" horiz-adv-x="108" />
<glyph unicode="&#x2010;" horiz-adv-x="757" d="M668 713h-578v-242h578v242z" />
<glyph unicode="&#x2011;" horiz-adv-x="757" d="M668 713h-578v-242h578v242z" />
<glyph unicode="&#x2012;" horiz-adv-x="757" d="M668 713h-578v-242h578v242z" />
<glyph unicode="&#x2013;" horiz-adv-x="1024" d="M0 707v-230h1024v230h-1024z" />
<glyph unicode="&#x2014;" horiz-adv-x="2048" d="M0 707v-230h2048v230h-2048z" />
<glyph unicode="&#x2018;" horiz-adv-x="532" d="M131 1071v-266h270v319h-106v33q0 57 26.5 104.5t79.5 57.5v143q-82 -8 -134 -39.5t-82.5 -82t-42 -119t-11.5 -150.5z" />
<glyph unicode="&#x2019;" horiz-adv-x="532" d="M401 1196v266h-270v-319h107v-33q0 -57 -27 -104.5t-80 -57.5v-143q82 8 134 40t83 82t42 118.5t11 150.5z" />
<glyph unicode="&#x201a;" horiz-adv-x="532" d="M401 319h-270v-319h107v-27q0 -57 -27 -104t-80 -57v-144q82 8 134 40t83 82t42 118.5t11 144.5v266z" />
<glyph unicode="&#x201c;" horiz-adv-x="948" d="M139 1071v-266h271v319h-107v33q0 57 26.5 104.5t80.5 57.5v143q-82 -8 -134.5 -39.5t-83 -82t-42 -119t-11.5 -150.5zM539 1071v-266h270v319h-107v33q0 57 27 104.5t80 57.5v143q-82 -8 -134 -39.5t-83 -82t-42 -119t-11 -150.5z" />
<glyph unicode="&#x201d;" horiz-adv-x="948" d="M539 1462v-319h106v-33q0 -57 -26.5 -104.5t-79.5 -57.5v-143q82 8 134 40t82.5 82t42 118.5t11.5 150.5v266h-270zM139 1462v-319h107v-33q0 -57 -26.5 -104.5t-80.5 -57.5v-143q82 8 134.5 40t83 82t42 118.5t11.5 150.5v266h-271z" />
<glyph unicode="&#x201e;" horiz-adv-x="948" d="M139 319v-319h107v-27q0 -57 -26.5 -104t-80.5 -57v-144q82 8 134.5 40t83 82t42 118.5t11.5 144.5v266h-271zM539 319v-319h106v-27q0 -57 -26.5 -104t-79.5 -57v-144q82 8 134 40t82.5 82t42 118.5t11.5 144.5v266h-270z" />
<glyph unicode="&#x2022;" horiz-adv-x="1024" d="M147 731q0 -76 29 -142.5t78 -115.5t115.5 -77.5t142.5 -28.5t142.5 28.5t115.5 77.5t78 115.5t29 142.5t-29 142.5t-78 115.5t-115.5 78t-142.5 29t-142.5 -29t-115.5 -78t-78 -115.5t-29 -142.5z" />
<glyph unicode="&#x2026;" horiz-adv-x="2048" d="M1841 319h-270v-319h270v319zM1159 319h-270v-319h270v319zM477 319h-270v-319h270v319z" />
<glyph unicode="&#x202f;" horiz-adv-x="393" />
<glyph unicode="&#x2039;" horiz-adv-x="493" d="M94 758v-332l305 -246v271l-161 141l161 141v271z" />
<glyph unicode="&#x203a;" horiz-adv-x="493" d="M94 451v-271l305 246v332l-305 246v-271l162 -141z" />
<glyph unicode="&#x205f;" horiz-adv-x="491" />
<glyph unicode="&#x20ac;" d="M981 1354q-133 102 -315 102q-424 0 -467 -504h-84l-62 -159h140l-3 -105h-77l-60 -160h142q14 -551 430 -551q152 0 309 86v256q-158 -137 -264 -137q-117 0 -156 125q-20 61 -27 221h207l60 160h-271v105h291l60 159h-345q8 139 35 201q43 100 160 100q104 0 203 -104z " />
<glyph unicode="&#x2122;" horiz-adv-x="2027" d="M293 1270v-656h229v656h230v192h-689v-192h230zM1724 1196v-582h218v848h-347l-170 -512h-4l-170 512h-346v-848h217v582h4l195 -582h205l194 582h4z" />
<glyph unicode="&#xe000;" horiz-adv-x="1100" d="M0 1100h1100v-1100h-1100v1100z" />
<glyph unicode="&#xfb01;" horiz-adv-x="1099" d="M156 909v-909h282v909h164v193h-164v96q0 47 24.5 67.5t84.5 20.5h26q18 0 29 -2v201q-76 6 -151 6q-68 0 -123.5 -13.5t-93 -44t-58 -82t-20.5 -124.5v-125h-144v-193h144zM713 1479v-242h282v242h-282zM713 1102v-1102h282v1102h-282z" />
<glyph unicode="&#xfb02;" horiz-adv-x="1099" d="M156 909v-909h282v909h164v193h-164v96q0 47 24.5 67.5t84.5 20.5h26q18 0 29 -2v201q-76 6 -151 6q-68 0 -123.5 -13.5t-93 -44t-58 -82t-20.5 -124.5v-125h-144v-193h144zM713 1479v-1479h282v1479h-282z" />
<glyph unicode="&#xfb03;" horiz-adv-x="1703" d="M1316 1479v-242h283v242h-283zM1316 1102v-1102h283v1102h-283zM762 909v-909h282v909h164v193h-164v96q0 47 24.5 67.5t84.5 20.5h26q18 0 29 -2v201q-76 6 -151 6q-68 0 -123.5 -13.5t-93 -44t-58 -82t-20.5 -124.5v-125h-144v-193h144zM156 909v-909h282v909h164v193 h-164v96q0 47 24.5 67.5t84.5 20.5h26q18 0 29 -2v201q-76 6 -151 6q-68 0 -123.5 -13.5t-93 -44t-58 -82t-20.5 -124.5v-125h-144v-193h144z" />
<glyph unicode="&#xfb04;" horiz-adv-x="1703" d="M1316 1462v-1462h283v1462h-283zM762 909v-909h282v909h164v193h-164v96q0 47 24.5 67.5t84.5 20.5h26q18 0 29 -2v201q-76 6 -151 6q-68 0 -123.5 -13.5t-93 -44t-58 -82t-20.5 -124.5v-125h-144v-193h144zM156 909v-909h282v909h164v193h-164v96q0 47 24.5 67.5 t84.5 20.5h26q18 0 29 -2v201q-76 6 -151 6q-68 0 -123.5 -13.5t-93 -44t-58 -82t-20.5 -124.5v-125h-144v-193h144z" />
</font>
</defs>
</svg>
