<?xml version="1.0" standalone="no"?>
<!DOCTYPE svg PUBLIC "-//W3C//DTD SVG 1.1//EN" "http://www.w3.org/Graphics/SVG/1.1/DTD/svg11.dtd" >
<svg xmlns="http://www.w3.org/2000/svg">
<metadata>
This is a custom SVG webfont generated by Font Squirrel.
Copyright   : Copyright c 1981 1982 1983 1989 and 1993 Linotype Library GmbH or its affiliated LinotypeHell companies All rights reservedThe digitally encoded machine readable software for producing the Typefaces licensed to you is now the property of Heidelberger Druckmaschinen AG and its licensors and may not be reproduced used displayed modified disclosed or transferred without the express written approval of Heidelberger Druckmaschinen AGCopyright c 1988 1990 1993 Adobe Systems Incorporated All Rights Reserved
Foundry URL : httpwwwLinotypeLibrarycom
</metadata>
<defs>
<font id="webfont0bHeZV0b" horiz-adv-x="1064" >
<font-face units-per-em="2048" ascent="1638" descent="-410" />
<missing-glyph horiz-adv-x="532" />
<glyph unicode=" "  horiz-adv-x="532" />
<glyph unicode="&#x09;" horiz-adv-x="532" />
<glyph unicode="&#xa0;" horiz-adv-x="532" />
<glyph unicode="!" horiz-adv-x="643" d="M143 973l39 -549h275l43 549v489h-357v-489zM152 324v-324h344v324h-344z" />
<glyph unicode="&#x22;" horiz-adv-x="985" d="M113 1462v-766h286v766h-286zM586 1462v-766h286v766h-286z" />
<glyph unicode="#" d="M580 354l-45 -354h225l45 354h180v238h-151l30 237h180v238h-151l45 354h-225l-45 -354h-183l45 354h-225l-45 -354h-180v-238h149l-28 -237h-181v-238h150l-45 -354h225l45 354h185zM426 592l29 237h184l-31 -237h-182z" />
<glyph unicode="$" d="M422 -23v-184h188v184q211 23 319.5 123.5t108.5 309.5q0 133 -46 212.5t-115.5 129t-149.5 77t-149.5 57t-115.5 70.5t-46 113q0 47 28.5 87t90.5 40q55 0 81.5 -46t26.5 -108v-30h356q0 211 -92 314.5t-297 123.5v119h-188v-119q-375 -61 -375 -444q0 -125 44 -203 t110.5 -126t144.5 -78t144.5 -59.5t110.5 -70.5t44 -111q0 -55 -31.5 -94t-91.5 -39q-57 0 -92 35t-35 127v39h-368v-55q0 -195 100 -284.5t295 -109.5z" />
<glyph unicode="%" horiz-adv-x="1593" d="M35 1057q0 -106 16.5 -181t54 -122t99 -68.5t151.5 -21.5t151.5 21.5t99.5 68.5t54.5 121.5t16.5 181.5q0 106 -16.5 181t-54.5 122t-99.5 68.5t-151.5 21.5t-151.5 -21.5t-99 -68.5t-54 -122t-16.5 -181zM915 365q0 -106 16.5 -181t54.5 -122.5t99.5 -66t151.5 -18.5 t151.5 18.5t99.5 66t54.5 122t16.5 181.5q0 106 -16.5 181t-54.5 122t-99.5 68.5t-151.5 21.5t-151.5 -21.5t-99.5 -68.5t-54.5 -122t-16.5 -181zM285 1057q0 72 3 116t10 69.5t21.5 34.5t36.5 9q23 0 37.5 -9t21.5 -34.5t10 -70t3 -115.5q0 -70 -3 -115t-10 -70.5 t-21.5 -35t-37.5 -9.5t-37 9.5t-21 35t-10 70.5t-3 115zM1008 1450l-650 -1473h226l649 1473h-225zM1165 365q0 72 3 115.5t10.5 69t21.5 35t37 9.5t37 -9.5t21.5 -35t10.5 -69.5t3 -115q0 -70 -3 -115t-10.5 -70.5t-21.5 -35t-37 -9.5t-37 9.5t-21.5 35t-10.5 70.5t-3 115z " />
<glyph unicode="&#x26;" horiz-adv-x="1251" d="M453 571l194 -264q-23 -18 -58.5 -33.5t-68.5 -15.5q-31 0 -58.5 12.5t-50 35t-36 53t-13.5 65.5q0 33 23 72.5t68 74.5zM449 1163q0 45 30.5 74t77.5 29t78 -29t31 -74q0 -33 -27 -76t-94 -104q-51 66 -73.5 106.5t-22.5 73.5zM1278 0l-197 274q88 86 127 201t45 238 h-319q-4 -47 -15.5 -91t-33.5 -81l-166 223q123 78 188.5 173t65.5 202q0 76 -30 138t-84 107.5t-131 70t-173 24.5q-94 0 -170 -24.5t-130 -70t-84 -108t-30 -137.5q0 -86 42 -171t98 -161q-141 -76 -208 -185.5t-67 -238.5q0 -104 36 -181t97.5 -127t142 -74t173.5 -24 q57 0 104 8.5t89 21.5t81 33.5t80 45.5l63 -86h406z" />
<glyph unicode="'" horiz-adv-x="532" d="M123 1462v-766h287v766h-287z" />
<glyph unicode="(" horiz-adv-x="643" d="M352 -371h299q-131 217 -188 442.5t-57 471.5t57 474t188 445h-299q-135 -211 -213 -438t-78 -481t78 -478.5t213 -435.5z" />
<glyph unicode=")" horiz-adv-x="643" d="M291 1462h-293q125 -217 182.5 -445.5t57.5 -473.5q0 -246 -57.5 -471.5t-182.5 -442.5h293q135 211 213 435.5t78 478.5t-78 481t-213 438z" />
<glyph unicode="*" horiz-adv-x="831" d="M416 881l153 -222l164 119l-155 219l262 84l-64 191l-260 -84v274h-201v-274l-260 84l-57 -191l256 -84l-156 -219l164 -119z" />
<glyph unicode="+" horiz-adv-x="1228" d="M471 1036v-374h-375v-287h375v-375h287v375h375v287h-375v374h-287z" />
<glyph unicode="," horiz-adv-x="532" d="M94 406v-394h131v-18q0 -82 -28.5 -123t-102.5 -49v-176q184 4 264 100t80 291v369h-344z" />
<glyph unicode="-" horiz-adv-x="753" d="M57 748v-312h639v312h-639z" />
<glyph unicode="." horiz-adv-x="532" d="M94 406v-406h344v406h-344z" />
<glyph unicode="/" horiz-adv-x="681" d="M420 1491l-459 -1514h301l465 1514h-307z" />
<glyph unicode="0" d="M420 471v479q0 154 26.5 208t85.5 54t86 -54t27 -208v-479q0 -154 -26.5 -208t-86.5 -54q-59 0 -85.5 54t-26.5 208zM39 711q0 -221 29.5 -363.5t90 -225.5t154 -114t219.5 -31q127 0 220.5 31t154 114t90 225t29.5 364q0 219 -29.5 362.5t-90 227t-154 116.5t-220.5 33 t-220 -33t-153.5 -116.5t-90 -227t-29.5 -362.5z" />
<glyph unicode="1" d="M375 0h381v1450h-275q-18 -63 -46.5 -107.5t-74 -70t-109 -36.5t-151.5 -11v-238h275v-987z" />
<glyph unicode="2" d="M51 958h357v62q0 61 9 99t24.5 58.5t34 27.5t38.5 7q45 0 71.5 -34.5t26.5 -126.5q0 -82 -23.5 -132.5t-78.5 -105.5l-254 -258q-125 -129 -171 -265t-46 -290h954v287h-499q10 33 40 63l54 56l225 219q82 82 131 182t49 248q0 82 -19.5 153.5t-71.5 126t-142 85 t-234 30.5q-150 0 -241.5 -35t-143 -99.5t-70 -155.5t-20.5 -202z" />
<glyph unicode="3" d="M55 1012h344q0 115 23.5 157.5t79.5 42.5q49 0 72.5 -31.5t23.5 -123.5q0 -63 -10 -103.5t-30.5 -63t-51.5 -30.5t-74 -8h-55v-238h96q72 0 105.5 -36.5t33.5 -143.5q0 -68 -4 -111.5t-15 -69.5t-31.5 -35t-53.5 -9q-61 0 -86 53q-12 29 -19.5 70t-7.5 102h-356 q0 -131 28.5 -220t88 -142.5t150.5 -74t214 -20.5q236 0 354.5 108t118.5 353q0 119 -51 206t-178 112v4q57 12 96 43t62.5 70.5t34 86t10.5 89.5q0 96 -21.5 170.5t-74 126t-140.5 78t-221 26.5q-223 0 -336 -107q-113 -104 -119 -331z" />
<glyph unicode="4" d="M33 557v-287h516v-270h356v270h127v275h-127v876h-413zM561 545h-242l238 483h4v-483z" />
<glyph unicode="5" d="M84 1421l-33 -805h344q0 66 29 94.5t76 28.5q53 0 80.5 -48t27.5 -171q0 -104 -6 -165.5t-20.5 -94.5t-34 -42t-47.5 -9q-49 0 -77 37t-28 139v49h-356v-47q0 -197 111.5 -303.5t363.5 -106.5q135 0 226 33t146.5 102.5t79 175t23.5 249.5q0 236 -92 348t-270 112 q-82 0 -148.5 -28.5t-120.5 -77.5l17 244h551v286h-842z" />
<glyph unicode="6" d="M432 446q0 139 26.5 188.5t80.5 49.5q59 0 82.5 -49t23.5 -189q0 -139 -26.5 -188t-79.5 -49q-59 0 -83 49t-24 188zM641 1077h356q0 72 -19.5 139.5t-70.5 120t-140 83t-228 30.5q-162 0 -260.5 -47t-151.5 -136t-70.5 -219t-17.5 -298v-162q0 -178 31.5 -296t94 -188.5 t157 -98.5t219.5 -28q117 0 207 28t152.5 92.5t94 169t31.5 251.5q0 127 -24.5 212t-70.5 135t-109.5 71.5t-141.5 21.5q-86 0 -152.5 -30.5t-91.5 -83.5h-4v231q0 70 32 103.5t73 33.5q53 0 75 -28q27 -33 29 -107z" />
<glyph unicode="7" d="M51 1421v-311h584q-90 -123 -159.5 -259t-120 -278.5t-83 -288t-47.5 -284.5h393q10 137 42 287.5t82.5 300t115 290t139.5 259.5v284h-946z" />
<glyph unicode="8" d="M420 424q0 127 29.5 170t82.5 43t83 -43t30 -170q0 -129 -29.5 -172t-83.5 -43q-53 0 -82.5 43t-29.5 172zM434 1038q0 53 8.5 87t21.5 53.5t30.5 26.5t37.5 7t38 -7t31 -26.5t21.5 -53t8.5 -87.5q0 -106 -29 -141t-70 -35q-20 0 -37.5 7.5t-30.5 26.5t-21.5 54t-8.5 88z M532 -23q117 0 209.5 18.5t154.5 71t96 140.5t34 223q0 61 -13.5 116.5t-42 99.5t-74.5 75t-112 43v4q66 14 107 44t65.5 70t33.5 86t9 93q0 86 -25.5 157.5t-81.5 123t-144.5 80t-215.5 28.5q-125 0 -214 -28.5t-145 -80t-81.5 -123t-25.5 -157.5q0 -47 9 -93t33.5 -86 t66.5 -70t106 -44v-4q-121 -16 -181.5 -108.5t-60.5 -225.5q0 -135 33.5 -223t97 -140.5t154.5 -71t208 -18.5z" />
<glyph unicode="9" d="M420 975q0 139 26.5 188t79.5 49q59 0 83 -49t24 -188t-26.5 -188.5t-80.5 -49.5q-59 0 -82.5 49.5t-23.5 188.5zM424 344h-356q0 -74 19 -140.5t69.5 -117.5t139.5 -80t230 -29q162 0 260.5 44.5t151.5 133.5t70.5 219t17.5 298v159q0 178 -31.5 297t-94 191t-157 101.5 t-219.5 29.5q-117 0 -207 -29.5t-152.5 -96.5t-94 -170t-31.5 -251q0 -127 24.5 -212t70.5 -135t109.5 -71.5t141.5 -21.5q86 0 152.5 30.5t91.5 81.5h4v-231q0 -68 -32 -101.5t-73 -33.5q-53 0 -75 29q-27 32 -29 106z" />
<glyph unicode=":" horiz-adv-x="532" d="M94 406v-406h344v406h-344zM94 1108v-406h344v406h-344z" />
<glyph unicode=";" horiz-adv-x="532" d="M94 1108v-406h344v406h-344zM94 406v-394h131v-18q0 -82 -28.5 -123t-102.5 -49v-176q184 4 264 100t80 291v369h-344z" />
<glyph unicode="&#x3c;" horiz-adv-x="1228" d="M96 647v-258l1037 -420v269l-693 280l693 281v274z" />
<glyph unicode="=" horiz-adv-x="1228" d="M96 432v-287h1037v287h-1037zM96 891v-287h1037v287h-1037z" />
<glyph unicode="&#x3e;" horiz-adv-x="1228" d="M96 238v-269l1037 420v258l-1037 426v-274l692 -281z" />
<glyph unicode="?" horiz-adv-x="1024" d="M328 324v-324h344v324h-344zM66 999h344q0 82 7 132.5t19.5 77t30.5 35.5t43 9q47 0 69.5 -36.5t22.5 -96.5q0 -37 -9 -85t-50 -95l-121 -137q-51 -59 -69.5 -132t-18.5 -190v-57h332q0 66 9 117t38 84l149 170q53 59 74.5 131.5t21.5 158.5q0 184 -105 295t-329 111 q-113 0 -197.5 -25.5t-144.5 -85.5q-57 -57 -86.5 -151.5t-29.5 -229.5z" />
<glyph unicode="@" horiz-adv-x="1638" d="M1272 1094h-189l-16 -76q-51 66 -115.5 95.5t-142.5 29.5q-94 0 -171 -39t-131 -104.5t-84 -149.5t-30 -174q0 -80 25.5 -144.5t69.5 -111.5t102.5 -72.5t122.5 -25.5q70 0 126 24.5t91 65.5h8q6 -43 39 -66.5t80 -23.5q82 0 174 37.5t169 108.5t128 174t51 232 q0 141 -62.5 256t-167 195t-241.5 123t-289 43q-158 0 -296 -59.5t-241.5 -163t-163 -241.5t-59.5 -296t59.5 -296t163 -240.5t242 -160t295.5 -57.5q248 0 411 75t273 229h-225q-78 -57 -177.5 -89t-215.5 -32q-131 0 -242 39t-190.5 112.5t-123.5 179t-44 238.5 q0 127 40 231.5t113.5 181.5t178 119t233.5 42q117 0 216 -31t172 -89.5t113 -143.5t40 -195q0 -86 -18.5 -147.5t-46.5 -99.5t-58.5 -56.5t-57.5 -18.5q-35 0 -34 45q0 14 5 43l9 52zM643 709q0 37 15.5 74.5t41 67.5t61.5 48.5t77 18.5q74 0 117.5 -45.5t43.5 -116.5 q0 -41 -15 -79t-43 -66.5t-65.5 -46t-84.5 -17.5q-68 0 -108 48t-40 114z" />
<glyph unicode="A" horiz-adv-x="1138" d="M567 1163l-104 -620h213l-105 620h-4zM809 1462l356 -1462h-405l-39 256h-303l-39 -256h-399l350 1462h479z" />
<glyph unicode="B" horiz-adv-x="1175" d="M483 274v357h107q53 0 94 -45t41 -131q0 -92 -41 -136.5t-94 -44.5h-107zM483 889v299h92q59 0 90 -45t31 -107q0 -59 -30.5 -103t-90.5 -44h-92zM102 1462v-1462h576q119 0 203 31.5t136 89t76.5 137.5t24.5 174q0 57 -15.5 113.5t-48 103.5t-83.5 79t-123 38v4 q61 12 104 43t71 75t41 98t13 112q0 166 -97 265t-302 99h-576z" />
<glyph unicode="C" horiz-adv-x="1099" d="M674 1018v-82h368v92q0 106 -25.5 191.5t-81.5 145.5t-146.5 93t-219.5 33q-147 0 -247.5 -40t-162 -130t-87 -235.5t-25.5 -354.5q0 -205 21.5 -349t79 -235.5t160 -130.5t261.5 -39q92 0 179.5 19.5t155 76t108.5 155t41 251.5v109h-369q0 -104 -5 -173t-17.5 -110 t-35 -58.5t-57.5 -17.5q-43 0 -68.5 22.5t-38.5 80t-17.5 155t-4.5 244.5t4.5 244.5t17.5 155t38.5 80t68.5 22.5q55 0 80 -45t25 -170z" />
<glyph unicode="D" horiz-adv-x="1175" d="M90 1462v-1462h553q166 0 258 60.5t138 162t56.5 233.5t10.5 275t-10.5 275.5t-56.5 233.5t-138 161.5t-258 60.5h-553zM471 274v914h76q55 0 88 -15.5t50 -64.5t22.5 -139t5.5 -238q0 -147 -5.5 -237.5t-22.5 -139.5t-50 -64.5t-88 -15.5h-76z" />
<glyph unicode="E" horiz-adv-x="1024" d="M90 1462v-1462h885v311h-504v291h455v299h-455v250h485v311h-866z" />
<glyph unicode="F" horiz-adv-x="985" d="M90 1462v-1462h381v602h455v299h-455v250h485v311h-866z" />
<glyph unicode="G" horiz-adv-x="1138" d="M582 795v-258h135q0 -94 -9.5 -154.5t-25.5 -94.5t-40 -46.5t-54 -12.5q-43 0 -68.5 22.5t-39 80t-17.5 155t-4 244.5t4 244.5t17.5 155t41 80t74.5 22.5q68 0 88 -64q20 -53 21 -170h368q0 133 -34.5 226.5t-96 153t-146.5 86t-186 26.5q-168 0 -274.5 -50 t-166.5 -146.5t-81.5 -238t-21.5 -325.5q0 -182 11 -323.5t54 -237.5t127 -144.5t229 -48.5q49 0 97.5 6.5t90.5 21.5t75.5 46t52.5 78h4l8 -129h258v795h-491z" />
<glyph unicode="H" horiz-adv-x="1175" d="M90 1462v-1462h381v602h234v-602h380v1462h-380v-536h-234v536h-381z" />
<glyph unicode="I" horiz-adv-x="532" d="M76 1462v-1462h381v1462h-381z" />
<glyph unicode="J" horiz-adv-x="985" d="M924 1462h-381v-1059q0 -104 -28 -139t-71 -35t-70.5 35t-27.5 139v72h-344v-31q0 -229 102.5 -348t341.5 -119q236 0 357 108t121 372v1005z" />
<glyph unicode="K" horiz-adv-x="1138" d="M76 1462v-1462h381v387l80 123l223 -510h434l-414 823l369 639h-406l-282 -561h-4v561h-381z" />
<glyph unicode="L" horiz-adv-x="948" d="M90 1462v-1462h850v311h-469v1151h-381z" />
<glyph unicode="M" horiz-adv-x="1552" d="M76 1462v-1462h356v1090h4l203 -1090h274l203 1090h4v-1090h357v1462h-545l-154 -866h-4l-153 866h-545z" />
<glyph unicode="N" horiz-adv-x="1212" d="M90 1462v-1462h356v903h5l254 -903h417v1462h-356v-901h-4l-246 901h-426z" />
<glyph unicode="O" horiz-adv-x="1138" d="M440 731q0 147 4.5 244.5t17.5 155t38.5 80t68.5 22.5t69 -22.5t39 -80t17 -154.5t4 -245q0 -147 -4 -244.5t-17 -155t-39 -80t-69 -22.5t-68.5 22.5t-38.5 80t-17.5 155t-4.5 244.5zM47 731q0 -205 26.5 -349t88 -235.5t162 -130.5t245.5 -39t245.5 39t162 130.5 t88.5 235.5t27 349t-27 349.5t-88.5 235.5t-161.5 133t-246 42q-145 0 -245.5 -42t-162 -133t-88 -235.5t-26.5 -349.5z" />
<glyph unicode="P" horiz-adv-x="1099" d="M457 831v357h71q147 0 148 -178q0 -92 -38 -135.5t-110 -43.5h-71zM76 1462v-1462h381v557h133q236 0 357.5 113.5t121.5 341.5q0 96 -24.5 178t-77 142.5t-132 95t-188.5 34.5h-571z" />
<glyph unicode="Q" horiz-adv-x="1138" d="M915 -238l230 199l-176 176q66 92 94.5 237.5t28.5 356.5q0 205 -27 349.5t-88.5 235.5t-161.5 133t-246 42q-145 0 -245.5 -42t-162 -133t-88 -235.5t-26.5 -349.5t26.5 -349t88 -235.5t162 -130.5t245.5 -39h37q29 0 52.5 3.5l48.5 7.5zM440 731q0 147 4.5 244.5 t17.5 155t38.5 80t68.5 22.5t69 -22.5t39 -80t17 -154.5t4 -245q0 -147 -4 -244.5t-17 -155t-39 -80t-69 -22.5t-68.5 22.5t-38.5 80t-17.5 155t-4.5 244.5z" />
<glyph unicode="R" horiz-adv-x="1175" d="M471 844v344h74q86 0 124 -39t38 -131q0 -78 -39 -126t-121 -48h-76zM90 1462v-1462h381v586h100q35 0 58.5 -9.5t39 -33t21.5 -64.5t6 -102v-98q0 -23 1 -59t4.5 -75t10.5 -77.5t21 -67.5h406v20q-18 10 -27 22l-16 24q-6 12 -10.5 34.5t-6.5 50t-2 58.5v59v125 q0 147 -51 231.5t-188 96.5v4q131 20 190 110.5t59 237.5q0 84 -21.5 155.5t-69.5 124t-124.5 81t-185.5 28.5h-596z" />
<glyph unicode="S" horiz-adv-x="1099" d="M659 1040h357q0 236 -111.5 343.5t-361.5 107.5q-242 0 -361 -117t-119 -340q0 -129 44.5 -209t111 -129t144 -79.5t144 -60.5t111 -72t44.5 -113q0 -59 -32 -100.5t-91 -41.5q-55 0 -90 38t-35 132v35h-369v-51q0 -115 33 -192.5t95.5 -126t153.5 -68t210 -19.5 q252 0 385 105.5t133 339.5q0 133 -46 216t-116 134t-149.5 83l-149.5 62.5t-116 72.5t-46 114q0 49 28.5 89t90.5 40q55 0 81.5 -46t26.5 -112v-35z" />
<glyph unicode="T" horiz-adv-x="946" d="M283 1139v-1139h381v1139h286v323h-950v-323h283z" />
<glyph unicode="U" horiz-adv-x="1138" d="M455 1462h-381v-958q0 -154 32.5 -256.5t95 -163.5t156 -84t211.5 -23q121 0 213 23t154.5 84t95.5 163.5t33 256.5v958h-381v-1054q0 -106 -30.5 -142.5t-84.5 -36.5q-53 0 -83.5 36t-30.5 143v1054z" />
<glyph unicode="V" d="M-23 1462l310 -1462h491l316 1462h-406l-153 -1102h-5l-153 1102h-400z" />
<glyph unicode="W" horiz-adv-x="1593" d="M625 1462l-138 -1011h-4l-114 1011h-369l250 -1462h418l127 983h4l127 -983h417l250 1462h-368l-103 -1011h-4l-149 1011h-344z" />
<glyph unicode="X" horiz-adv-x="1097" d="M0 1462l322 -721l-340 -741h419l146 440h4l145 -440h426l-342 741l318 721h-426l-121 -424h-4l-121 424h-426z" />
<glyph unicode="Y" d="M342 575v-575h381v575l373 887h-418l-143 -510h-5l-143 510h-412z" />
<glyph unicode="Z" horiz-adv-x="985" d="M41 274v-274h903v311h-467l467 877v274h-872v-311h428z" />
<glyph unicode="[" horiz-adv-x="643" d="M90 1462v-1833h553v258h-209v1317h209v258h-553z" />
<glyph unicode="\" horiz-adv-x="681" d="M-39 1491l459 -1514h307l-465 1514h-301z" />
<glyph unicode="]" horiz-adv-x="643" d="M209 1204v-1317h-209v-258h553v1833h-553v-258h209z" />
<glyph unicode="^" horiz-adv-x="1228" d="M455 1421l-359 -747h287l231 489l232 -489h287l-359 747h-319z" />
<glyph unicode="_" horiz-adv-x="1024" d="M0 -147v-103h1024v103h-1024z" />
<glyph unicode="`" horiz-adv-x="532" d="M2 1509l197 -299h237l-90 299h-344z" />
<glyph unicode="a" horiz-adv-x="1024" d="M475 219q-41 0 -65.5 33t-24.5 88t16.5 89t59.5 54q41 18 74.5 23.5t50.5 28.5h4v-134q0 -92 -27 -137t-88 -45zM612 0h357q-23 43 -29 102.5t-6 137.5v540q0 109 -32 177.5t-90 108.5t-139 55.5t-177 15.5q-63 0 -137 -13.5t-137.5 -53.5t-106.5 -112.5t-43 -193.5h319 q2 88 26.5 117.5t78.5 29.5q94 0 94 -102q0 -51 -24.5 -79t-84.5 -42l-145 -35q-88 -20 -147.5 -50t-94.5 -72t-50 -99t-15 -135q0 -72 16 -131.5t53 -102.5t95.5 -64.5t142.5 -21.5q86 0 152.5 37t97.5 111h4q4 -35 8 -65.5t14 -59.5z" />
<glyph unicode="b" d="M449 553q0 90 4 149.5t15 95.5t31.5 50t51.5 14q33 0 53.5 -14t31.5 -50t15 -95.5t4 -149.5q0 -88 -4 -147.5t-15 -95.5t-31.5 -50t-53.5 -14q-31 0 -51.5 14t-31.5 50t-15 95.5t-4 147.5zM80 1462v-1462h356v152h4q35 -92 94.5 -133.5t157.5 -41.5q184 0 258 145.5 t74 455.5q0 160 -23.5 267t-66.5 171.5t-106.5 92.5t-143.5 28q-78 0 -140.5 -34t-90.5 -120h-4v479h-369z" />
<glyph unicode="c" horiz-adv-x="985" d="M625 674h331q0 104 -19 189t-67.5 145.5t-129.5 94.5t-203 34q-104 0 -194.5 -20.5t-157 -84t-105.5 -182.5t-39 -315q0 -180 35 -290t97.5 -170.5t150.5 -79t194 -18.5q236 0 340 111q53 59 75.5 151.5t22.5 223.5h-331v-72q0 -104 -28 -143t-79 -39q-31 0 -52.5 15.5 t-33.5 54t-17 105.5t-5 169t5 168.5t17 106.5t33.5 55.5t52.5 15.5q59 0 82 -47q12 -27 18.5 -68.5t6.5 -109.5z" />
<glyph unicode="d" d="M410 553q0 90 4 149.5t15 95.5t31.5 50t53.5 14q31 0 51.5 -14t31.5 -50t15 -95.5t4 -149.5q0 -88 -4 -147.5t-15 -95.5t-31.5 -50t-51.5 -14q-33 0 -53.5 14t-31.5 50t-15 95.5t-4 147.5zM616 1462v-479h-4q-29 86 -91 120t-140 34q-76 0 -139.5 -29t-107.5 -94.5 t-68.5 -172t-24.5 -263.5q0 -309 73.5 -455t258.5 -146q98 0 157.5 41t94.5 134h4v-152h356v1462h-369z" />
<glyph unicode="e" horiz-adv-x="985" d="M612 741v-49h-202v49q0 88 21.5 129t78.5 41q59 0 80.5 -41t21.5 -129zM410 492h546v112q0 152 -27.5 253t-84 163.5t-139 89.5t-193.5 27q-125 0 -214 -32t-146.5 -101.5t-84 -180t-26.5 -270.5q0 -158 23.5 -268.5t79 -179t145.5 -98.5t223 -30q229 0 329.5 103.5 t104.5 308.5h-332q0 -113 -27.5 -152.5t-76.5 -39.5q-39 0 -69.5 29.5t-30.5 119.5v146z" />
<glyph unicode="f" horiz-adv-x="645" d="M127 860v-860h369v860h149v248h-149v68q0 41 26.5 59t61.5 18q20 0 33.5 -1t27.5 -5v232q-43 6 -89 9t-87 3q-96 0 -161.5 -16.5t-105.5 -52.5t-57.5 -93t-17.5 -141v-80h-127v-248h127z" />
<glyph unicode="g" d="M641 1108v-154h-4q-31 100 -98.5 141.5t-145.5 41.5q-80 0 -143.5 -28t-107.5 -92.5t-67.5 -172t-23.5 -266.5q0 -172 30 -280t77 -167t104 -79.5t113 -20.5q76 0 145.5 34.5t104.5 131.5h4v-205q0 -47 -10.5 -74t-25.5 -41t-35.5 -18t-41.5 -4q-43 0 -67.5 22.5 t-24.5 63.5h-332q2 -94 36 -154.5t92.5 -95.5t136 -48.5t165.5 -13.5q98 0 182 19.5t146.5 64.5t98.5 121t36 184v1090h-344zM420 584q0 86 7 140t20.5 85t33 42t45.5 11q25 0 44.5 -11t32.5 -42t19.5 -85t6.5 -140q0 -88 -6.5 -142.5t-19.5 -85t-32.5 -41t-44.5 -10.5 q-27 0 -46 10.5t-32.5 41t-20.5 85t-7 142.5z" />
<glyph unicode="h" d="M74 1462v-1462h368v731q0 70 20.5 100.5t69.5 30.5t70 -30.5t21 -100.5v-731h368v836q0 86 -23.5 144t-63.5 93t-92 49.5t-110 14.5q-68 0 -138 -32t-118 -120h-4v477h-368z" />
<glyph unicode="i" horiz-adv-x="528" d="M80 1462v-274h369v274h-369zM80 1108v-1108h369v1108h-369z" />
<glyph unicode="j" horiz-adv-x="528" d="M80 1462v-274h369v274h-369zM80 1108v-1126q0 -49 -35 -63.5t-98 -14.5v-248q41 -4 80 -7t79 -3q72 0 134.5 9t108.5 39t73 87t27 153v1174h-369z" />
<glyph unicode="k" horiz-adv-x="1024" d="M63 1462v-1462h369v285l62 96l186 -381h393l-346 651l307 457h-393l-205 -383h-4v737h-369z" />
<glyph unicode="l" horiz-adv-x="528" d="M80 1462v-1462h369v1462h-369z" />
<glyph unicode="m" horiz-adv-x="1593" d="M612 731v-731h369v731q0 70 20.5 100.5t69.5 30.5t69.5 -30.5t20.5 -100.5v-731h369v836q0 90 -22.5 147t-61.5 92t-91 48.5t-114 13.5q-86 0 -160.5 -38t-117.5 -132q-35 86 -95.5 128t-175.5 42q-197 0 -268 -164h-4v135h-357v-1108h369v731q0 70 20.5 100.5t69.5 30.5 t69.5 -30.5t20.5 -100.5z" />
<glyph unicode="n" d="M74 1108v-1108h368v731q0 70 20.5 100.5t69.5 30.5t70 -30.5t21 -100.5v-731h368v836q0 90 -22.5 147t-61.5 92t-91 48.5t-114 13.5q-197 0 -268 -164h-4v135h-356z" />
<glyph unicode="o" horiz-adv-x="1024" d="M410 553q0 104 4 172t16 106.5t31.5 53t50.5 14.5t51.5 -14.5t31.5 -53t15 -106.5t4 -172t-4 -171t-15 -105.5t-31.5 -53t-51.5 -14.5t-50.5 14.5t-31.5 53t-16 105.5t-4 171zM983 553q0 121 -13.5 226.5t-60.5 185t-141 126t-256 46.5q-156 0 -249 -50.5t-142 -132.5 t-64.5 -186t-15.5 -213q0 -121 13.5 -226.5t60.5 -184t141 -123t256 -44.5q156 0 249 48.5t142 129.5t64.5 185t15.5 213z" />
<glyph unicode="p" d="M449 555q0 90 4 148.5t15 94.5t31.5 50t51.5 14q33 0 53.5 -14t31.5 -50t15 -94.5t4 -148.5t-4 -149.5t-15 -95.5t-31.5 -50t-53.5 -14q-31 0 -51.5 14t-31.5 50t-15 95.5t-4 149.5zM80 1108v-1462h369v479h4q29 -86 91 -117t140 -31t140.5 26t106.5 90.5t68.5 171 t24.5 265.5q0 307 -73.5 457t-258.5 150q-188 0 -252 -181h-4v152h-356z" />
<glyph unicode="q" d="M616 555q0 -90 -4 -149.5t-15 -95.5t-31.5 -50t-51.5 -14q-33 0 -53.5 14t-31.5 50t-15 95.5t-4 149.5t4 148.5t15 94.5t31.5 50t53.5 14q31 0 51.5 -14t31.5 -50t15 -94.5t4 -148.5zM616 125v-479h369v1462h-356v-152h-4q-35 92 -94.5 136.5t-157.5 44.5 q-184 0 -258 -149.5t-74 -457.5q0 -160 23.5 -267t66.5 -171.5t106.5 -89.5t143.5 -25q78 0 140.5 31t90.5 117h4z" />
<glyph unicode="r" horiz-adv-x="720" d="M63 1108v-1108h369v604q0 111 54.5 154t152.5 43q23 0 45.5 -2t46.5 -6v344h-59q-82 0 -149.5 -52.5t-98.5 -152.5h-4v176h-357z" />
<glyph unicode="s" horiz-adv-x="948" d="M358 344h-323q0 -182 101.5 -274.5t332.5 -92.5q104 0 187 25t139.5 74t87 116.5t30.5 149.5q0 106 -39.5 171t-99 102.5t-128.5 58.5l-128 39q-59 18 -99 41.5t-40 70.5q0 41 26.5 63.5t67.5 22.5q47 0 72.5 -25.5t25.5 -97.5h320q0 348 -416 349q-113 0 -195.5 -27 t-137 -74t-81 -109.5t-26.5 -135.5q0 -104 40 -169t99 -104t128 -61l128 -43q59 -20 99 -47t40 -76q0 -45 -31.5 -69.5t-74.5 -24.5q-51 0 -78 39q-14 18 -20.5 46.5t-6.5 61.5z" />
<glyph unicode="t" horiz-adv-x="645" d="M4 1108v-248h123v-590q0 -92 17.5 -148t55.5 -85t97 -36t143 -7q47 0 98.5 3t102.5 3v246h-57q-45 0 -66.5 19.5t-21.5 66.5v528h145v248h-145v326h-369v-326h-123z" />
<glyph unicode="u" d="M74 1108v-836q0 -88 22.5 -146t61.5 -92t91 -45.5t113 -11.5q199 0 269 158h4v-135h356v1108h-368v-731q0 -70 -20.5 -100.5t-70.5 -30.5q-49 0 -69.5 30.5t-20.5 100.5v731h-368z" />
<glyph unicode="v" horiz-adv-x="948" d="M-6 1108l262 -1108h434l271 1108h-381l-103 -797h-4l-104 797h-375z" />
<glyph unicode="w" horiz-adv-x="1515" d="M0 1108l225 -1108h418l113 784h4l112 -784h418l226 1108h-357l-92 -797h-4l-109 797h-393l-108 -797h-4l-93 797h-356z" />
<glyph unicode="x" horiz-adv-x="985" d="M4 1108l281 -537l-287 -571h362l136 334l129 -334h368l-293 571l279 537h-369l-127 -297l-110 297h-369z" />
<glyph unicode="y" horiz-adv-x="948" d="M102 -88v-258q47 -4 97.5 -6t109.5 -2q74 0 131.5 14t101.5 51t75.5 99.5t56.5 158.5l297 1139h-369l-106 -748h-4l-113 748h-379l291 -1045l11 -43q5 -20 5 -32q0 -8 -6 -22.5t-20.5 -28t-38 -23.5t-58.5 -10q-20 0 -41 2t-41 6z" />
<glyph unicode="z" horiz-adv-x="909" d="M47 1108v-287h379l-397 -534v-287h852v287h-424l413 547v274h-823z" />
<glyph unicode="{" horiz-adv-x="681" d="M129 268v-358q0 -141 79 -211t228 -70h246v258h-115q-33 0 -51 12.5t-27.5 31t-12.5 41t-3 36.5v326q0 70 -24.5 109.5t-59.5 61t-72.5 28t-64.5 8.5v4q27 2 64.5 10t72.5 28.5t59.5 56.5t24.5 93v344q0 20 3 43t12.5 41.5t28 30.5t50.5 12h115v258h-246 q-150 0 -228.5 -69.5t-78.5 -210.5v-383q0 -41 -15.5 -64.5t-37 -36t-45 -15.5t-35.5 -3v-274q12 0 35.5 -4.5t45 -18.5t37 -41t15.5 -74z" />
<glyph unicode="|" horiz-adv-x="454" d="M84 1491v-1514h287v1514h-287z" />
<glyph unicode="}" horiz-adv-x="681" d="M0 -113v-258h246q150 0 228.5 70t78.5 211v377q0 39 15.5 62.5t37 35.5t45 16.5t41.5 4.5v274q-18 0 -41.5 4t-45 18.5t-37 42t-15.5 72.5v365q0 141 -79 210.5t-228 69.5h-246v-258h115q33 0 51 -12t27.5 -30.5t12.5 -41t3 -43.5v-325q0 -70 24.5 -110t59.5 -61.5 t72.5 -27.5t64.5 -8v-4q-27 -2 -64.5 -10.5t-72.5 -29t-59.5 -56t-24.5 -93.5v-344q0 -14 -3 -36.5t-12.5 -41t-28 -31t-50.5 -12.5h-115z" />
<glyph unicode="~" horiz-adv-x="1228" d="M141 555l74 -256q59 145 172 145q70 0 125 -21.5t106.5 -48t101.5 -48t111 -21.5q76 0 139.5 45t116.5 131l-73 256q-43 -68 -86 -106.5t-94 -38.5q-41 0 -93.5 21.5t-109 48t-116.5 48t-118 21.5q-92 0 -156.5 -49t-99.5 -127z" />
<glyph unicode="&#xa1;" horiz-adv-x="643" d="M143 141v-483h357v483l-43 549h-275zM147 1114v-323h345v323h-345z" />
<glyph unicode="&#xa2;" d="M469 -23v-180h164v180q174 23 258 111q53 59 75.5 151.5t22.5 223.5h-332v-72q0 -104 -27.5 -143t-78.5 -39q-31 0 -51.5 15.5t-32.5 54t-17.5 105.5t-5.5 169t5.5 168.5t17.5 106.5t32.5 55.5t51.5 15.5q59 0 82 -47q12 -27 18 -69t6 -109h332q0 92 -13 173t-52 141.5 t-109 99t-182 49.5v155h-164v-155q-94 -12 -167 -47t-123 -105t-76.5 -181.5t-26.5 -275.5q0 -137 22.5 -237.5t69.5 -169.5q92 -126 301 -144z" />
<glyph unicode="&#xa3;" d="M25 815v-213h219l7 -32q3 -13 3 -27q0 -51 -18.5 -99.5t-50 -92.5t-72.5 -83t-88 -69l84 -209q53 20 108 37.5t113 17.5q47 0 95 -11l95 -23l95 -22q48 -11 96 -12q88 0 171 19.5t158 73.5l-102 229q-78 -41 -126 -60.5t-87 -19.5q-27 0 -54.5 8.5l-55 17.5t-55.5 17 t-56 8q-31 0 -68 -14l-4 4q88 66 139.5 140.5t51.5 140.5q0 14 -3 28l-8 33h283v213h-350q-47 86 -74 155.5t-27 123.5q0 47 29 82.5t86 35.5q47 0 82 -33.5t35 -113.5v-33h332q-2 98 -28 176t-81 132.5t-146 82t-225 27.5q-98 0 -181 -23.5t-143.5 -70.5t-94 -118 t-33.5 -165q0 -66 24.5 -133.5t63.5 -124.5h-139z" />
<glyph unicode="&#xa4;" d="M326 711q0 111 54 167t152 56t152.5 -56.5t54.5 -166.5q0 -111 -54 -167.5t-153 -56.5q-98 0 -152 56.5t-54 167.5zM18 356l148 -157l106 110q115 -80 260 -80q147 0 261 80l106 -110l148 157l-107 105q74 115 74 250q0 72 -21.5 136t-56.5 122l111 108l-148 146 l-113 -105q-113 74 -254 74q-139 0 -253 -74l-113 105l-148 -146l111 -108q-35 -57 -56.5 -122t-21.5 -136q0 -135 74 -250z" />
<glyph unicode="&#xa5;" d="M348 252v-252h369v252h256v213h-256v94l12 35h244v213h-154l256 614h-393l-147 -532h-5l-147 532h-387l250 -614h-154v-213h244l12 -35v-94h-256v-213h256z" />
<glyph unicode="&#xa6;" horiz-adv-x="454" d="M84 1491v-594h287v594h-287zM84 565v-588h287v588h-287z" />
<glyph unicode="&#xa7;" d="M649 442l-241 111q-47 23 -63.5 44t-16.5 50q0 23 20.5 58.5t73.5 80.5q35 -25 89 -43t104.5 -39.5t86 -50t35.5 -73.5q0 -35 -15.5 -66t-72.5 -72zM649 1130h320v39q0 166 -108.5 244t-325.5 78q-227 0 -337 -96.5t-110 -257.5q0 -63 31 -130t92 -108q-74 -39 -122 -123 t-48 -172q0 -113 43 -181.5t107.5 -111.5t139.5 -67.5t139.5 -50t107.5 -60.5t43 -96q0 -41 -23 -75t-76 -34q-49 0 -75.5 36t-26.5 126h-344v-33q2 -186 116.5 -276t331.5 -90q98 0 183.5 19.5t148 63.5t98 113.5t35.5 163.5q0 78 -23.5 151.5t-88.5 125.5q78 59 112.5 134 t34.5 161q0 113 -43 183.5t-107.5 115.5t-139.5 71l-139 50q-65 24 -108 51.5t-43 74.5q0 37 28 60.5t69 23.5q43 0 75.5 -23.5t32.5 -99.5z" />
<glyph unicode="&#xa8;" horiz-adv-x="532" d="M315 1491v-287h275v287h-275zM-51 1491v-287h268v287h-268z" />
<glyph unicode="&#xa9;" horiz-adv-x="1638" d="M322 731q0 264 131 399.5t366 135.5q236 0 367 -135.5t131 -399.5t-131 -399t-367 -135t-366.5 135t-130.5 399zM59 731q0 -158 59.5 -296t163 -240.5t242 -160t295.5 -57.5q158 0 296 57.5t241.5 160t163 240.5t59.5 296t-59.5 296t-163 241.5t-241.5 163t-296 59.5 t-296 -59.5t-241.5 -163t-163 -241.5t-59.5 -296zM1210 612h-225q-8 -66 -46 -96.5t-93 -30.5q-92 0 -144.5 68t-52.5 180q0 111 49.5 176.5t141.5 65.5q55 0 93 -30t52 -89h213q-25 154 -123 230.5t-235 76.5q-92 0 -166 -33.5t-127 -94t-82 -141.5t-29 -173q0 -90 30 -168 t85 -134.5t132 -89t169 -32.5q66 0 125 20.5t107.5 60.5t81 99t44.5 135z" />
<glyph unicode="&#xaa;" horiz-adv-x="720" d="M416 1104v-66q0 -55 -16.5 -82.5t-57.5 -27.5q-29 0 -44 17.5t-15 39.5q0 33 10 53.5t39 32.5q27 10 48 13t32 20h4zM49 1237h238q2 41 17 57.5t50 16.5q31 0 46.5 -13.5t15.5 -31.5q0 -31 -15.5 -46.5t-54.5 -25.5l-94 -23q-68 -16 -113 -34.5t-71.5 -42t-37 -56 t-10.5 -80.5q0 -86 50.5 -140t181.5 -54q55 0 98 24q43 23 62 68h4q4 -23 6 -41t10 -37h268q-14 29 -18 64t-4 82v325q0 57 -14.5 97t-50 66t-98 38t-161.5 12q-61 0 -116.5 -8t-97.5 -32.5t-66.5 -68.5t-24.5 -116z" />
<glyph unicode="&#xab;" horiz-adv-x="909" d="M100 817v-450l320 -213v323l-172 115l172 115v323zM489 817v-450l320 -213v323l-172 115l172 115v323z" />
<glyph unicode="&#xac;" horiz-adv-x="1228" d="M846 604v-381h287v668h-1037v-287h750z" />
<glyph unicode="&#xad;" horiz-adv-x="753" d="M57 748v-312h639v312h-639z" />
<glyph unicode="&#xae;" horiz-adv-x="1638" d="M819 815h-100v178h100q55 0 86 -21.5t31 -64.5q0 -47 -31 -69.5t-86 -22.5zM530 1145v-774h189v293h65l164 -293h209l-174 313q25 2 51.5 14.5t49 37t38 63.5t15.5 94q0 145 -93.5 198.5t-257.5 53.5h-256zM322 731q0 264 131 399.5t366 135.5q236 0 367 -135.5 t131 -399.5t-131 -399t-367 -135t-366.5 135t-130.5 399zM59 731q0 -158 59.5 -296t163 -240.5t242 -160t295.5 -57.5q158 0 296 57.5t241.5 160t163 240.5t59.5 296t-59.5 296t-163 241.5t-241.5 163t-296 59.5t-296 -59.5t-241.5 -163t-163 -241.5t-59.5 -296z" />
<glyph unicode="&#xaf;" horiz-adv-x="532" d="M-51 1462v-200h641v200h-641z" />
<glyph unicode="&#xb0;" horiz-adv-x="819" d="M270 1122q0 59 40 99.5t100 40.5q59 0 99 -40t40 -100q0 -59 -40 -99t-99 -40t-99.5 40t-40.5 99zM82 1122q0 -68 25.5 -127t70.5 -104t104.5 -70.5t127.5 -25.5t127 25.5t104 70.5t70.5 104.5t25.5 126.5q0 68 -25.5 127.5t-70.5 104.5t-104.5 70.5t-126.5 25.5 q-68 0 -127.5 -25.5t-104.5 -70.5t-70.5 -104.5t-25.5 -127.5z" />
<glyph unicode="&#xb1;" horiz-adv-x="1228" d="M96 287v-287h1037v287h-1037zM471 1036v-180h-375v-287h375v-180h287v180h375v287h-375v180h-287z" />
<glyph unicode="&#xb2;" horiz-adv-x="757" d="M39 1139h262v28q0 76 21.5 97.5t44.5 21.5q29 0 47 -18.5t18 -59.5q0 -49 -15.5 -78.5t-51.5 -64.5l-164 -156q-82 -78 -112 -160.5t-30 -175.5h660v189h-326q8 20 27 39l35 35l145 133q53 49 86 107.5t33 133.5q0 49 -13.5 93.5t-51.5 77t-104.5 51t-174.5 18.5 q-117 0 -180.5 -20.5t-98.5 -61.5q-35 -39 -46 -94t-11 -135z" />
<glyph unicode="&#xb3;" horiz-adv-x="757" d="M49 1192h250q0 94 68 94q61 0 61 -74q0 -72 -25.5 -94t-80.5 -22h-37v-152h63q47 0 68.5 -21.5t21.5 -86.5q0 -66 -12 -89.5t-55 -23.5q-37 0 -56 33q-10 16 -15 38.5t-5 39.5h-262q0 -78 19.5 -130.5t61.5 -85t107.5 -46t157.5 -13.5q184 0 265 66.5t81 214.5 q0 72 -33 124t-121 64v4q74 16 102.5 69.5t28.5 106.5q0 57 -14 102.5t-51 76t-100.5 47t-163.5 16.5q-92 0 -149.5 -14.5t-96.5 -46.5q-78 -66 -78 -197z" />
<glyph unicode="&#xb4;" horiz-adv-x="532" d="M207 1509l-90 -299h237l197 299h-344z" />
<glyph unicode="&#xb5;" d="M74 1108v-1462h368v338q12 -6 31 -7q47 0 86 41t72 117h4v-135h356v1108h-368v-731q0 -70 -20.5 -100.5t-70.5 -30.5q-49 0 -69.5 30.5t-20.5 100.5v731h-368z" />
<glyph unicode="&#xb6;" horiz-adv-x="1363" d="M422 676v-957h287v1518h194v-1518h287v1743h-598q-106 0 -201.5 -16t-167 -60.5t-113.5 -122t-42 -200.5q0 -96 30.5 -169t80.5 -121t113.5 -72.5t129.5 -24.5z" />
<glyph unicode="&#xb7;" horiz-adv-x="532" d="M63 561q0 -86 58.5 -144.5t144.5 -58.5t144.5 58.5t58.5 144.5t-58.5 144.5t-144.5 58.5t-144.5 -58.5t-58.5 -144.5z" />
<glyph unicode="&#xb8;" horiz-adv-x="532" d="M352 12h-123l-104 -190l51 -43q14 6 28.5 10t31.5 4q27 0 55 -12t28 -53q0 -29 -27.5 -49.5t-74.5 -20.5q-72 0 -139 33l-45 -115q47 -18 110.5 -29.5t122.5 -11.5q123 0 194.5 49t71.5 154q0 84 -57 123t-131 39q-29 0 -59 -11z" />
<glyph unicode="&#xb9;" horiz-adv-x="681" d="M223 1151v-578h287v877h-213q-14 -39 -33.5 -64.5t-49.5 -41t-71 -22.5t-98 -7v-164h178z" />
<glyph unicode="&#xba;" horiz-adv-x="720" d="M295 1112q0 111 13.5 148.5t51.5 37.5q41 0 53.5 -37.5t12.5 -148.5q0 -109 -13.5 -146.5t-52.5 -37.5t-52 37.5t-13 146.5zM20 1112q0 -94 15.5 -160.5t54.5 -108.5t104.5 -60.5t165.5 -18.5t166 18.5t105 60.5t54 108.5t15 160.5q0 96 -15 162.5t-54 107.5t-104.5 60.5 t-166.5 19.5q-100 0 -165.5 -19.5t-104.5 -60.5t-54.5 -107.5t-15.5 -162.5z" />
<glyph unicode="&#xbb;" horiz-adv-x="909" d="M489 477v-323l320 213v450l-320 213v-323l173 -115zM100 477v-323l320 213v450l-320 213v-323l172 -115z" />
<glyph unicode="&#xbc;" horiz-adv-x="1667" d="M199 1151v-578h286v877h-213q-14 -39 -33.5 -64.5t-49 -41t-70.5 -22.5t-99 -7v-164h179zM1092 1485l-793 -1542h225l793 1542h-225zM934 336v-189h371v-147h249v147h82v189h-82v526h-321zM1305 336h-158l153 268h5v-268z" />
<glyph unicode="&#xbd;" horiz-adv-x="1667" d="M965 565h262v29q0 76 21.5 97.5t43.5 21.5q29 0 47.5 -18.5t18.5 -59.5q0 -49 -15.5 -79t-52.5 -64l-164 -156q-82 -78 -111.5 -161t-29.5 -175h660v188h-326q8 20 27 39l34 35l146 133q53 49 86 107.5t33 134.5q0 49 -13.5 93t-51.5 77t-104.5 51.5t-175.5 18.5 q-117 0 -180 -20.5t-98 -61.5q-35 -39 -46 -94.5t-11 -135.5zM199 1151v-578h286v877h-213q-14 -39 -33.5 -64.5t-49 -41t-70.5 -22.5t-99 -7v-164h179zM1022 1485l-793 -1542h226l792 1542h-225z" />
<glyph unicode="&#xbe;" horiz-adv-x="1667" d="M47 1192h250q0 94 68 94q61 0 61 -74q0 -72 -25.5 -94t-81.5 -22h-36v-152h63q47 0 68.5 -21.5t21.5 -86.5q0 -66 -12 -89.5t-55 -23.5q-37 0 -56 33q-10 16 -15 38.5t-5 39.5h-262q0 -78 19.5 -130.5t61.5 -85t107.5 -46t157.5 -13.5q184 0 265 66.5t81 214.5 q0 72 -33 124t-121 64v4q74 16 102.5 69.5t28.5 106.5q0 57 -14 102.5t-51 76t-100.5 47t-163.5 16.5q-92 0 -149.5 -14.5t-96.5 -46.5q-78 -66 -78 -197zM1167 1485l-792 -1542h225l793 1542h-226zM934 336v-189h371v-147h249v147h82v189h-82v526h-321zM1280 336h-158 l154 268h4v-268z" />
<glyph unicode="&#xbf;" horiz-adv-x="1024" d="M352 1114v-323h344v323h-344zM958 115h-344q0 -82 -7 -129t-19.5 -74t-30.5 -36t-43 -9q-47 0 -69.5 37t-22.5 96q0 31 9 79t50 95l121 137q51 59 69.5 132t18.5 190v57h-332q0 -66 -9 -117t-38 -84l-149 -170q-53 -59 -74.5 -131.5t-21.5 -158.5q0 -178 105 -289 t329 -111q113 0 197.5 26t144.5 85q116 117 116 375z" />
<glyph unicode="&#xc0;" horiz-adv-x="1138" d="M293 1864l196 -299h238l-90 299h-344zM571 1163l105 -620h-213l104 620h4zM330 1462l-350 -1462h399l39 256h303l39 -256h405l-356 1462h-479z" />
<glyph unicode="&#xc1;" horiz-adv-x="1138" d="M498 1864l-90 -299h237l197 299h-344zM571 1163l105 -620h-213l104 620h4zM330 1462l-350 -1462h399l39 256h303l39 -256h405l-356 1462h-479z" />
<glyph unicode="&#xc2;" horiz-adv-x="1138" d="M360 1864l-127 -299h250l74 164l74 -164h250l-127 299h-394zM571 1163l105 -620h-213l104 620h4zM330 1462l-350 -1462h399l39 256h303l39 -256h405l-356 1462h-479z" />
<glyph unicode="&#xc3;" horiz-adv-x="1138" d="M895 1864h-176q-4 -35 -18.5 -48.5t-36.5 -13.5q-23 0 -50.5 10.5t-60.5 20.5q-33 12 -66.5 21.5t-66.5 9.5q-88 0 -135 -73t-66 -214h176q0 27 12.5 44t34.5 17q23 0 48.5 -9t56.5 -21.5t66.5 -21.5t76.5 -9q74 0 131.5 66.5t73.5 220.5zM571 1163l105 -620h-213 l104 620h4zM330 1462l-350 -1462h399l39 256h303l39 -256h405l-356 1462h-479z" />
<glyph unicode="&#xc4;" horiz-adv-x="1138" d="M606 1845v-286h275v286h-275zM233 1845v-286h275v286h-275zM571 1163l105 -620h-213l104 620h4zM330 1462l-350 -1462h399l39 256h303l39 -256h405l-356 1462h-479z" />
<glyph unicode="&#xc5;" horiz-adv-x="1138" d="M477 1763q0 39 26.5 65.5t65.5 26.5t66 -26.5t27 -65.5t-27 -65.5t-66 -26.5t-65.5 26.5t-26.5 65.5zM342 1763q0 -45 18.5 -87t49 -72.5t72.5 -49t87 -18.5q47 0 88 18.5t72 49t49.5 72.5t18.5 87q0 47 -18.5 88t-49.5 72t-72 49.5t-88 18.5q-45 0 -87 -18.5 t-72.5 -49.5t-49 -72t-18.5 -88zM571 1163l105 -620h-213l104 620h4zM330 1462l-350 -1462h399l39 256h303l39 -256h405l-356 1462h-479z" />
<glyph unicode="&#xc6;" horiz-adv-x="1593" d="M526 1462l-546 -1462h399l74 244h295v-244h813v311h-457v291h401v299h-401v250h434v311h-1012zM748 543h-207l202 661h5v-661z" />
<glyph unicode="&#xc7;" horiz-adv-x="1099" d="M494 -18l-84 -160l51 -43q14 6 28.5 10t30.5 4q27 0 55.5 -12t28.5 -53q0 -29 -27.5 -49.5t-74.5 -20.5q-72 0 -140 33l-45 -115q47 -18 111 -29.5t123 -11.5q123 0 194.5 49t71.5 154q0 84 -57.5 123t-130.5 39q-29 0 -60 -11l47 88q84 6 163 30t139.5 81t97.5 152.5 t37 238.5v109h-369q0 -104 -5 -173t-17.5 -110t-35 -58.5t-57.5 -17.5q-43 0 -68.5 22.5t-38.5 80t-17.5 155t-4.5 244.5t4.5 244.5t17.5 155t38.5 80t68.5 22.5q55 0 80 -45t25 -170v-82h368v92q0 106 -25.5 191.5t-81.5 145.5t-146.5 93t-219.5 33q-147 0 -247.5 -40 t-162 -130t-87 -235.5t-25.5 -354.5q0 -190 18.5 -328.5t67.5 -229.5t136.5 -136t224.5 -55z" />
<glyph unicode="&#xc8;" horiz-adv-x="1024" d="M248 1864l196 -299h238l-90 299h-344zM90 1462v-1462h885v311h-504v291h455v299h-455v250h485v311h-866z" />
<glyph unicode="&#xc9;" horiz-adv-x="1024" d="M453 1864l-91 -299h238l197 299h-344zM90 1462v-1462h885v311h-504v291h455v299h-455v250h485v311h-866z" />
<glyph unicode="&#xca;" horiz-adv-x="1024" d="M315 1864l-127 -299h250l74 164l74 -164h250l-127 299h-394zM90 1462v-1462h885v311h-504v291h455v299h-455v250h485v311h-866z" />
<glyph unicode="&#xcb;" horiz-adv-x="1024" d="M561 1845v-286h275v286h-275zM188 1845v-286h275v286h-275zM90 1462v-1462h885v311h-504v291h455v299h-455v250h485v311h-866z" />
<glyph unicode="&#xcc;" horiz-adv-x="532" d="M-4 1864l190 -299h238l-90 299h-338zM76 1462v-1462h381v1462h-381z" />
<glyph unicode="&#xcd;" horiz-adv-x="532" d="M195 1864l-91 -299h238l197 299h-344zM76 1462v-1462h381v1462h-381z" />
<glyph unicode="&#xce;" horiz-adv-x="532" d="M57 1864l-120 -299h243l74 164l74 -164h250l-127 299h-394zM76 1462v-1462h381v1462h-381z" />
<glyph unicode="&#xcf;" horiz-adv-x="532" d="M303 1845v-286h275v286h-275zM-63 1845v-286h268v286h-268zM76 1462v-1462h381v1462h-381z" />
<glyph unicode="&#xd0;" horiz-adv-x="1175" d="M578 889h-107v299h76q55 0 88 -15.5t50 -64.5t22.5 -139t5.5 -238q0 -147 -5.5 -237.5t-22.5 -139.5t-50 -64.5t-88 -15.5h-76v357h107v258zM90 631v-631h553q166 0 258 60.5t138 162t56.5 233.5t10.5 275t-10.5 275.5t-56.5 233.5t-138 161.5t-258 60.5h-553v-573h-102 v-258h102z" />
<glyph unicode="&#xd1;" horiz-adv-x="1212" d="M944 1864h-176q-4 -35 -18.5 -48.5t-36.5 -13.5q-23 0 -50.5 10.5t-60.5 20.5q-33 12 -66.5 21.5t-66.5 9.5q-88 0 -135 -73t-66 -214h176q0 27 12.5 44t35.5 17t48 -9t56 -21.5t66.5 -21.5t76.5 -9q74 0 131.5 66.5t73.5 220.5zM90 1462v-1462h356v903h5l254 -903h417 v1462h-356v-901h-4l-246 901h-426z" />
<glyph unicode="&#xd2;" horiz-adv-x="1138" d="M305 1864l197 -299h237l-90 299h-344zM440 731q0 147 4.5 244.5t17.5 155t38.5 80t68.5 22.5t69 -22.5t39 -80t17 -154.5t4 -245q0 -147 -4 -244.5t-17 -155t-39 -80t-69 -22.5t-68.5 22.5t-38.5 80t-17.5 155t-4.5 244.5zM47 731q0 -205 26.5 -349t88 -235.5t162 -130.5 t245.5 -39t245.5 39t162 130.5t88.5 235.5t27 349t-27 349.5t-88.5 235.5t-161.5 133t-246 42q-145 0 -245.5 -42t-162 -133t-88 -235.5t-26.5 -349.5z" />
<glyph unicode="&#xd3;" horiz-adv-x="1138" d="M510 1864l-90 -299h237l197 299h-344zM440 731q0 147 4.5 244.5t17.5 155t38.5 80t68.5 22.5t69 -22.5t39 -80t17 -154.5t4 -245q0 -147 -4 -244.5t-17 -155t-39 -80t-69 -22.5t-68.5 22.5t-38.5 80t-17.5 155t-4.5 244.5zM47 731q0 -205 26.5 -349t88 -235.5t162 -130.5 t245.5 -39t245.5 39t162 130.5t88.5 235.5t27 349t-27 349.5t-88.5 235.5t-161.5 133t-246 42q-145 0 -245.5 -42t-162 -133t-88 -235.5t-26.5 -349.5z" />
<glyph unicode="&#xd4;" horiz-adv-x="1138" d="M373 1864l-127 -299h250l73 164l74 -164h250l-127 299h-393zM440 731q0 147 4.5 244.5t17.5 155t38.5 80t68.5 22.5t69 -22.5t39 -80t17 -154.5t4 -245q0 -147 -4 -244.5t-17 -155t-39 -80t-69 -22.5t-68.5 22.5t-38.5 80t-17.5 155t-4.5 244.5zM47 731q0 -205 26.5 -349 t88 -235.5t162 -130.5t245.5 -39t245.5 39t162 130.5t88.5 235.5t27 349t-27 349.5t-88.5 235.5t-161.5 133t-246 42q-145 0 -245.5 -42t-162 -133t-88 -235.5t-26.5 -349.5z" />
<glyph unicode="&#xd5;" horiz-adv-x="1138" d="M907 1864h-176q-4 -35 -18.5 -48.5t-36.5 -13.5q-23 0 -50.5 10.5t-60.5 20.5q-33 12 -66.5 21.5t-66.5 9.5q-88 0 -135 -73t-66 -214h177q0 27 12 44t35 17t48 -9t56 -21.5t67 -21.5t76 -9q74 0 131.5 66.5t73.5 220.5zM440 731q0 147 4.5 244.5t17.5 155t38.5 80 t68.5 22.5t69 -22.5t39 -80t17 -154.5t4 -245q0 -147 -4 -244.5t-17 -155t-39 -80t-69 -22.5t-68.5 22.5t-38.5 80t-17.5 155t-4.5 244.5zM47 731q0 -205 26.5 -349t88 -235.5t162 -130.5t245.5 -39t245.5 39t162 130.5t88.5 235.5t27 349t-27 349.5t-88.5 235.5t-161.5 133 t-246 42q-145 0 -245.5 -42t-162 -133t-88 -235.5t-26.5 -349.5z" />
<glyph unicode="&#xd6;" horiz-adv-x="1138" d="M618 1845v-286h275v286h-275zM246 1845v-286h274v286h-274zM440 731q0 147 4.5 244.5t17.5 155t38.5 80t68.5 22.5t69 -22.5t39 -80t17 -154.5t4 -245q0 -147 -4 -244.5t-17 -155t-39 -80t-69 -22.5t-68.5 22.5t-38.5 80t-17.5 155t-4.5 244.5zM47 731q0 -205 26.5 -349 t88 -235.5t162 -130.5t245.5 -39t245.5 39t162 130.5t88.5 235.5t27 349t-27 349.5t-88.5 235.5t-161.5 133t-246 42q-145 0 -245.5 -42t-162 -133t-88 -235.5t-26.5 -349.5z" />
<glyph unicode="&#xd7;" horiz-adv-x="1228" d="M119 811l293 -293l-293 -293l203 -202l292 292l293 -292l203 202l-293 293l293 293l-203 203l-293 -293l-292 293z" />
<glyph unicode="&#xd8;" horiz-adv-x="1138" d="M233 72l-55 -133l131 -52l47 113q88 -23 213 -23q145 0 245.5 39t162 130.5t88.5 235.5t27 349q0 260 -42 419t-143 245l54 135l-132 51l-47 -119q-96 29 -213 29q-145 0 -245.5 -42t-162 -133t-88 -235.5t-26.5 -349.5q0 -258 41 -417.5t145 -241.5zM473 299l221 563h4 v-131q0 -147 -4 -244.5t-17 -155t-39 -80t-69 -22.5q-35 0 -58.5 15.5t-37.5 54.5zM666 1165l-222 -565h-4v131q0 147 4.5 244.5t17.5 155t38.5 80t68.5 22.5q35 0 59 -15.5t38 -52.5z" />
<glyph unicode="&#xd9;" horiz-adv-x="1138" d="M293 1864l196 -299h238l-90 299h-344zM455 1462h-381v-958q0 -154 32.5 -256.5t95 -163.5t156 -84t211.5 -23q121 0 213 23t154.5 84t95.5 163.5t33 256.5v958h-381v-1054q0 -106 -30.5 -142.5t-84.5 -36.5q-53 0 -83.5 36t-30.5 143v1054z" />
<glyph unicode="&#xda;" horiz-adv-x="1138" d="M498 1864l-90 -299h237l197 299h-344zM455 1462h-381v-958q0 -154 32.5 -256.5t95 -163.5t156 -84t211.5 -23q121 0 213 23t154.5 84t95.5 163.5t33 256.5v958h-381v-1054q0 -106 -30.5 -142.5t-84.5 -36.5q-53 0 -83.5 36t-30.5 143v1054z" />
<glyph unicode="&#xdb;" horiz-adv-x="1138" d="M360 1864l-127 -299h250l74 164l74 -164h250l-127 299h-394zM455 1462h-381v-958q0 -154 32.5 -256.5t95 -163.5t156 -84t211.5 -23q121 0 213 23t154.5 84t95.5 163.5t33 256.5v958h-381v-1054q0 -106 -30.5 -142.5t-84.5 -36.5q-53 0 -83.5 36t-30.5 143v1054z" />
<glyph unicode="&#xdc;" horiz-adv-x="1138" d="M606 1845v-286h275v286h-275zM233 1845v-286h275v286h-275zM455 1462h-381v-958q0 -154 32.5 -256.5t95 -163.5t156 -84t211.5 -23q121 0 213 23t154.5 84t95.5 163.5t33 256.5v958h-381v-1054q0 -106 -30.5 -142.5t-84.5 -36.5q-53 0 -83.5 36t-30.5 143v1054z" />
<glyph unicode="&#xdd;" d="M473 1864l-90 -299h238l196 299h-344zM342 575v-575h381v575l373 887h-418l-143 -510h-5l-143 510h-412z" />
<glyph unicode="&#xde;" horiz-adv-x="1099" d="M457 586v356h71q147 0 148 -178q0 -92 -38 -135t-110 -43h-71zM76 1462v-1462h381v311h133q236 0 357.5 114t121.5 341q0 96 -24.5 178t-77 142.5t-132 95.5t-188.5 35h-190v245h-381z" />
<glyph unicode="&#xdf;" d="M63 0h357v1092q0 80 25.5 115.5t74.5 35.5t78 -39t29 -125q0 -70 -21.5 -108.5t-75.5 -38.5h-30v-248h41q59 0 86.5 -44t27.5 -155q0 -76 -6 -125t-19.5 -76.5t-34 -37.5t-48.5 -10q-14 0 -27 4l-24 8v-248l72 -4q36 -2 75 -2q104 0 177 22.5t118 78t65.5 143.5t20.5 215 q0 66 -9 128t-34 113t-67 85t-107 44v4q49 6 84 32t58.5 64t34.5 86t11 97q0 385 -446 385q-119 0 -210 -22.5t-152.5 -75t-92.5 -137.5t-31 -212v-1044z" />
<glyph unicode="&#xe0;" horiz-adv-x="1024" d="M248 1509l196 -299h238l-90 299h-344zM475 219q-41 0 -65.5 33t-24.5 88t16.5 89t59.5 54q41 18 74.5 23.5t50.5 28.5h4v-134q0 -92 -27 -137t-88 -45zM612 0h357q-23 43 -29 102.5t-6 137.5v540q0 109 -32 177.5t-90 108.5t-139 55.5t-177 15.5q-63 0 -137 -13.5 t-137.5 -53.5t-106.5 -112.5t-43 -193.5h319q2 88 26.5 117.5t78.5 29.5q94 0 94 -102q0 -51 -24.5 -79t-84.5 -42l-145 -35q-88 -20 -147.5 -50t-94.5 -72t-50 -99t-15 -135q0 -72 16 -131.5t53 -102.5t95.5 -64.5t142.5 -21.5q86 0 152.5 37t97.5 111h4q4 -35 8 -65.5 t14 -59.5z" />
<glyph unicode="&#xe1;" horiz-adv-x="1024" d="M453 1509l-91 -299h238l197 299h-344zM475 219q-41 0 -65.5 33t-24.5 88t16.5 89t59.5 54q41 18 74.5 23.5t50.5 28.5h4v-134q0 -92 -27 -137t-88 -45zM612 0h357q-23 43 -29 102.5t-6 137.5v540q0 109 -32 177.5t-90 108.5t-139 55.5t-177 15.5q-63 0 -137 -13.5 t-137.5 -53.5t-106.5 -112.5t-43 -193.5h319q2 88 26.5 117.5t78.5 29.5q94 0 94 -102q0 -51 -24.5 -79t-84.5 -42l-145 -35q-88 -20 -147.5 -50t-94.5 -72t-50 -99t-15 -135q0 -72 16 -131.5t53 -102.5t95.5 -64.5t142.5 -21.5q86 0 152.5 37t97.5 111h4q4 -35 8 -65.5 t14 -59.5z" />
<glyph unicode="&#xe2;" horiz-adv-x="1024" d="M315 1509l-127 -299h250l74 164l74 -164h250l-127 299h-394zM475 219q-41 0 -65.5 33t-24.5 88t16.5 89t59.5 54q41 18 74.5 23.5t50.5 28.5h4v-134q0 -92 -27 -137t-88 -45zM612 0h357q-23 43 -29 102.5t-6 137.5v540q0 109 -32 177.5t-90 108.5t-139 55.5t-177 15.5 q-63 0 -137 -13.5t-137.5 -53.5t-106.5 -112.5t-43 -193.5h319q2 88 26.5 117.5t78.5 29.5q94 0 94 -102q0 -51 -24.5 -79t-84.5 -42l-145 -35q-88 -20 -147.5 -50t-94.5 -72t-50 -99t-15 -135q0 -72 16 -131.5t53 -102.5t95.5 -64.5t142.5 -21.5q86 0 152.5 37t97.5 111h4 q4 -35 8 -65.5t14 -59.5z" />
<glyph unicode="&#xe3;" horiz-adv-x="1024" d="M850 1509h-176q-4 -35 -18.5 -48t-37.5 -13t-50 10t-60 21q-33 12 -66.5 21t-66.5 9q-88 0 -135 -72.5t-66 -213.5h176q0 27 12.5 44t34.5 17q23 0 48.5 -9t56 -21.5t66.5 -21.5t77 -9q74 0 131.5 66t73.5 220zM475 219q-41 0 -65.5 33t-24.5 88t16.5 89t59.5 54 q41 18 74.5 23.5t50.5 28.5h4v-134q0 -92 -27 -137t-88 -45zM612 0h357q-23 43 -29 102.5t-6 137.5v540q0 109 -32 177.5t-90 108.5t-139 55.5t-177 15.5q-63 0 -137 -13.5t-137.5 -53.5t-106.5 -112.5t-43 -193.5h319q2 88 26.5 117.5t78.5 29.5q94 0 94 -102 q0 -51 -24.5 -79t-84.5 -42l-145 -35q-88 -20 -147.5 -50t-94.5 -72t-50 -99t-15 -135q0 -72 16 -131.5t53 -102.5t95.5 -64.5t142.5 -21.5q86 0 152.5 37t97.5 111h4q4 -35 8 -65.5t14 -59.5z" />
<glyph unicode="&#xe4;" horiz-adv-x="1024" d="M561 1491v-287h275v287h-275zM188 1491v-287h275v287h-275zM475 219q-41 0 -65.5 33t-24.5 88t16.5 89t59.5 54q41 18 74.5 23.5t50.5 28.5h4v-134q0 -92 -27 -137t-88 -45zM612 0h357q-23 43 -29 102.5t-6 137.5v540q0 109 -32 177.5t-90 108.5t-139 55.5t-177 15.5 q-63 0 -137 -13.5t-137.5 -53.5t-106.5 -112.5t-43 -193.5h319q2 88 26.5 117.5t78.5 29.5q94 0 94 -102q0 -51 -24.5 -79t-84.5 -42l-145 -35q-88 -20 -147.5 -50t-94.5 -72t-50 -99t-15 -135q0 -72 16 -131.5t53 -102.5t95.5 -64.5t142.5 -21.5q86 0 152.5 37t97.5 111h4 q4 -35 8 -65.5t14 -59.5z" />
<glyph unicode="&#xe5;" horiz-adv-x="1024" d="M420 1440q0 39 26.5 65.5t65.5 26.5t65.5 -26.5t26.5 -65.5t-26.5 -65.5t-65.5 -26.5t-65.5 26.5t-26.5 65.5zM285 1440q0 -45 18.5 -87t49 -73t72.5 -49.5t87 -18.5q47 0 88 18.5t71.5 49.5t49 73t18.5 87q0 47 -18.5 88t-49 71.5t-71.5 49t-88 18.5q-45 0 -87 -18.5 t-72.5 -49t-49 -71.5t-18.5 -88zM475 219q-41 0 -65.5 33t-24.5 88t16.5 89t59.5 54q41 18 74.5 23.5t50.5 28.5h4v-134q0 -92 -27 -137t-88 -45zM612 0h357q-23 43 -29 102.5t-6 137.5v540q0 109 -32 177.5t-90 108.5t-139 55.5t-177 15.5q-63 0 -137 -13.5t-137.5 -53.5 t-106.5 -112.5t-43 -193.5h319q2 88 26.5 117.5t78.5 29.5q94 0 94 -102q0 -51 -24.5 -79t-84.5 -42l-145 -35q-88 -20 -147.5 -50t-94.5 -72t-50 -99t-15 -135q0 -72 16 -131.5t53 -102.5t95.5 -64.5t142.5 -21.5q86 0 152.5 37t97.5 111h4q4 -35 8 -65.5t14 -59.5z" />
<glyph unicode="&#xe6;" horiz-adv-x="1515" d="M600 535v-134q0 -92 -26.5 -137t-86.5 -45q-41 0 -65.5 33t-24.5 88t16.5 89t59.5 54q41 18 75 23.5t48 28.5h4zM84 764h319q2 88 27 117.5t78 29.5q92 0 92 -102q0 -51 -23.5 -79t-82.5 -42l-146 -35q-88 -20 -147.5 -50t-94 -72t-50 -99t-15.5 -135q0 -72 16.5 -131.5 t53 -102.5t95 -64.5t142.5 -21.5q117 0 198 36t138 147q23 -47 52.5 -82t73.5 -56.5t106.5 -33t152.5 -11.5q199 -2 305.5 103.5t102.5 308.5h-332q0 -113 -26.5 -152.5t-76.5 -39.5q-37 0 -67.5 29.5t-30.5 119.5v146h545v112q0 152 -24.5 253t-75 163.5t-126 89.5 t-180.5 27q-109 0 -175 -29t-113 -94q-53 61 -133 92t-154 31q-78 0 -153.5 -13.5t-136 -53.5t-97.5 -112.5t-37 -193.5zM1145 741v-49h-201v49q0 88 21.5 129t76.5 41q59 0 81 -41t22 -129z" />
<glyph unicode="&#xe7;" horiz-adv-x="985" d="M461 -23l-84 -155l51 -43q14 6 28.5 10t30.5 4q27 0 55.5 -12t28.5 -53q0 -29 -27.5 -49.5t-74.5 -20.5q-72 0 -139 33l-45 -115q47 -18 110.5 -29.5t122.5 -11.5q123 0 194.5 49t71.5 154q0 84 -57 123t-131 39q-29 0 -59 -11l47 91q184 14 274 108q53 59 75.5 151.5 t22.5 223.5h-331v-72q0 -104 -28 -143t-79 -39q-31 0 -52.5 15.5t-33.5 54t-17 105.5t-5 169t5 168.5t17 106.5t33.5 55.5t52.5 15.5q59 0 82 -47q12 -27 18.5 -69t6.5 -109h331q0 104 -19 189t-67.5 145.5t-129.5 94.5t-203 34q-104 0 -194.5 -20.5t-157 -84t-105.5 -182.5 t-39 -315q0 -168 29.5 -274.5t85 -168t133.5 -85.5t172 -30z" />
<glyph unicode="&#xe8;" horiz-adv-x="985" d="M229 1509l197 -299h238l-91 299h-344zM612 741v-49h-202v49q0 88 21.5 129t78.5 41q59 0 80.5 -41t21.5 -129zM410 492h546v112q0 152 -27.5 253t-84 163.5t-139 89.5t-193.5 27q-125 0 -214 -32t-146.5 -101.5t-84 -180t-26.5 -270.5q0 -158 23.5 -268.5t79 -179 t145.5 -98.5t223 -30q229 0 329.5 103.5t104.5 308.5h-332q0 -113 -27.5 -152.5t-76.5 -39.5q-39 0 -69.5 29.5t-30.5 119.5v146z" />
<glyph unicode="&#xe9;" horiz-adv-x="985" d="M434 1509l-90 -299h238l196 299h-344zM612 741v-49h-202v49q0 88 21.5 129t78.5 41q59 0 80.5 -41t21.5 -129zM410 492h546v112q0 152 -27.5 253t-84 163.5t-139 89.5t-193.5 27q-125 0 -214 -32t-146.5 -101.5t-84 -180t-26.5 -270.5q0 -158 23.5 -268.5t79 -179 t145.5 -98.5t223 -30q229 0 329.5 103.5t104.5 308.5h-332q0 -113 -27.5 -152.5t-76.5 -39.5q-39 0 -69.5 29.5t-30.5 119.5v146z" />
<glyph unicode="&#xea;" horiz-adv-x="985" d="M297 1509l-127 -299h250l74 164l73 -164h250l-127 299h-393zM612 741v-49h-202v49q0 88 21.5 129t78.5 41q59 0 80.5 -41t21.5 -129zM410 492h546v112q0 152 -27.5 253t-84 163.5t-139 89.5t-193.5 27q-125 0 -214 -32t-146.5 -101.5t-84 -180t-26.5 -270.5 q0 -158 23.5 -268.5t79 -179t145.5 -98.5t223 -30q229 0 329.5 103.5t104.5 308.5h-332q0 -113 -27.5 -152.5t-76.5 -39.5q-39 0 -69.5 29.5t-30.5 119.5v146z" />
<glyph unicode="&#xeb;" horiz-adv-x="985" d="M543 1491v-287h274v287h-274zM170 1491v-287h274v287h-274zM612 741v-49h-202v49q0 88 21.5 129t78.5 41q59 0 80.5 -41t21.5 -129zM410 492h546v112q0 152 -27.5 253t-84 163.5t-139 89.5t-193.5 27q-125 0 -214 -32t-146.5 -101.5t-84 -180t-26.5 -270.5 q0 -158 23.5 -268.5t79 -179t145.5 -98.5t223 -30q229 0 329.5 103.5t104.5 308.5h-332q0 -113 -27.5 -152.5t-76.5 -39.5q-39 0 -69.5 29.5t-30.5 119.5v146z" />
<glyph unicode="&#xec;" horiz-adv-x="528" d="M-6 1509l190 -299h238l-90 299h-338zM80 1108v-1108h369v1108h-369z" />
<glyph unicode="&#xed;" horiz-adv-x="528" d="M193 1509l-91 -299h238l197 299h-344zM80 1108v-1108h369v1108h-369z" />
<glyph unicode="&#xee;" horiz-adv-x="528" d="M55 1509l-121 -299h244l74 164l74 -164h249l-126 299h-394zM80 1108v-1108h369v1108h-369z" />
<glyph unicode="&#xef;" horiz-adv-x="528" d="M301 1491v-287h274v287h-274zM-66 1491v-287h269v287h-269zM80 1108v-1108h369v1108h-369z" />
<glyph unicode="&#xf0;" horiz-adv-x="1024" d="M279 1374l-146 -78l94 -141l172 92q53 -59 96.5 -113.5t65.5 -95.5l-4 -4q-35 23 -78 37t-90 14q-68 0 -130 -25.5t-111.5 -89t-78 -171t-28.5 -271.5q0 -150 23.5 -255t79 -171.5t145.5 -95.5t223 -29q156 0 249 45.5t142 128t64.5 194.5t15.5 241q0 236 -84 433.5 t-237 371.5l133 71l-90 142l-164 -88q-31 31 -67 61l-75 61l-223 -168q44 -37 103 -96zM410 553q0 86 4 142.5t16 90t31.5 48t50.5 14.5t51.5 -14.5t31.5 -48t15 -90t4 -142.5q0 -104 -4 -171t-15 -105.5t-31.5 -53t-51.5 -14.5t-50.5 14.5t-31.5 53t-16 105.5t-4 171z" />
<glyph unicode="&#xf1;" d="M870 1509h-176q-4 -35 -18 -48t-37 -13t-50.5 10l-60.5 21q-33 12 -66.5 21t-66.5 9q-88 0 -135 -72.5t-65 -213.5h176q0 27 12 44t35 17t48.5 -9t56 -21.5t66.5 -21.5t77 -9q74 0 131 66t73 220zM74 1108v-1108h368v731q0 70 20.5 100.5t69.5 30.5t70 -30.5t21 -100.5 v-731h368v836q0 90 -22.5 147t-61.5 92t-91 48.5t-114 13.5q-197 0 -268 -164h-4v135h-356z" />
<glyph unicode="&#xf2;" horiz-adv-x="1024" d="M248 1509l196 -299h238l-90 299h-344zM410 553q0 104 4 172t16 106.5t31.5 53t50.5 14.5t51.5 -14.5t31.5 -53t15 -106.5t4 -172t-4 -171t-15 -105.5t-31.5 -53t-51.5 -14.5t-50.5 14.5t-31.5 53t-16 105.5t-4 171zM983 553q0 121 -13.5 226.5t-60.5 185t-141 126 t-256 46.5q-156 0 -249 -50.5t-142 -132.5t-64.5 -186t-15.5 -213q0 -121 13.5 -226.5t60.5 -184t141 -123t256 -44.5q156 0 249 48.5t142 129.5t64.5 185t15.5 213z" />
<glyph unicode="&#xf3;" horiz-adv-x="1024" d="M453 1509l-91 -299h238l197 299h-344zM410 553q0 104 4 172t16 106.5t31.5 53t50.5 14.5t51.5 -14.5t31.5 -53t15 -106.5t4 -172t-4 -171t-15 -105.5t-31.5 -53t-51.5 -14.5t-50.5 14.5t-31.5 53t-16 105.5t-4 171zM983 553q0 121 -13.5 226.5t-60.5 185t-141 126 t-256 46.5q-156 0 -249 -50.5t-142 -132.5t-64.5 -186t-15.5 -213q0 -121 13.5 -226.5t60.5 -184t141 -123t256 -44.5q156 0 249 48.5t142 129.5t64.5 185t15.5 213z" />
<glyph unicode="&#xf4;" horiz-adv-x="1024" d="M315 1509l-127 -299h250l74 164l74 -164h250l-127 299h-394zM410 553q0 104 4 172t16 106.5t31.5 53t50.5 14.5t51.5 -14.5t31.5 -53t15 -106.5t4 -172t-4 -171t-15 -105.5t-31.5 -53t-51.5 -14.5t-50.5 14.5t-31.5 53t-16 105.5t-4 171zM983 553q0 121 -13.5 226.5 t-60.5 185t-141 126t-256 46.5q-156 0 -249 -50.5t-142 -132.5t-64.5 -186t-15.5 -213q0 -121 13.5 -226.5t60.5 -184t141 -123t256 -44.5q156 0 249 48.5t142 129.5t64.5 185t15.5 213z" />
<glyph unicode="&#xf5;" horiz-adv-x="1024" d="M850 1509h-176q-4 -35 -18.5 -48t-37.5 -13t-50 10t-60 21q-33 12 -66.5 21t-66.5 9q-88 0 -135 -72.5t-66 -213.5h176q0 27 12.5 44t34.5 17q23 0 48.5 -9t56 -21.5t66.5 -21.5t77 -9q74 0 131.5 66t73.5 220zM410 553q0 104 4 172t16 106.5t31.5 53t50.5 14.5 t51.5 -14.5t31.5 -53t15 -106.5t4 -172t-4 -171t-15 -105.5t-31.5 -53t-51.5 -14.5t-50.5 14.5t-31.5 53t-16 105.5t-4 171zM983 553q0 121 -13.5 226.5t-60.5 185t-141 126t-256 46.5q-156 0 -249 -50.5t-142 -132.5t-64.5 -186t-15.5 -213q0 -121 13.5 -226.5t60.5 -184 t141 -123t256 -44.5q156 0 249 48.5t142 129.5t64.5 185t15.5 213z" />
<glyph unicode="&#xf6;" horiz-adv-x="1024" d="M561 1491v-287h275v287h-275zM188 1491v-287h275v287h-275zM410 553q0 104 4 172t16 106.5t31.5 53t50.5 14.5t51.5 -14.5t31.5 -53t15 -106.5t4 -172t-4 -171t-15 -105.5t-31.5 -53t-51.5 -14.5t-50.5 14.5t-31.5 53t-16 105.5t-4 171zM983 553q0 121 -13.5 226.5 t-60.5 185t-141 126t-256 46.5q-156 0 -249 -50.5t-142 -132.5t-64.5 -186t-15.5 -213q0 -121 13.5 -226.5t60.5 -184t141 -123t256 -44.5q156 0 249 48.5t142 129.5t64.5 185t15.5 213z" />
<glyph unicode="&#xf7;" horiz-adv-x="1228" d="M412 84q0 -43 15 -77t43 -61.5t64.5 -43t79.5 -15.5t80 15.5t64.5 43t43 61.5t15.5 77q0 86 -58.5 144.5t-144.5 58.5t-144 -58.5t-58 -144.5zM412 952q0 -86 58 -144t144 -58t144.5 58t58.5 144t-58.5 144.5t-144.5 58.5t-144 -58.5t-58 -144.5zM96 662v-287h1037v287 h-1037z" />
<glyph unicode="&#xf8;" horiz-adv-x="1024" d="M156 90l-84 -137l110 -74l86 135q88 -37 244 -37t249 48.5t142 129.5t64.5 185t15.5 213q0 72 -4 138.5t-16.5 126t-36 110.5t-60.5 90l86 143l-114 74l-82 -139q-100 41 -244 41q-156 0 -249 -50.5t-142 -132.5t-64.5 -186t-15.5 -213q0 -143 20.5 -265t94.5 -200z M596 827l-184 -311q-2 4 -2 16v21q0 104 4 172t16 106.5t31.5 53t50.5 14.5q33 0 52.5 -15.5t31.5 -56.5zM430 285l180 309h4v-41q0 -104 -4 -171t-15 -105.5t-31.5 -53t-51.5 -14.5q-33 0 -52.5 16.5t-29.5 59.5z" />
<glyph unicode="&#xf9;" d="M268 1509l197 -299h237l-90 299h-344zM74 1108v-836q0 -88 22.5 -146t61.5 -92t91 -45.5t113 -11.5q199 0 269 158h4v-135h356v1108h-368v-731q0 -70 -20.5 -100.5t-70.5 -30.5q-49 0 -69.5 30.5t-20.5 100.5v731h-368z" />
<glyph unicode="&#xfa;" d="M473 1509l-90 -299h238l196 299h-344zM74 1108v-836q0 -88 22.5 -146t61.5 -92t91 -45.5t113 -11.5q199 0 269 158h4v-135h356v1108h-368v-731q0 -70 -20.5 -100.5t-70.5 -30.5q-49 0 -69.5 30.5t-20.5 100.5v731h-368z" />
<glyph unicode="&#xfb;" d="M336 1509l-127 -299h250l73 164l74 -164h250l-127 299h-393zM74 1108v-836q0 -88 22.5 -146t61.5 -92t91 -45.5t113 -11.5q199 0 269 158h4v-135h356v1108h-368v-731q0 -70 -20.5 -100.5t-70.5 -30.5q-49 0 -69.5 30.5t-20.5 100.5v731h-368z" />
<glyph unicode="&#xfc;" d="M582 1491v-287h274v287h-274zM209 1491v-287h274v287h-274zM74 1108v-836q0 -88 22.5 -146t61.5 -92t91 -45.5t113 -11.5q199 0 269 158h4v-135h356v1108h-368v-731q0 -70 -20.5 -100.5t-70.5 -30.5q-49 0 -69.5 30.5t-20.5 100.5v731h-368z" />
<glyph unicode="&#xfd;" horiz-adv-x="948" d="M416 1509l-90 -299h237l197 299h-344zM102 -88v-258q47 -4 97.5 -6t109.5 -2q74 0 131.5 14t101.5 51t75.5 99.5t56.5 158.5l297 1139h-369l-106 -748h-4l-113 748h-379l291 -1045l11 -43q5 -20 5 -32q0 -8 -6 -22.5t-20.5 -28t-38 -23.5t-58.5 -10q-20 0 -41 2t-41 6z " />
<glyph unicode="&#xfe;" d="M449 555q0 90 4 148.5t15 94.5t31.5 50t51.5 14q33 0 53.5 -14t31.5 -50t15 -94.5t4 -148.5t-4 -149.5t-15 -95.5t-31.5 -50t-53.5 -14q-31 0 -51.5 14t-31.5 50t-15 95.5t-4 149.5zM80 1462v-1816h369v479h4q29 -86 91 -117t140 -31q80 0 143.5 25t106.5 89.5t66.5 172 t23.5 266.5q0 307 -73.5 457t-258.5 150q-92 0 -148.5 -43t-90.5 -138h-4v506h-369z" />
<glyph unicode="&#xff;" horiz-adv-x="948" d="M524 1491v-287h275v287h-275zM152 1491v-287h274v287h-274zM102 -88v-258q47 -4 97.5 -6t109.5 -2q74 0 131.5 14t101.5 51t75.5 99.5t56.5 158.5l297 1139h-369l-106 -748h-4l-113 748h-379l291 -1045l11 -43q5 -20 5 -32q0 -8 -6 -22.5t-20.5 -28t-38 -23.5t-58.5 -10 q-20 0 -41 2t-41 6z" />
<glyph unicode="&#x152;" horiz-adv-x="1554" d="M428 731q0 147 4 244.5t17.5 155t40 80t71.5 22.5q43 0 68.5 -22.5t39 -80t17.5 -154.5t4 -245q0 -147 -4 -244.5t-17.5 -155t-39 -80t-68.5 -22.5q-45 0 -71.5 22.5t-40 80t-17.5 155t-4 244.5zM1047 311v291h426v299h-426v250h456v311h-768v-63q-53 51 -119.5 71.5 t-146.5 20.5q-113 0 -192.5 -38t-131 -127t-75 -234.5t-23.5 -360.5q0 -209 18.5 -354.5t65.5 -234.5t132 -127t216 -38q82 0 148.5 20.5t103.5 65.5h4v-63h787v311h-475z" />
<glyph unicode="&#x153;" horiz-adv-x="1515" d="M1477 389h-332q0 -113 -26.5 -152.5t-76.5 -39.5q-37 0 -67.5 29.5t-30.5 119.5v146h545v112q0 152 -24.5 253t-75 163.5t-126 89.5t-180.5 27q-111 0 -184.5 -37t-118.5 -88q-33 49 -111.5 87t-174.5 38q-127 0 -216.5 -33t-144.5 -102.5t-80.5 -180t-25.5 -268.5 q0 -162 25.5 -272.5t78.5 -179t136 -96.5t198 -28q98 0 175 28t124 104q33 -66 113.5 -99t191.5 -33q199 -2 305.5 103.5t102.5 308.5zM944 692v49q0 88 21.5 129t76.5 41q59 0 81 -41t22 -129v-49h-201zM395 553q0 104 4 172t16.5 106.5t32 53t50.5 14.5t51 -14.5t31.5 -53 t15.5 -106.5t4 -172t-4 -171t-15.5 -105.5t-32 -53t-50.5 -14.5q-31 0 -50.5 14.5t-32 53t-16.5 105.5t-4 171z" />
<glyph unicode="&#x178;" d="M582 1845v-286h274v286h-274zM209 1845v-286h274v286h-274zM342 575v-575h381v575l373 887h-418l-143 -510h-5l-143 510h-412z" />
<glyph unicode="&#x2c6;" horiz-adv-x="532" d="M70 1509l-121 -299h244l73 164l74 -164h250l-127 299h-393z" />
<glyph unicode="&#x2dc;" horiz-adv-x="532" d="M604 1509h-176q-4 -35 -18.5 -48t-36.5 -13q-23 0 -50.5 10l-60.5 21q-33 12 -66.5 21t-66.5 9q-88 0 -132 -72.5t-63 -213.5h170q0 27 12.5 44t35.5 17t48 -9t56 -21.5t66.5 -21.5t76.5 -9q74 0 131.5 66t73.5 220z" />
<glyph unicode="&#x2000;" horiz-adv-x="995" />
<glyph unicode="&#x2001;" horiz-adv-x="1990" />
<glyph unicode="&#x2002;" horiz-adv-x="995" />
<glyph unicode="&#x2003;" horiz-adv-x="1990" />
<glyph unicode="&#x2004;" horiz-adv-x="663" />
<glyph unicode="&#x2005;" horiz-adv-x="497" />
<glyph unicode="&#x2006;" horiz-adv-x="331" />
<glyph unicode="&#x2007;" horiz-adv-x="331" />
<glyph unicode="&#x2008;" horiz-adv-x="247" />
<glyph unicode="&#x2009;" horiz-adv-x="397" />
<glyph unicode="&#x200a;" horiz-adv-x="110" />
<glyph unicode="&#x2010;" horiz-adv-x="753" d="M57 748v-312h639v312h-639z" />
<glyph unicode="&#x2011;" horiz-adv-x="753" d="M57 748v-312h639v312h-639z" />
<glyph unicode="&#x2012;" horiz-adv-x="753" d="M57 748v-312h639v312h-639z" />
<glyph unicode="&#x2013;" horiz-adv-x="1024" d="M0 741v-299h1024v299h-1024z" />
<glyph unicode="&#x2014;" horiz-adv-x="2048" d="M0 741v-299h2048v299h-2048z" />
<glyph unicode="&#x2018;" horiz-adv-x="532" d="M94 1065v-369h344v394h-131v24q0 82 29 123t102 49v176q-184 -4 -264 -101t-80 -296z" />
<glyph unicode="&#x2019;" horiz-adv-x="532" d="M94 1462v-393h131v-25q0 -82 -28.5 -122.5t-102.5 -49.5v-176q184 4 264 101.5t80 296.5v368h-344z" />
<glyph unicode="&#x201a;" horiz-adv-x="532" d="M94 406v-394h131v-18q0 -82 -28.5 -123t-102.5 -49v-176q184 4 264 100t80 291v369h-344z" />
<glyph unicode="&#x201c;" horiz-adv-x="985" d="M86 1065v-369h344v394h-131v24q0 82 28.5 123t102.5 49v176q-184 -4 -264 -101t-80 -296zM555 1065v-369h344v394h-131v24q0 82 28.5 123t102.5 49v176q-184 -4 -264 -101t-80 -296z" />
<glyph unicode="&#x201d;" horiz-adv-x="985" d="M555 1462v-393h131v-25q0 -82 -28.5 -122.5t-102.5 -49.5v-176q184 4 264 101.5t80 296.5v368h-344zM86 1462v-393h131v-25q0 -82 -28.5 -122.5t-102.5 -49.5v-176q184 4 264 101.5t80 296.5v368h-344z" />
<glyph unicode="&#x201e;" horiz-adv-x="985" d="M555 406v-394h131v-18q0 -82 -28.5 -123t-102.5 -49v-176q184 4 264 100t80 291v369h-344zM86 406v-394h131v-18q0 -82 -28.5 -123t-102.5 -49v-176q184 4 264 100t80 291v369h-344z" />
<glyph unicode="&#x2022;" horiz-adv-x="1024" d="M147 731q0 -76 29 -142.5t78 -115.5t115.5 -77.5t142.5 -28.5t142.5 28.5t115.5 77.5t78 115.5t29 142.5t-29 142.5t-78 115.5t-115.5 78t-142.5 29t-142.5 -29t-115.5 -78t-78 -115.5t-29 -142.5z" />
<glyph unicode="&#x2026;" horiz-adv-x="2048" d="M1534 406v-406h344v406h-344zM852 406v-406h344v406h-344zM170 406v-406h344v406h-344z" />
<glyph unicode="&#x202f;" horiz-adv-x="397" />
<glyph unicode="&#x2039;" horiz-adv-x="491" d="M86 817v-450l320 -213v323l-173 115l173 115v323z" />
<glyph unicode="&#x203a;" horiz-adv-x="491" d="M86 477v-323l320 213v450l-320 213v-323l172 -115z" />
<glyph unicode="&#x205f;" horiz-adv-x="497" />
<glyph unicode="&#x20ac;" d="M899 1057l107 323q-88 39 -165 59.5t-173 20.5q-125 0 -212 -31.5t-143.5 -93t-85 -152.5t-37.5 -210h-61l-55 -201h108v-18v-84h-63l-56 -201h125q6 -115 30 -207t76 -156.5t137 -97.5t212 -33q98 0 174 18.5t154 78.5v370q-23 -39 -51.5 -79.5t-64.5 -74.5t-79 -55.5 t-92 -21.5q-53 0 -82 25.5t-41 64.5t-15 84t-5 84h215l55 201h-274v28v74h290l56 201h-344q0 43 4 86t20.5 76.5t48 55t86.5 21.5q74 0 121 -48t80 -107z" />
<glyph unicode="&#x2122;" horiz-adv-x="2048" d="M1700 1151v-533h262v844h-356l-183 -448l-182 448h-356v-844h262v533h4l184 -533h176l185 533h4zM233 1249v-631h287v631h213v213h-713v-213h213z" />
<glyph unicode="&#xe000;" horiz-adv-x="1110" d="M0 1110h1110v-1110h-1110v1110z" />
<glyph unicode="&#xfb01;" horiz-adv-x="1138" d="M127 860v-860h369v860h149v248h-149v68q0 41 26.5 59t61.5 18q20 0 33.5 -1t27.5 -5v232q-43 6 -89 9t-87 3q-96 0 -161.5 -16.5t-105.5 -52.5t-57.5 -93t-17.5 -141v-80h-127v-248h127zM690 1462v-274h369v274h-369zM690 1108v-1108h369v1108h-369z" />
<glyph unicode="&#xfb02;" horiz-adv-x="1138" d="M127 860v-860h369v860h149v248h-149v68q0 41 26.5 59t61.5 18q20 0 33.5 -1t27.5 -5v232q-43 6 -89 9t-87 3q-96 0 -161.5 -16.5t-105.5 -52.5t-57.5 -93t-17.5 -141v-80h-127v-248h127zM690 1462v-1462h369v1462h-369z" />
<glyph unicode="&#xfb03;" horiz-adv-x="1818" d="M1370 1462v-274h369v274h-369zM1370 1108v-1108h369v1108h-369zM772 860v-860h369v860h149v248h-149v68q0 41 26.5 59t61.5 18q20 0 33.5 -1t27.5 -5v232q-43 6 -89 9t-87 3q-96 0 -161.5 -16.5t-105.5 -52.5t-57.5 -93t-17.5 -141v-80h-127v-248h127zM127 860v-860h369 v860h149v248h-149v68q0 41 26.5 59t61.5 18q20 0 33.5 -1t27.5 -5v232q-43 6 -89 9t-87 3q-96 0 -161.5 -16.5t-105.5 -52.5t-57.5 -93t-17.5 -141v-80h-127v-248h127z" />
<glyph unicode="&#xfb04;" horiz-adv-x="1818" d="M1370 1462v-1462h369v1462h-369zM772 860v-860h369v860h149v248h-149v68q0 41 26.5 59t61.5 18q20 0 33.5 -1t27.5 -5v232q-43 6 -89 9t-87 3q-96 0 -161.5 -16.5t-105.5 -52.5t-57.5 -93t-17.5 -141v-80h-127v-248h127zM127 860v-860h369v860h149v248h-149v68 q0 41 26.5 59t61.5 18q20 0 33.5 -1t27.5 -5v232q-43 6 -89 9t-87 3q-96 0 -161.5 -16.5t-105.5 -52.5t-57.5 -93t-17.5 -141v-80h-127v-248h127z" />
</font>
</defs>
</svg>
