<?xml version="1.0" standalone="no"?>
<!DOCTYPE svg PUBLIC "-//W3C//DTD SVG 1.1//EN" "http://www.w3.org/Graphics/SVG/1.1/DTD/svg11.dtd" >
<svg xmlns="http://www.w3.org/2000/svg">
<metadata>
This is a custom SVG webfont generated by Font Squirrel.
Copyright   : Copyright c 1981 1982 1983 1989 and 1993 Linotype Library GmbH or its affiliated LinotypeHell companies All rights reservedThe digitally encoded machine readable software for producing the Typefaces licensed to you is now the property of Heidelberger Druckmaschinen AG and its licensors and may not be reproduced used displayed modified disclosed or transferred without the express written approval of Heidelberger Druckmaschinen AGCopyright c 1988 1990 1993 Adobe Systems Incorporated All Rights Reserved
Foundry URL : httpwwwLinotypeLibrarycom
</metadata>
<defs>
<font id="webfont0cGKHXrk" horiz-adv-x="1138" >
<font-face units-per-em="2048" ascent="1638" descent="-410" />
<missing-glyph horiz-adv-x="569" />
<glyph unicode=" "  horiz-adv-x="569" />
<glyph unicode="&#x09;" horiz-adv-x="569" />
<glyph unicode="&#xa0;" horiz-adv-x="569" />
<glyph unicode="!" horiz-adv-x="606" d="M530 1065l86 397h-309l-84 -397l-51 -627h143zM59 315l-65 -315h321l68 315h-324z" />
<glyph unicode="&#x22;" horiz-adv-x="985" d="M260 1462v-657h219v657h-219zM641 1462v-657h219v657h-219z" />
<glyph unicode="#" d="M483 844h197l-35 -254h-199zM223 406l-57 -406h199l57 406h196l-55 -406h199l55 406h178l21 184h-172l35 254h178l20 184h-172l56 406h-199l-55 -406h-199l57 406h-198l-58 -406h-174l-20 -184h170l-37 -254h-174l-21 -184h170z" />
<glyph unicode="$" d="M418 -27l-37 -184h100l35 178q102 0 203.5 26.5t181.5 86t130 153t50 224.5q0 109 -31.5 178.5t-86 115.5t-126 73.5t-149.5 52.5l68 362q53 -23 87 -70t29 -133h281q8 98 -16.5 174t-72.5 131.5t-114.5 90t-144.5 51.5l35 176h-99l-32 -162h-7q-106 0 -206.5 -25.5 t-177 -80t-122.5 -138.5t-46 -198q0 -102 29.5 -169t79.5 -112t118.5 -73.5t144.5 -55.5l23 -8l-82 -422q-82 14 -128 76.5t-42 200.5h-281q-4 -250 99.5 -373t306.5 -146zM662 1257l-66 -348q-70 23 -118 61t-48 107q0 47 20.5 81t52.5 55.5t69.5 32.5t74.5 11h15zM561 205 l78 401q29 -12 57.5 -27.5t52 -37t38 -52t14.5 -71.5q0 -57 -22.5 -98t-57.5 -67t-77 -37t-83 -11z" />
<glyph unicode="%" horiz-adv-x="1972" d="M1110 295q0 -141 76 -231.5t225 -90.5q100 0 178 40t131.5 107.5t81 156t27.5 182.5q0 156 -85 233.5t-239 77.5q-98 0 -173 -40t-124 -106.5t-73.5 -152.5t-24.5 -176zM1319 258q0 47 9 108.5t32.5 117t62.5 94t99 38.5q47 0 72.5 -35.5t25.5 -78.5t-10.5 -107.5 t-33 -124t-59 -102.5t-92.5 -43q-59 0 -82.5 38t-23.5 95zM1460 1479l-1102 -1522h177l1099 1522h-174zM358 950q0 47 9.5 108.5t33 117t62.5 94.5t98 39q47 0 72.5 -36t25.5 -79t-10 -107.5t-32.5 -124t-59.5 -102.5t-92 -43q-59 0 -83 38t-24 95zM150 987 q0 -141 75.5 -232t225.5 -91q100 0 178 40.5t131 108.5t80.5 156t27.5 182q0 156 -85 233.5t-238 77.5q-98 0 -173 -40t-124 -106.5t-73.5 -152.5t-24.5 -176z" />
<glyph unicode="&#x26;" horiz-adv-x="1402" d="M590 1135q0 76 48 112.5t110 36.5q55 0 92 -38t37 -101q0 -37 -21.5 -70t-53.5 -60.5t-68 -49t-66 -35.5q-29 47 -53.5 96.5t-24.5 108.5zM874 115l66 -115h320l-187 287q92 82 150.5 189.5t81.5 225.5h-261q-14 -57 -39.5 -110t-66.5 -96l-158 254q59 31 118.5 68.5 t108 85.5t79 107.5t30.5 135.5q0 84 -31.5 145.5t-84 103.5t-122 62.5t-145.5 20.5q-88 0 -161.5 -26t-128 -75t-84 -119.5t-29.5 -160.5q0 -70 31.5 -134.5t66.5 -123.5q-78 -31 -149.5 -73t-126 -98.5t-87 -129t-32.5 -164.5q0 -96 36.5 -171t99 -126t143.5 -78t169 -27 q117 0 209 34t184 108zM547 645l201 -326q-51 -41 -113 -74.5t-129 -33.5q-35 0 -70 11t-62.5 32.5t-44 52.5t-16.5 68q0 57 20.5 97t53.5 70.5t75 54.5z" />
<glyph unicode="'" horiz-adv-x="569" d="M225 1462v-657h219v657h-219z" />
<glyph unicode="(" horiz-adv-x="606" d="M793 1497h-256q-115 -143 -205 -280.5t-151.5 -280.5t-94.5 -303t-33 -350q0 -63 9.5 -150.5t25.5 -178.5t40 -176t52 -149h221q-31 135 -54 268.5t-23 268.5q0 182 23.5 347t77.5 324.5t144.5 321.5t223.5 338z" />
<glyph unicode=")" horiz-adv-x="606" d="M-227 -371h254q113 143 202.5 279.5t152 280t95.5 303t33 350.5q0 66 -10.5 151.5t-26.5 177t-39.5 177.5t-50.5 149h-221q31 -135 54.5 -269t23.5 -270q0 -182 -23.5 -347t-78 -324.5t-143.5 -321.5t-222 -336z" />
<glyph unicode="*" horiz-adv-x="833" d="M592 1192l49 262l-168 8l-35 -245l-223 112l-70 -149l222 -107l-183 -188l119 -115l176 199l113 -224l147 80l-116 215l245 37l-28 162z" />
<glyph unicode="+" horiz-adv-x="1228" d="M98 627v-219h408v-408h219v408h408v219h-408v407h-219v-407h-408z" />
<glyph unicode="," horiz-adv-x="569" d="M39 315l-64 -315h140q-16 -86 -54 -133t-127 -62l-30 -145q100 4 167.5 34t112.5 78t72 110.5t44 134t30.5 148.5t31.5 150h-323z" />
<glyph unicode="-" horiz-adv-x="833" d="M109 684l-54 -250h617l53 250h-616z" />
<glyph unicode="." horiz-adv-x="569" d="M41 315l-66 -315h322l68 315h-324z" />
<glyph unicode="/" horiz-adv-x="796" d="M567 1497l-569 -1530h231l572 1530h-234z" />
<glyph unicode="0" d="M283 463q0 51 7 127t23.5 160t44 169t68.5 152.5t96.5 109.5t126.5 42q55 0 95 -20.5t66 -55.5t37 -82t11 -100q0 -49 -7 -124t-24.5 -159t-46 -168t-69.5 -151.5t-97.5 -109.5t-130.5 -42q-59 0 -98 20.5t-61.5 54t-31.5 80t-9 97.5zM-6 522q0 -111 24.5 -210t78 -175 t140.5 -120t209 -44q121 0 219.5 41t176.5 111t136 164t96 198.5t56.5 216t18.5 216.5q0 121 -29.5 220t-89 170.5t-149.5 111.5t-211 40q-115 0 -210 -41t-170 -111.5t-131.5 -164.5t-92 -198.5t-54 -213.5t-18.5 -211z" />
<glyph unicode="1" d="M662 0l303 1434h-238q-39 -84 -89 -137.5t-110.5 -85t-131 -45t-150.5 -17.5l-47 -219h350l-197 -930h310z" />
<glyph unicode="2" d="M90 918h277q2 59 21.5 112t53 94t81.5 64.5t108 23.5q92 0 156.5 -46t64.5 -154q0 -72 -37 -125t-91 -95t-116.5 -75t-115.5 -64q-104 -55 -205 -114.5t-180.5 -134t-131 -173t-59.5 -231.5h1061l57 250h-706q55 59 137 110l172 104l181 107q91 55 163 122t117 150 t45 187q0 111 -38 193t-103.5 135t-151.5 78.5t-184 25.5q-248 0 -402 -142t-174 -402z" />
<glyph unicode="3" d="M481 854l-39 -205h105q86 0 144.5 -42t58.5 -136q0 -125 -80 -192.5t-197 -67.5q-129 0 -188.5 75.5t-44.5 205.5h-275q-16 -258 110 -388.5t390 -130.5q121 0 227.5 29t187.5 88.5t128 151.5t47 219q0 111 -45 184.5t-156 108.5v4q119 25 194.5 112.5t75.5 216.5 q0 104 -42 176t-108.5 116t-151.5 63.5t-171 19.5q-229 0 -375.5 -125t-179.5 -360h277q27 123 89 184.5t185 61.5q39 0 75 -10.5t62.5 -33t43 -55t16.5 -80.5q0 -57 -25.5 -94t-65.5 -58.5t-88.5 -29.5t-95.5 -8h-88z" />
<glyph unicode="4" d="M920 571l182 863h-283l-837 -838l-54 -264h664l-72 -332h277l71 332h191l51 239h-190zM643 571h-426l539 551h4z" />
<glyph unicode="5" d="M1087 1194l52 240h-848l-250 -799h262q43 63 98.5 92t130.5 29q117 0 180.5 -60.5t63.5 -183.5q0 -66 -22.5 -121t-61.5 -95t-91 -62.5t-112 -22.5q-104 0 -172.5 50t-70.5 157h-279q8 -231 141.5 -338t360.5 -107q129 0 238.5 40t189.5 114t125 180.5t45 239.5 q0 100 -33 179t-88 134t-126.5 85t-151.5 30q-55 0 -97.5 -6t-75 -18.5t-58 -29t-50.5 -36.5l-4 4l94 305h610z" />
<glyph unicode="6" d="M901 1063h281q-4 104 -40 180t-96.5 124t-141.5 71.5t-175 23.5q-166 0 -296 -71.5t-221 -194.5t-138 -288t-47 -353q0 -127 27.5 -233.5t89 -184.5t157.5 -121t234 -43q117 0 218 43t176 117t116.5 174.5t41.5 216.5q0 100 -29.5 181t-84.5 138.5t-134 88.5t-175 31 q-92 0 -176.5 -36t-139.5 -116l-4 4q23 70 52.5 145.5t72.5 138t104.5 103.5t145.5 41q80 0 130 -49t52 -131zM307 453q0 59 18.5 111t52.5 92t82 63.5t109 23.5q104 0 166 -59t62 -182q0 -125 -71 -208t-200 -83q-98 0 -158.5 69t-60.5 173z" />
<glyph unicode="7" d="M1157 1184l53 250h-1017l-58 -271h705q-113 -104 -223.5 -243.5t-204 -294t-165 -316.5t-108.5 -309h310q39 154 108.5 319.5t161.5 323.5t203.5 298.5t234.5 242.5z" />
<glyph unicode="8" d="M399 1042q0 94 63.5 147.5t176.5 53.5q45 0 86 -11t72.5 -34.5t50 -60.5t18.5 -88q0 -45 -19.5 -81t-52 -60.5t-74.5 -38t-87 -13.5q-37 0 -78 9t-76 32t-57.5 58.5t-22.5 86.5zM139 1042q0 -92 52.5 -161.5t125.5 -104.5v-4q-76 -18 -141 -49t-113.5 -77t-75 -108.5 t-26.5 -144.5q0 -92 39 -170t109.5 -133t168 -86t214.5 -31q111 0 215 31t186 89.5t131 143.5t49 195q0 53 -17.5 106.5t-48 97.5t-71.5 75.5t-86 42.5v4q61 12 112.5 44t87 76t56 96t20.5 103q0 80 -31.5 149.5t-90 122t-140.5 83t-184 30.5q-113 0 -212 -28.5t-172 -83 t-115 -132.5t-42 -176zM250 412q0 125 81 187.5t197 62.5q45 0 90.5 -14.5t82 -42t59 -70.5t22.5 -103q0 -113 -75.5 -177.5t-204.5 -64.5q-49 0 -94.5 15.5t-81 44.5t-56 70t-20.5 92z" />
<glyph unicode="9" d="M256 371h-279q4 -104 40 -180t95.5 -124.5t140.5 -71t175 -22.5q166 0 296 71t221 193.5t138 287.5t47 354q0 127 -27.5 233.5t-89 184t-157.5 121.5t-233 44q-117 0 -218.5 -43t-176 -117.5t-116.5 -176t-42 -216.5q0 -100 29.5 -181t85 -138.5t134 -88t175.5 -30.5 q92 0 176 36t139 116l4 -5q-23 -70 -52.5 -145.5t-72.5 -138t-104.5 -103.5t-145.5 -41q-80 0 -130 49.5t-52 131.5zM850 981q0 -57 -18.5 -110.5t-52.5 -93.5t-82 -63.5t-109 -23.5q-104 0 -166 59.5t-62 182.5q0 125 71 208t200 83q47 0 87 -18.5t69.5 -50.5t46 -76 t16.5 -97z" />
<glyph unicode=":" horiz-adv-x="569" d="M449 725l67 315h-323l-68 -315h324zM41 315l-66 -315h322l68 315h-324z" />
<glyph unicode=";" horiz-adv-x="569" d="M193 1040l-68 -315h324l67 315h-323zM39 315l-64 -315h140q-16 -86 -54 -133t-127 -62l-30 -145q100 4 167.5 34t112.5 78t72 110.5t44 134t30.5 148.5t31.5 150h-323z" />
<glyph unicode="&#x3c;" horiz-adv-x="1228" d="M1135 817v236l-1041 -414v-242l1041 -411v233l-752 299z" />
<glyph unicode="=" horiz-adv-x="1228" d="M1133 188v220h-1035v-220h1035zM1133 627v219h-1035v-219h1035z" />
<glyph unicode="&#x3e;" horiz-adv-x="1228" d="M94 219v-233l1041 411v242l-1041 414v-236l752 -299z" />
<glyph unicode="?" horiz-adv-x="1175" d="M319 315l-67 -315h323l68 315h-324zM152 1006h290q6 49 24.5 95t48.5 81t72 55t97 20q72 0 125 -38.5t53 -120.5q0 -72 -43 -121t-102 -84q-74 -39 -130.5 -76t-98.5 -84t-68.5 -114.5t-40.5 -167.5h270q12 109 78 170t156 108q57 33 108 70t90 84t62.5 104t23.5 131 q0 98 -36.5 170t-98 118t-142.5 68.5t-169 22.5q-117 0 -217.5 -30.5t-177 -92t-122.5 -153.5t-52 -215z" />
<glyph unicode="@" horiz-adv-x="1638" d="M1145 588l129 528h-168l-33 -110q-35 80 -104.5 111.5t-134.5 31.5q-100 0 -183.5 -45t-141.5 -119t-90 -168t-32 -190q0 -72 25.5 -135.5t69.5 -111.5t102.5 -76t124.5 -28t125 29t96 90h4q4 -51 44 -83.5t105 -32.5q49 0 130 33.5t160 105t135.5 184.5t56.5 270 q0 141 -59.5 257t-158 197t-227.5 126t-268 45q-160 0 -301 -59.5t-247.5 -161.5t-168 -242.5t-61.5 -302.5q0 -164 61.5 -304t169 -242.5t250.5 -160t307 -57.5q193 0 356.5 85t268.5 245h-172q-80 -80 -195.5 -124t-245.5 -44q-131 0 -242.5 43t-191.5 122t-125 188.5 t-45 244.5q0 129 41 240.5t117 192.5t183.5 127t238.5 46q115 0 215 -32.5t175 -97t118 -158t43 -216.5q0 -82 -21.5 -151.5t-55.5 -119.5t-76 -77.5t-85 -27.5q-18 0 -26.5 13t-8.5 34q0 20 5.5 44t11.5 44zM596 653q0 51 18.5 104.5t52 97.5t81 71.5t102.5 27.5 q66 0 112 -49t46 -125q0 -53 -18.5 -108.5t-52.5 -99.5t-80 -72.5t-101 -28.5q-72 0 -116 50t-44 132z" />
<glyph unicode="A" horiz-adv-x="1402" d="M707 1462l-863 -1462h338l185 326h546l48 -326h319l-244 1462h-329zM494 565l315 582h4l72 -582h-391z" />
<glyph unicode="B" horiz-adv-x="1478" d="M485 870l72 342h340q78 0 124 -31.5t46 -117.5q0 -96 -64.5 -144.5t-152.5 -48.5h-365zM299 1462l-305 -1462h778q111 0 211 30.5t178 90t124 149.5t46 209q0 106 -56 187.5t-161 109.5v4q66 8 116 39t86 77t54.5 104.5t18.5 119.5q0 104 -33 171t-94.5 105t-149.5 52 t-199 14h-614zM354 250l86 401h316q43 0 88 -4t82 -21.5t60.5 -50t23.5 -90.5q0 -117 -71 -176t-181 -59h-404z" />
<glyph unicode="C" horiz-adv-x="1517" d="M1139 954h321v12q0 126 -41 223q-43 101 -121.5 169.5t-187.5 103.5t-236 35q-184 0 -332.5 -71.5t-252 -193.5t-158.5 -281.5t-55 -338.5q0 -313 169 -479t480 -166q119 0 220.5 30t184 96.5t149.5 173t116 259.5h-322q-10 -57 -41 -110.5t-76 -93t-103 -63t-124 -23.5 q-88 0 -150.5 30.5t-102.5 82.5t-59.5 120t-19.5 143q0 104 29 214t87 199t149.5 145.5t214.5 56.5q117 0 189.5 -69t72.5 -204z" />
<glyph unicode="D" horiz-adv-x="1517" d="M371 270l196 922h242q86 0 146.5 -25.5t99.5 -72.5t56 -111.5t17 -144.5q0 -117 -33.5 -219.5t-98 -180.5t-160 -123t-218.5 -45h-247zM301 1462l-307 -1462h610q211 0 370 67.5t264 187.5t158.5 283.5t53.5 354.5q0 272 -155.5 420.5t-465.5 148.5h-528z" />
<glyph unicode="E" horiz-adv-x="1366" d="M299 1462l-305 -1462h1126l58 270h-807l75 359h736l53 250h-735l65 313h795l55 270h-1116z" />
<glyph unicode="F" horiz-adv-x="1214" d="M301 1462l-307 -1462h319l129 604h625l53 250h-626l71 338h717l59 270h-1040z" />
<glyph unicode="G" horiz-adv-x="1554" d="M1098 150v-150h202l168 791h-620l-51 -240h338q-20 -70 -52 -128t-80.5 -99t-115 -64.5t-158.5 -23.5q-88 0 -150.5 30.5t-102.5 82.5t-59.5 120t-19.5 143q0 104 29 214t87 199t149.5 145.5t214.5 56.5q135 0 212.5 -56.5t84.5 -191.5h321q0 135 -49 232.5t-133 161 t-196.5 94t-242.5 30.5q-184 0 -332.5 -71.5t-252 -193.5t-158.5 -281.5t-55 -338.5q0 -313 169 -479t480 -166q104 0 200.5 42t168.5 141h4z" />
<glyph unicode="H" horiz-adv-x="1517" d="M301 1462l-307 -1462h321l134 631h591l-133 -631h324l309 1462h-323l-119 -561h-592l119 561h-324z" />
<glyph unicode="I" horiz-adv-x="606" d="M301 1462l-307 -1462h321l310 1462h-324z" />
<glyph unicode="J" d="M940 416l217 1046h-323l-203 -977l-25 -95q-12 -46 -35.5 -80t-61.5 -54t-99 -20t-109.5 34.5t-48.5 102.5q0 35 9 80l20 92h-291q-10 -57 -18.5 -111.5t-8.5 -114.5q0 -96 37 -163.5t98.5 -109.5t141 -60.5t166.5 -18.5q238 0 361.5 116t172.5 333z" />
<glyph unicode="K" horiz-adv-x="1478" d="M297 1462l-303 -1462h321l97 463l223 194l334 -657h362l-448 860l702 602h-426l-663 -612h-4l126 612h-321z" />
<glyph unicode="L" horiz-adv-x="1175" d="M299 1462l-305 -1462h1028l57 270h-706l250 1192h-324z" />
<glyph unicode="M" horiz-adv-x="1857" d="M301 1462l-307 -1462h303l219 1163h4l142 -1163h245l619 1163h4l-266 -1163h301l309 1462h-449l-563 -1059h-4l-113 1059h-444z" />
<glyph unicode="N" horiz-adv-x="1517" d="M301 1462l-307 -1462h299l209 1026h4l401 -1026h322l309 1462h-295l-209 -1040h-4l-397 1040h-332z" />
<glyph unicode="O" horiz-adv-x="1593" d="M76 612q0 -313 169 -479t480 -166q193 0 341 73t249.5 197.5t155 288.5t53.5 344q0 154 -46 270.5t-130 196.5t-205 120t-269 40q-184 0 -332.5 -71.5t-252 -193.5t-158.5 -282t-55 -338zM397 612q0 104 29 214t87 199t149.5 145.5t214.5 56.5q90 0 151.5 -31t100 -82 t56 -119.5t17.5 -146.5q0 -104 -29.5 -213t-89 -198t-147.5 -145t-207 -56q-88 0 -150.5 30.5t-102.5 82.5t-59.5 119.5t-19.5 143.5z" />
<glyph unicode="P" horiz-adv-x="1366" d="M297 1462l-303 -1462h319l111 524h397q115 0 217.5 35t181 100.5t125 160.5t46.5 216t-38 203t-105.5 131t-161 70.5t-203.5 21.5h-586zM477 774l90 438h275q43 0 83 -8t72.5 -27.5t52 -55.5t19.5 -91q0 -131 -70.5 -193.5t-193.5 -62.5h-328z" />
<glyph unicode="Q" horiz-adv-x="1593" d="M1225 -160l172 144l-156 174q141 129 212 315t71 397q0 154 -46 270.5t-130 196.5t-205 120t-269 40q-184 0 -332.5 -71.5t-252 -193.5t-158.5 -281.5t-55 -338.5q0 -313 169 -479t480 -166q92 0 174 16.5t154 51.5zM913 528l-172 -141l115 -129q-63 -23 -127 -22 q-88 0 -150.5 30.5t-102.5 82.5t-59.5 120t-19.5 143q0 104 29 214t87 199t149.5 145.5t214.5 56.5q90 0 151.5 -31t100 -82t56 -119.5t17.5 -146.5q0 -123 -40 -248t-120 -217z" />
<glyph unicode="R" horiz-adv-x="1478" d="M483 801l86 411h305q47 0 90.5 -6t76 -24.5t52 -54t19.5 -95.5q0 -61 -27.5 -105t-73.5 -72t-105.5 -41t-125.5 -13h-297zM299 1462l-305 -1462h319l121 571h303q47 0 86 -7t67 -27.5t43 -54t15 -87.5q0 -74 -8 -148.5t-8 -148.5q0 -25 4 -48t10 -50h314q-12 33 -16.5 77 t-4.5 93q0 68 5 136.5t5 117.5q0 88 -30.5 158.5t-120.5 99.5v4q74 10 135 45t106 87t70 120t25 141q0 106 -31 180t-88.5 120t-137.5 66q-73 18 -161 17h-19h-698z" />
<glyph unicode="S" horiz-adv-x="1327" d="M315 485h-305q0 -268 150.5 -393t457.5 -125q104 0 211 25.5t192 83t139 149.5t54 224q0 98 -28.5 165.5t-80.5 114.5t-124 77t-158 52l-96 22q-59 13 -115.5 36.5t-96.5 59.5t-40 89q0 51 22.5 86t59.5 56.5t83 30.5t91 9q55 0 104.5 -11t85 -38t55.5 -69q18 -38 17 -91 v-12h305q0 127 -44 216t-118.5 146.5t-174 83t-211.5 25.5q-106 0 -210 -25.5t-186 -80t-133 -140.5t-51 -209q0 -94 31.5 -159.5t84 -110.5t118 -73.5t135.5 -49.5l134 -39q67 -18 119 -42.5t84.5 -58.5t32.5 -87q0 -55 -25.5 -94t-65.5 -63.5t-89 -37t-98 -12.5 q-70 0 -129.5 13.5t-102.5 44t-65 82.5q-19 44 -19 107q-1 11 0 23z" />
<glyph unicode="T" horiz-adv-x="1251" d="M569 1192l-250 -1192h324l250 1192h438l58 270h-1221l-57 -270h458z" />
<glyph unicode="U" horiz-adv-x="1517" d="M1358 612l178 850h-322l-182 -866q-18 -82 -39.5 -149.5t-59.5 -113.5t-99.5 -71.5t-159.5 -25.5q-84 0 -137.5 20t-84 50t-42 65t-11.5 61q0 18 3.5 42t8.5 50.5t10 49.5l9 42l178 846h-321l-178 -846l-21 -107q-10 -54 -10 -110q0 -121 50 -203.5t131 -133t184.5 -73 t209.5 -22.5q170 0 289 42t201 123t132 201.5t83 278.5z" />
<glyph unicode="V" horiz-adv-x="1290" d="M678 0l780 1462h-334l-555 -1097h-4l-96 1097h-322l168 -1462h363z" />
<glyph unicode="W" horiz-adv-x="1933" d="M1389 0l686 1462h-322l-446 -1067h-4l-37 1067h-308l-462 -1071h-4l-21 1071h-321l100 -1462h323l455 1044h4l37 -1044h320z" />
<glyph unicode="X" horiz-adv-x="1366" d="M522 770l-663 -770h387l418 522l229 -522h354l-362 756l608 706h-381l-375 -483l-207 483h-350z" />
<glyph unicode="Y" horiz-adv-x="1327" d="M475 567l-117 -567h324l113 553l712 909h-379l-454 -622l-219 622h-330z" />
<glyph unicode="Z" horiz-adv-x="1327" d="M-31 266l-55 -266h1229l53 270h-825l985 934l53 258h-1155l-59 -270h749z" />
<glyph unicode="[" horiz-adv-x="681" d="M317 1497l-391 -1868h527l49 230h-258l297 1409h256l49 229h-529z" />
<glyph unicode="\" horiz-adv-x="796" d="M801 -33l-572 1530h-231l569 -1530h234z" />
<glyph unicode="]" horiz-adv-x="681" d="M299 -371l393 1868h-528l-49 -229h258l-297 -1409h-254l-49 -230h526z" />
<glyph unicode="^" horiz-adv-x="1228" d="M477 1434l-352 -789h240l249 563l250 -563h240l-352 789h-275z" />
<glyph unicode="_" horiz-adv-x="1024" d="M0 -152v-102h1024v102h-1024z" />
<glyph unicode="`" horiz-adv-x="530" d="M541 1190l-181 291h-311l287 -291h205z" />
<glyph unicode="a" horiz-adv-x="1175" d="M123 737h272q14 80 75.5 118t139.5 38q29 0 60.5 -5t59.5 -19.5t46.5 -39t18.5 -65.5q0 -51 -25 -76.5t-75 -39t-125.5 -19.5t-178.5 -19q-193 -23 -298 -115t-105 -245q0 -55 20.5 -105.5t63.5 -88.5t107.5 -60.5t150.5 -22.5q92 0 178 32t145 99v-104h291 q-10 35 -10 61q0 31 3 73t11 71l94 426q23 103 23 186q0 84 -40 136q-42 54 -107.5 84t-143.5 40t-149 10q-90 0 -174 -17t-152 -58t-115 -108t-61 -167zM737 508l-28 -102q-12 -43 -31 -86.5t-50.5 -77t-77.5 -55t-114 -21.5q-63 0 -111.5 29.5t-48.5 89.5q0 49 18.5 80.5 t48.5 50t69 28t80 13.5q63 4 126.5 11t118.5 40z" />
<glyph unicode="b" horiz-adv-x="1251" d="M283 1462l-306 -1462h267l35 166h4q39 -111 130 -152t201 -41q135 0 237.5 57.5t172.5 150.5t104.5 213t34.5 243q0 92 -21.5 174t-67.5 143.5t-117.5 97t-174.5 35.5q-104 0 -174.5 -33.5t-138.5 -107.5h-4l108 516h-290zM666 868q113 0 159.5 -67.5t46.5 -167.5 q0 -68 -17 -145.5t-55 -144.5t-96.5 -110t-142.5 -43q-100 0 -155.5 62.5t-55.5 161.5q0 70 17.5 149.5t55.5 147t97.5 112.5t145.5 45z" />
<glyph unicode="c" d="M803 692h291q-2 104 -40 180t-102.5 123t-150.5 69.5t-183 22.5q-143 0 -253.5 -52t-187.5 -143t-117 -211t-40 -255q0 -233 124 -343t348 -110q209 0 345 107.5t201 306.5h-290q-12 -39 -32 -75t-49.5 -62.5t-67.5 -43t-87 -16.5q-55 0 -93 18.5t-62.5 49.5t-35 73 t-10.5 89q0 68 15.5 146.5t50.5 146t92 111.5t139 44q98 0 146.5 -41t48.5 -135z" />
<glyph unicode="d" horiz-adv-x="1251" d="M629 868q106 0 157.5 -62.5t51.5 -166.5q0 -68 -19.5 -146.5t-59.5 -146t-99.5 -112t-141.5 -44.5q-51 0 -90 19.5t-64.5 51.5t-39 75t-13.5 90q0 70 18.5 147.5t57.5 143t99.5 108.5t142.5 43zM745 131l-28 -131h280l310 1462h-291l-117 -544h-4q-35 88 -120 128.5 t-177 40.5q-147 0 -256 -60t-180.5 -158.5t-106.5 -223.5t-35 -256q0 -193 105.5 -304.5t298.5 -111.5q98 0 183 38t134 124z" />
<glyph unicode="e" horiz-adv-x="1175" d="M817 643h-485q16 45 39.5 86t58.5 71.5t82 49t109 18.5q63 0 102 -19.5t59.5 -52t27.5 -72.5t7 -81zM301 459h780q16 88 17 166q0 115 -36 201.5t-100.5 145t-155.5 87t-202 28.5q-135 0 -243.5 -54t-183.5 -145t-116 -209t-41 -245q0 -115 34 -201t95.5 -144t148.5 -87 t194 -29q115 0 201.5 22.5t152 69t113 114t81.5 157.5h-290l-36 -51q-19 -27 -45 -47.5t-60 -34t-77 -13.5q-119 0 -176 57.5t-57 149.5v27v16q0 9 2 19z" />
<glyph unicode="f" horiz-adv-x="720" d="M217 864l-182 -864h291l182 864h209l41 195h-207l20.5 83t23.5 61.5t44 38.5t84 13q23 0 47 -2l47 -4l45 209q-47 8 -95 12.5t-95 4.5q-115 0 -185.5 -27t-113.5 -80t-67.5 -130t-45.5 -179h-174l-41 -195h172z" />
<glyph unicode="g" horiz-adv-x="1251" d="M997 55l211 1004h-278l-33 -162h-4q-45 104 -129 147t-195 43q-127 0 -226 -56t-168 -147t-104.5 -205t-35.5 -230q0 -98 28.5 -177t81 -136.5t128 -88.5t169.5 -31q178 0 291 150l4 -4l-45 -143.5t-55 -116.5t-79 -78t-116 -29q-35 0 -69.5 8.5t-62 26.5t-44 47 t-14.5 70h-289q0 -96 40 -162t104.5 -106.5t145.5 -59t161 -18.5q131 0 228 26.5t168 81.5t115.5 141t71.5 205zM623 868q106 0 157 -64.5t51 -164.5q0 -68 -19 -139.5t-57 -130t-96.5 -96t-136.5 -37.5q-51 0 -88 18t-61.5 51t-35.5 75t-11 89q0 63 19.5 134t56 129.5 t92 97t129.5 38.5z" />
<glyph unicode="h" horiz-adv-x="1251" d="M281 1462l-304 -1462h289l119 563q12 55 35.5 108.5t59.5 94.5t86 66.5t116 25.5q51 0 95 -30.5t44 -77.5q0 -23 -7 -64l-11 -65l-129 -621h291l131 621q2 14 7 37.5t10 50t9 52t4 42.5q0 285 -309 284q-72 0 -129 -15t-100 -37.5t-74 -49.5t-47 -49h-4l108 526h-290z " />
<glyph unicode="i" horiz-adv-x="530" d="M526 1223l54 239h-293l-54 -239h293zM201 1059l-224 -1059h291l226 1059h-293z" />
<glyph unicode="j" horiz-adv-x="530" d="M526 1223l54 239h-293l-54 -239h293zM-219 -127l-49 -233q35 -2 70.5 -6.5t70.5 -4.5q98 0 163.5 20.5t111 61.5t72 104.5t44.5 147.5l232 1096h-291l-209 -1002q-6 -20 -12.5 -52t-18.5 -62.5t-30.5 -52t-49.5 -21.5q-27 0 -52 1t-52 3z" />
<glyph unicode="k" d="M283 1462l-306 -1462h289l72 344l151 129l175 -473h319l-272 657l475 402h-359l-417 -395l-4 4l167 794h-290z" />
<glyph unicode="l" horiz-adv-x="530" d="M287 1462l-310 -1462h289l312 1462h-291z" />
<glyph unicode="m" horiz-adv-x="1857" d="M197 1059l-220 -1059h289l119 567q10 49 32.5 100.5t56.5 93.5t80 69.5t103 27.5q55 0 91 -32.5t36 -80.5q0 -35 -8 -75l-139 -670h293l119 567q10 49 32.5 100.5t56 93.5t80 69.5t103.5 27.5q55 0 91 -32.5t36 -80.5q0 -35 -8 -75l-140 -670h291l131 623l21 97 q10 50 10 99q0 68 -26.5 119t-71.5 84t-103.5 49t-119.5 16q-51 0 -103.5 -13t-99.5 -37.5t-88 -58.5t-68 -75q-18 98 -88 141t-168 43q-117 0 -211 -43t-160 -135h-4l33 150h-278z" />
<glyph unicode="n" horiz-adv-x="1251" d="M197 1059l-220 -1059h289l119 563q12 55 35.5 108.5t59.5 94.5t86 66.5t116 25.5q51 0 95 -30.5t44 -77.5q0 -23 -7 -64l-11 -65l-129 -621h291l131 621q2 14 7 37.5t10 50t9 52t4 42.5q0 285 -309 284q-229 0 -371 -176h-4l33 148h-278z" />
<glyph unicode="o" horiz-adv-x="1214" d="M311 428q0 68 18.5 144.5t55.5 142t95.5 109.5t137.5 44q117 0 165 -63.5t48 -169.5q0 -68 -18 -145.5t-56 -144t-96.5 -111t-140.5 -44.5q-51 0 -90 19.5t-65.5 52.5t-40 76t-13.5 90zM20 428q0 -227 132.5 -341t353.5 -114q145 0 259 51.5t193.5 141.5t121.5 212 t42 261q0 115 -35.5 199t-101 139t-157 82.5t-199.5 27.5q-141 0 -254 -52t-192 -142t-121 -210t-42 -255z" />
<glyph unicode="p" horiz-adv-x="1251" d="M184 1059l-303 -1430h289l111 512h6q16 -43 48 -74.5t71.5 -52t86 -31t91.5 -10.5q147 0 254.5 59.5t179.5 158t106.5 223.5t34.5 256q0 193 -104.5 305t-296.5 112q-98 0 -183.5 -38.5t-134.5 -124.5l-4 4l29 131h-281zM662 868q51 0 90 -19.5t64.5 -51t38.5 -74.5 t13 -90q0 -70 -18.5 -147.5t-57 -143.5t-98 -109t-143.5 -43q-106 0 -157.5 62.5t-51.5 167.5q0 68 19.5 146.5t59.5 146t99.5 111.5t141.5 44z" />
<glyph unicode="q" horiz-adv-x="1251" d="M631 868q100 0 155.5 -62.5t55.5 -160.5q0 -72 -19.5 -151.5t-59.5 -147t-99.5 -112t-137.5 -44.5q-59 0 -100 18.5t-66.5 50.5t-37 75t-11.5 92q0 68 18.5 145.5t56.5 144t98.5 109.5t146.5 43zM907 -371l301 1430h-268l-35 -166h-4q-39 111 -130 152.5t-202 41.5 q-135 0 -237.5 -58t-172 -151.5t-104.5 -213t-35 -242.5q0 -92 23 -174t70 -143.5t120.5 -96.5t176.5 -35q111 0 181.5 30t117.5 81h4l-97 -455h291z" />
<glyph unicode="r" horiz-adv-x="796" d="M197 1059l-220 -1059h289l99 469q14 68 37.5 130.5t63.5 111.5t98.5 77.5t142.5 28.5q31 0 61 -6l61 -12l60 282q-45 6 -90 6q-117 0 -216.5 -56t-148.5 -167l-4 4l43 191h-276z" />
<glyph unicode="s" horiz-adv-x="1062" d="M721 750h270v11q0 95 -33 157q-35 66 -95 103.5t-140 51.5t-166 14q-76 0 -159 -17t-152.5 -57t-113.5 -103.5t-44 -157.5q0 -63 15.5 -106.5t45 -74t71.5 -51t97 -39.5l224 -71q47 -16 75.5 -39t28.5 -78q0 -37 -16.5 -60.5t-43 -39t-59 -21.5t-65.5 -6q-37 0 -75 9 t-67.5 26.5t-48 44t-18.5 63.5v35h-268v-43q0 -94 41 -156.5t105.5 -100.5t144 -54.5t157.5 -16.5q92 0 182.5 18.5t162 61.5t115.5 111.5t44 167.5q0 66 -21.5 115t-59.5 84.5t-88 60t-110 43.5l-145 47q-74 23 -103.5 47.5t-29.5 58.5q0 57 50 81t128 24q86 0 124 -37.5 t40 -105.5z" />
<glyph unicode="t" horiz-adv-x="757" d="M569 1059l66 321h-291l-65 -321h-187l-45 -195h191l-119 -567q-6 -29 -10.5 -54.5t-4.5 -45.5v-11q0 -58 22 -96q24 -41 63.5 -64.5t90 -32.5t101.5 -9q47 0 92 3t90 7l49 223q-51 -6 -104 -6q-16 0 -33.5 1t-32 9t-23.5 23.5t-9 44.5q0 6 2 19.5t6 29.5l108 526h207 l45 195h-209z" />
<glyph unicode="u" horiz-adv-x="1251" d="M979 0l221 1059h-291l-118 -563q-12 -55 -36 -108.5t-60 -94.5t-86 -66.5t-115 -25.5q-51 0 -95.5 30.5t-44.5 77.5q0 10 1 27.5t4 36.5l7 36q3 17 7 29l129 621h-291l-131 -621q-4 -14 -9 -37.5l-10.5 -50t-8.5 -52.5t-3 -42q0 -283 309 -283q229 0 371 174h4l-33 -147 h279z" />
<glyph unicode="v" horiz-adv-x="1062" d="M532 0l580 1059h-307l-375 -754h-4l-66 754h-299l140 -1059h331z" />
<glyph unicode="w" horiz-adv-x="1669" d="M1155 0l553 1059h-307l-340 -740h-4l-33 740h-295l-326 -746h-4l-41 746h-297l117 -1059h305l328 743h4l37 -743h303z" />
<glyph unicode="x" horiz-adv-x="1062" d="M647 551l440 508h-325l-240 -305l-116 305h-312l240 -492l-490 -567h328l283 348l153 -348h307z" />
<glyph unicode="y" horiz-adv-x="1062" d="M438 -147l674 1206h-307l-367 -758h-4l-92 758h-299l188 -1049q-14 -18 -27.5 -42.5t-32.5 -46t-50 -37t-82 -15.5q-29 0 -58.5 6t-58.5 6l-49 -241q39 -2 78 -6.5t76 -4.5q82 0 142 9.5t107.5 34t86 68.5t75.5 112z" />
<glyph unicode="z" horiz-adv-x="1024" d="M-57 215l-45 -215h958l47 219h-584l666 625l45 215h-889l-47 -219h510z" />
<glyph unicode="{" horiz-adv-x="681" d="M795 1268l47 229h-260q-35 0 -82 -17.5t-93.5 -51t-83 -86t-51.5 -121.5l-79 -385q-10 -51 -38 -87t-62 -57.5t-67.5 -31t-58.5 -9.5l-37 -178q20 0 48 -7t51.5 -23.5t40 -43t16.5 -63.5q0 -8 -1 -15.5t-3 -17.5l-82 -397q-6 -31 -6 -58q0 -55 19.5 -96t48 -68.5 t64.5 -41t67 -13.5h260l47 230h-111q-47 0 -66.5 21.5t-19.5 49.5q0 18 2 39t6 37l68 328q6 35 6 63q0 45 -18.5 75t-44 48.5t-53 27.5t-46.5 11v6q25 2 62 12.5t74.5 36t69.5 71.5t48 122l66 311q10 59 41.5 104.5t99.5 45.5h111z" />
<glyph unicode="|" horiz-adv-x="454" d="M119 1610v-2046h219v2046h-219z" />
<glyph unicode="}" horiz-adv-x="681" d="M-176 -141l-47 -230h258q35 0 82 17.5t93 51.5t83 86t51 122l80 383q10 53 37.5 88t61.5 56.5t69 30.5t59 9l37 178q-23 0 -50.5 7.5t-51 23.5t-40 43t-16.5 63q0 8 1 15.5t4 17.5l83 400q6 31 7 57q0 55 -19.5 96t-50.5 68.5t-65.5 41t-65.5 13.5h-260l-47 -229h110 q47 0 66.5 -21.5t19.5 -50.5q0 -18 -2 -38.5t-6 -39.5l-67 -327q-6 -33 -7 -64q0 -45 18.5 -75.5t44 -49t53.5 -27t46 -10.5v-6q-25 -4 -61.5 -13t-74.5 -35t-70.5 -72t-47.5 -122l-65 -311q-10 -57 -42 -102t-98 -45h-110z" />
<glyph unicode="~" horiz-adv-x="1228" d="M1092 514l-82 191l-37 -54q-18 -27 -40 -47t-47.5 -33.5t-56.5 -13.5q-41 0 -96 25l-112 49q-59 27 -117 46t-111 19q-51 0 -91 -15t-71.5 -40t-54 -56.5t-39.5 -64.5l82 -190q12 27 27.5 53.5t37 47t48 33.5t59.5 13q72 0 129.5 -21.5t106.5 -49.5q51 -29 101 -48.5 t108 -19.5q47 0 84.5 15.5t68.5 40t55.5 56t47.5 64.5z" />
<glyph unicode="&#xa1;" horiz-adv-x="606" d="M483 772l68 315h-324l-67 -315h323zM10 23l-84 -396h307l84 396l52 626h-144z" />
<glyph unicode="&#xa2;" d="M395 -18l-45 -220h101l45 211h4q221 0 350 100.5t190 313.5h-290q-23 -72 -72 -129t-135 -68l139 670q123 -25 123 -168h291q-2 90 -31 158t-78 116t-115.5 75.5t-144.5 37.5l39 185h-100l-37 -177h-8q-143 0 -254 -52t-188 -143t-116.5 -211t-39.5 -255 q0 -205 96 -314.5t276 -129.5zM582 868l-140 -665q-72 20 -100.5 79.5t-28.5 137.5q0 66 14.5 140.5t46.5 140t83 112.5t125 55z" />
<glyph unicode="&#xa3;" d="M-20 164l83 -197q63 37 115.5 56.5t126.5 19.5q51 0 105 -12l106 -26l106 -25q52 -12 99 -13q100 0 177 23.5t163 79.5l-84 219q-41 -31 -93.5 -52.5t-103.5 -21.5q-37 0 -72.5 7t-70.5 16.5t-70 16.5t-71 7q-45 0 -88 -8t-82 -25l-4 4q92 66 143 146t51 201v28 q0 18 -2 29h234l34 174h-288q-14 35 -25.5 95.5t-11.5 111.5q0 106 60.5 172.5t170.5 66.5q115 0 157 -77.5t38 -204.5h280q10 264 -115.5 393t-359.5 129q-104 0 -200.5 -29.5t-171 -88t-119.5 -144.5t-45 -197q0 -20 4 -50t10 -61.5t14 -62t17 -53.5h-131l-37 -174h198 q4 -29 6.5 -57.5t2.5 -63.5q0 -61 -24 -111.5t-60.5 -92.5t-82.5 -78z" />
<glyph unicode="&#xa4;" d="M573 1006q59 0 104.5 -25t76 -64.5t46 -92t15.5 -105.5q0 -55 -15.5 -107.5t-46 -93.5t-75.5 -65.5t-107 -24.5q-61 0 -107 23.5t-79 63.5t-49.5 92t-16.5 108q0 57 16.5 109.5t48.5 92t80 64.5t109 25zM158 424l-117 -119l115 -115l114 119q53 -49 131 -74.5t170 -25.5 q86 0 164 26.5t129 75.5l117 -118l113 112l-113 115q47 57 70.5 135t23.5 164t-23.5 165t-68.5 128l115 112l-125 125l-119 -116q-47 41 -123 66.5t-158 25.5q-86 0 -166.5 -25.5t-132.5 -69.5l-116 115l-117 -117l117 -118q-51 -51 -75 -130t-24 -165q1 -176 99 -291z" />
<glyph unicode="&#xa5;" d="M326 283l-60 -283h312l59 283h317l41 194h-321l24 92l43 62h285l41 194h-190l444 637h-338l-387 -637h-4l-121 637h-338l180 -637h-192l-41 -194h289l16 -62l-18 -92h-318l-41 -194h318z" />
<glyph unicode="&#xa6;" horiz-adv-x="454" d="M338 842v512h-219v-512h219zM119 330v-510h219v510h-219z" />
<glyph unicode="&#xa7;" horiz-adv-x="1214" d="M276 35h-260q-4 -100 28 -176t91.5 -127t141 -77t178.5 -26q88 0 172 23.5t148.5 70t104.5 115t40 158.5q0 45 -15.5 93t-46.5 83q47 12 95 38t86 65.5t62.5 94t24.5 124.5q0 106 -59 182t-141 137l-189 135q-20 12 -47.5 34t-52.5 47.5t-42 54t-17 55.5q0 66 45 102.5 t112 36.5q82 0 120 -49t34 -121h260q12 98 -16.5 171t-85 121t-135 71.5t-169.5 25.5q-76 0 -157.5 -21.5t-147 -65.5t-108.5 -109.5t-43 -151.5q0 -57 15 -91t50 -81q-63 -8 -117.5 -36t-93.5 -70t-60.5 -96t-21.5 -120q0 -94 53.5 -171.5t131.5 -131.5l207 -149 q25 -16 55.5 -40t58 -51.5t46 -58t18.5 -61.5q0 -41 -15.5 -68.5t-41 -44t-58.5 -24t-68 -7.5q-86 0 -131 55.5t-39 131.5zM584 403l-148 121l-44 37t-37.5 35t-26 43t-9.5 59q0 53 41 91t91 38q29 0 45 -4t30.5 -12t28.5 -22.5t37 -32.5l129 -109l50 -41q26 -20 47.5 -43.5 t34.5 -51.5t13 -65q0 -59 -43 -95t-98 -36q-20 0 -39.5 9.5t-38 23.5t-35 28.5t-28.5 26.5z" />
<glyph unicode="&#xa8;" horiz-adv-x="530" d="M84 1462l-49 -239h268l49 239h-268zM485 1462l-49 -239h269l49 239h-269z" />
<glyph unicode="&#xa9;" horiz-adv-x="1638" d="M1221 604h-166q-10 -74 -65.5 -117t-141.5 -43q-55 0 -100.5 24t-77 63.5t-49 94t-17.5 113.5q0 129 61.5 210t178.5 81q80 0 137 -41t74 -112h159q-10 78 -42.5 137t-82 99t-112 60.5t-133.5 20.5q-102 0 -183 -35t-137.5 -96.5t-86 -145t-29.5 -182.5q0 -96 31.5 -179 t89 -144.5t138.5 -96t181 -34.5q68 0 130 21.5t112.5 63.5t84.5 102t46 136zM242 731q0 131 45 241.5t122.5 190.5t183 125t226.5 45q119 0 224.5 -45t183.5 -125t124 -190.5t46 -241.5t-46 -241.5t-124 -190.5t-183.5 -125t-224.5 -45q-121 0 -226.5 45t-183 125 t-122.5 190.5t-45 241.5zM33 731q0 -174 64.5 -315.5t173 -241.5t251 -153.5t297.5 -53.5q156 0 298.5 53.5t251 153.5t173 241.5t64.5 315.5q0 176 -64.5 317.5t-173 241t-251 153.5t-298.5 54t-298 -54t-250.5 -153.5t-173 -241t-64.5 -317.5z" />
<glyph unicode="&#xaa;" horiz-adv-x="704" d="M150 1247h194q10 41 49 61.5t86 20.5q12 0 30.5 -3t36 -11t29 -21.5t11.5 -36.5q0 -25 -22.5 -38t-59.5 -20t-84 -10t-96 -9q-123 -14 -194 -72.5t-71 -171.5q0 -68 57.5 -118t180.5 -50q53 0 109.5 20.5t93.5 61.5v-64h217q-8 31 -8 50q0 18 3 43.5t7 42.5l61 256 q6 29 10.5 57.5t4.5 48.5q0 57 -28 92t-72 54.5t-99 25.5t-109 6q-57 0 -113.5 -9t-102.5 -33.5t-78.5 -65.5t-42.5 -107zM559 1098l-16 -56q-8 -25 -20.5 -50t-32 -44.5t-50 -33t-75.5 -13.5q-35 0 -66 17.5t-31 50.5q0 55 40 73.5t93 24.5q41 4 82 9.5t76 21.5z" />
<glyph unicode="&#xab;" horiz-adv-x="948" d="M43 446l262 -282l45 219l-157 174l225 139l53 252l-371 -235zM444 446l263 -282l45 219l-158 174l225 139l53 252l-370 -235z" />
<glyph unicode="&#xac;" horiz-adv-x="1228" d="M1130 203v628h-1032v-219h813v-409h219z" />
<glyph unicode="&#xad;" horiz-adv-x="833" d="M109 684l-54 -250h617l53 250h-616z" />
<glyph unicode="&#xae;" horiz-adv-x="1638" d="M688 805v225h139q29 0 58.5 -4t55.5 -15.5t42 -32t16 -54.5q0 -78 -47 -98.5t-116 -20.5h-148zM514 1163v-858h174v367h103l208 -367h179l-230 375q47 4 88 18.5t72 41t48.5 68.5t17.5 101q0 139 -87.5 196.5t-248.5 57.5h-324zM242 733q0 131 45 240.5t122.5 189.5 t183 125t226.5 45q119 0 224.5 -45t183.5 -125t124 -189.5t46 -240.5t-46 -241.5t-124 -191.5t-183.5 -126t-224.5 -45q-121 0 -226.5 45t-183 126t-122.5 191.5t-45 241.5zM33 733q0 -176 64.5 -317.5t173 -241.5t251 -153.5t297.5 -53.5q156 0 298.5 53.5t251 153.5 t173 241.5t64.5 317.5q0 174 -64.5 315.5t-173 241t-251 153.5t-298.5 54t-298 -54t-250.5 -153.5t-173 -241t-64.5 -315.5z" />
<glyph unicode="&#xaf;" horiz-adv-x="530" d="M100 1415l-28 -153h624l29 153h-625z" />
<glyph unicode="&#xb0;" horiz-adv-x="819" d="M301 1159q0 37 14.5 70t38 57.5t54 38.5t63.5 14t63.5 -14t54 -38.5t38 -57.5t14.5 -70t-14.5 -69.5t-38 -57t-54 -39t-63.5 -14.5t-63.5 14.5t-54 39t-38 57t-14.5 69.5zM168 1159q0 -63 23.5 -118.5t64.5 -96.5t96.5 -64.5t118.5 -23.5t118.5 23.5t96.5 64.5t64.5 96.5 t23.5 118.5t-23.5 118.5t-64.5 96.5t-96 64.5t-119 23.5q-63 0 -118.5 -23.5t-96.5 -64.5t-64.5 -96.5t-23.5 -118.5z" />
<glyph unicode="&#xb1;" horiz-adv-x="1228" d="M98 219v-219h1035v219h-1035zM98 768v-219h408v-268h219v268h408v219h-408v268h-219v-268h-408z" />
<glyph unicode="&#xb2;" horiz-adv-x="802" d="M129 1124h209q4 70 48 122t116 52q57 0 98 -27.5t41 -90.5q0 -59 -72.5 -110.5t-183.5 -104.5q-68 -33 -129 -69t-109.5 -82t-78 -107.5t-35.5 -147.5h694l37 164h-445q55 53 144.5 97t175.5 95q43 27 81 55.5t67.5 62.5t46 73t16.5 86q0 72 -24.5 123t-68.5 84 t-103.5 48t-129.5 15q-180 0 -280.5 -86t-114.5 -252z" />
<glyph unicode="&#xb3;" horiz-adv-x="802" d="M397 1094l-26 -144h69q53 0 90 -24.5t37 -71.5q0 -72 -51 -110.5t-125 -38.5q-70 0 -108.5 35.5t-38.5 95.5v30h-197v-39q0 -287 340 -286q84 0 156.5 17t126 54t85 95.5t31.5 140.5q0 66 -30.5 111t-104.5 63v4q78 16 127 68.5t49 130.5q0 68 -27.5 112.5t-71.5 72.5 t-101.5 40t-118.5 12q-160 0 -257 -75.5t-118 -229.5h197q16 70 56 105.5t118 35.5q51 0 89 -24.5t38 -75.5q0 -31 -16.5 -51.5t-42 -32.5t-57.5 -16t-60 -4h-58z" />
<glyph unicode="&#xb4;" horiz-adv-x="530" d="M479 1190l287 291h-311l-181 -291h205z" />
<glyph unicode="&#xb5;" horiz-adv-x="1251" d="M979 0l221 1059h-291l-118 -563q-12 -55 -36 -108.5t-60 -94.5t-86 -66.5t-115 -25.5q-51 0 -95.5 30.5t-44.5 77.5q0 10 1 27.5t4 36.5l7 36q3 17 7 29l129 621h-291l-305 -1430h289l73 355q51 -10 90 -11q229 0 371 174h4l-33 -147h279z" />
<glyph unicode="&#xb6;" horiz-adv-x="1228" d="M524 723l-225 -1061h197l346 1636h227l-346 -1636h197l378 1800h-577q-106 0 -199.5 -19.5t-167 -63.5t-125 -115.5t-73.5 -178.5q-33 -166 62 -264t306 -98z" />
<glyph unicode="&#xb7;" horiz-adv-x="569" d="M88 588q0 -35 14.5 -67t38 -55.5t55 -36.5t68.5 -13q35 0 65.5 14t53.5 39t37 55.5t14 63.5q0 37 -14 68.5t-38 55t-54.5 37t-65.5 13.5q-70 0 -122 -50t-52 -124z" />
<glyph unicode="&#xb8;" horiz-adv-x="530" d="M68 -301l-43 -98l54 -18.5t53 -14.5t62.5 -9t84.5 -3q45 0 88 9t76.5 32.5t54 63.5t20.5 99q0 37 -16.5 65t-43 45t-60 25.5t-68.5 8.5q-45 0 -70 -10h-4l80 110h-100l-121 -172l43 -49q37 14 82 14q35 0 58.5 -13t23.5 -52q0 -37 -23 -53.5t-59 -16.5q-53 0 -96 11.5 t-76 25.5z" />
<glyph unicode="&#xb9;" horiz-adv-x="802" d="M512 559l199 885h-174q-27 -49 -59 -82t-69.5 -51.5t-80.5 -26.5t-92 -10l-35 -154h225l-127 -561h213z" />
<glyph unicode="&#xba;" horiz-adv-x="729" d="M285 1053q0 37 11 82t35.5 83.5t60.5 64.5t85 26q70 0 101.5 -37t31.5 -94q0 -37 -11 -81t-35.5 -83t-61.5 -65.5t-88 -26.5q-61 0 -95 42t-34 89zM76 1053q0 -147 87 -216t243 -69q98 0 175.5 30.5t130 86t80 131.5t27.5 164q0 147 -90 214.5t-244 67.5 q-98 0 -173.5 -31.5t-128 -87t-80 -130t-27.5 -160.5z" />
<glyph unicode="&#xbb;" horiz-adv-x="948" d="M842 666l-262 282l-45 -219l157 -174l-225 -139l-53 -252l370 235zM440 666l-262 282l-45 -219l158 -174l-225 -139l-54 -252l371 235z" />
<glyph unicode="&#xbc;" horiz-adv-x="1820" d="M1378 346h-254l320 305l4 -4zM1339 182l-41 -182h209l41 182h127l33 164h-121l119 514h-217l-535 -500l-41 -178h426zM551 559l199 885h-175q-27 -49 -58.5 -82t-69 -51.5t-80.5 -26.5t-93 -10l-34 -154h225l-127 -561h213zM1266 1479l-848 -1522h178l844 1522h-174z" />
<glyph unicode="&#xbd;" horiz-adv-x="1820" d="M1133 565h208q4 70 48.5 122t115.5 52q57 0 98.5 -27.5t41.5 -90.5q0 -59 -73 -110.5t-183 -104.5q-68 -33 -129.5 -69t-109.5 -82t-78 -107.5t-36 -147.5h695l36 164h-444q55 53 144 97t175 95q43 27 81 55.5t68 62.5t46 73t16 86q0 72 -24.5 123t-68.5 83.5t-103.5 48 t-128.5 15.5q-180 0 -280.5 -86t-114.5 -252zM467 1120l-127 -561h213l199 885h-174q-27 -49 -59 -82t-69.5 -51.5t-80.5 -26.5t-93 -10l-34 -154h225zM1262 1479l-848 -1522h178l844 1522h-174z" />
<glyph unicode="&#xbe;" horiz-adv-x="1820" d="M1378 346h-254l320 305l4 -4zM1339 182l-41 -182h209l41 182h127l33 164h-121l119 514h-217l-535 -500l-41 -178h426zM352 1094l-26 -144h69q53 0 90 -24.5t37 -71.5q0 -72 -51 -110.5t-125 -38.5q-70 0 -108.5 35.5t-38.5 95.5v30h-197v-39q0 -287 340 -286 q84 0 156.5 17t126 54t85 95.5t31.5 140.5q0 66 -30.5 111t-104.5 63v4q78 16 127 68.5t49 130.5q0 68 -27.5 112.5t-71.5 72.5t-101.5 40t-118.5 12q-160 0 -257 -75.5t-118 -229.5h197q16 70 56 105.5t118 35.5q51 0 89 -24.5t38 -75.5q0 -31 -16.5 -51.5t-42 -32.5 t-57.5 -16t-60 -4h-58zM1266 1479l-848 -1522h178l844 1522h-174z" />
<glyph unicode="&#xbf;" horiz-adv-x="1175" d="M784 772l68 315h-324l-67 -315h323zM952 90h-290q-6 -49 -25 -94t-48.5 -80t-71.5 -55.5t-97 -20.5q-72 0 -125 39t-53 121q0 70 43 119t102 84q74 39 130 75.5t98 84t69 115t41 167.5h-270q-6 -55 -26.5 -96t-51.5 -74t-71 -58.5t-85 -49.5q-57 -33 -108.5 -70t-90 -84 t-61 -104.5t-22.5 -128.5q0 -98 35.5 -170t97 -118t142.5 -68.5t169 -22.5q117 0 217 30.5t177 92t123 153.5t52 213z" />
<glyph unicode="&#xc0;" horiz-adv-x="1402" d="M1032 1593l-180 291h-311l286 -291h205zM707 1462l-863 -1462h338l185 326h546l48 -326h319l-244 1462h-329zM494 565l315 582h4l72 -582h-391z" />
<glyph unicode="&#xc1;" horiz-adv-x="1402" d="M971 1593l286 291h-311l-180 -291h205zM707 1462l-863 -1462h338l185 326h546l48 -326h319l-244 1462h-329zM494 565l315 582h4l72 -582h-391z" />
<glyph unicode="&#xc2;" horiz-adv-x="1402" d="M791 1884l-281 -291h223l178 166l103 -166h205l-170 291h-258zM707 1462l-863 -1462h338l185 326h546l48 -326h319l-244 1462h-329zM494 565l315 582h4l72 -582h-391z" />
<glyph unicode="&#xc3;" horiz-adv-x="1402" d="M1270 1866h-142q2 -29 -18 -50.5t-68 -21.5q-35 0 -68.5 11.5t-66.5 25.5l-64 23q-32 11 -67 12q-68 0 -113 -22.5t-73.5 -58.5t-45 -80t-26.5 -89h125q10 39 27.5 62.5t58.5 23.5q35 0 70 -10.5t73 -24.5l80 -23.5t88 -11.5q61 0 101.5 23.5t66 58.5t39 76t23.5 76z M707 1462l-863 -1462h338l185 326h546l48 -326h319l-244 1462h-329zM494 565l315 582h4l72 -582h-391z" />
<glyph unicode="&#xc4;" horiz-adv-x="1402" d="M575 1866l-49 -240h269l49 240h-269zM977 1866l-49 -240h268l49 240h-268zM707 1462l-863 -1462h338l185 326h546l48 -326h319l-244 1462h-329zM494 565l315 582h4l72 -582h-391z" />
<glyph unicode="&#xc5;" horiz-adv-x="1402" d="M639 1747q0 -51 19.5 -97t53 -80t80 -53.5t97.5 -19.5q53 0 98 19.5t80 53.5t54.5 80t19.5 97q0 53 -19.5 98t-54.5 79t-80 53.5t-98 19.5q-51 0 -97.5 -19.5t-80 -53.5t-53 -79t-19.5 -98zM760 1747q0 59 34.5 101t94.5 42q59 0 95 -42t36 -101t-36 -101t-95 -42t-94 42 t-35 101zM707 1462l-863 -1462h338l185 326h546l48 -326h319l-244 1462h-329zM494 565l315 582h4l72 -582h-391z" />
<glyph unicode="&#xc6;" horiz-adv-x="2009" d="M840 1462l-1024 -1462h358l223 315h451l-68 -315h1018l57 270h-694l78 359h631l53 250h-631l68 313h674l57 270h-1251zM1036 1192l-137 -637h-352l448 637h41z" />
<glyph unicode="&#xc7;" horiz-adv-x="1517" d="M1139 954h321q2 133 -41 234.5t-121.5 170t-187.5 103.5t-236 35q-184 0 -332.5 -71.5t-252 -193.5t-158.5 -281.5t-55 -338.5q0 -287 142 -449.5t409 -187.5l-101 -143l43 -49q37 14 82 14q35 0 58.5 -13t23.5 -52q0 -37 -22.5 -53.5t-59.5 -16.5q-53 0 -96 11.5 t-76 25.5l-43 -98l54.5 -18.5t53 -14.5t62.5 -9t84 -3q45 0 88 9t77 32.5t54.5 63.5t20.5 99q0 37 -16.5 65t-43 45t-60.5 25.5t-69 8.5q-45 0 -69 -10h-4l53 73h4q119 0 220.5 30t184 96.5t149.5 173t116 259.5h-322q-10 -57 -41 -110.5t-76 -93t-103 -63t-124 -23.5 q-88 0 -150.5 30.5t-102.5 82.5t-59.5 120t-19.5 143q0 104 29 214t87 199t149.5 145.5t214.5 56.5q117 0 189.5 -69t72.5 -204z" />
<glyph unicode="&#xc8;" horiz-adv-x="1366" d="M1014 1593l-180 291h-312l287 -291h205zM299 1462l-305 -1462h1126l58 270h-807l75 359h736l53 250h-735l65 313h795l55 270h-1116z" />
<glyph unicode="&#xc9;" horiz-adv-x="1366" d="M952 1593l287 291h-311l-180 -291h204zM299 1462l-305 -1462h1126l58 270h-807l75 359h736l53 250h-735l65 313h795l55 270h-1116z" />
<glyph unicode="&#xca;" horiz-adv-x="1366" d="M772 1884l-280 -291h223l178 166l102 -166h205l-170 291h-258zM299 1462l-305 -1462h1126l58 270h-807l75 359h736l53 250h-735l65 313h795l55 270h-1116z" />
<glyph unicode="&#xcb;" horiz-adv-x="1366" d="M557 1866l-49 -240h268l49 240h-268zM958 1866l-49 -240h269l49 240h-269zM299 1462l-305 -1462h1126l58 270h-807l75 359h736l53 250h-735l65 313h795l55 270h-1116z" />
<glyph unicode="&#xcc;" horiz-adv-x="606" d="M635 1593l-180 291h-312l287 -291h205zM301 1462l-307 -1462h321l310 1462h-324z" />
<glyph unicode="&#xcd;" horiz-adv-x="606" d="M573 1593l287 291h-311l-180 -291h204zM301 1462l-307 -1462h321l310 1462h-324z" />
<glyph unicode="&#xce;" horiz-adv-x="606" d="M387 1884l-281 -291h224l178 166l102 -166h205l-170 291h-258zM301 1462l-307 -1462h321l310 1462h-324z" />
<glyph unicode="&#xcf;" horiz-adv-x="606" d="M178 1866l-49 -240h268l49 240h-268zM580 1866l-50 -240h269l49 240h-268zM301 1462l-307 -1462h321l310 1462h-324z" />
<glyph unicode="&#xd0;" horiz-adv-x="1517" d="M500 874l67 318h242q86 0 146.5 -25.5t99.5 -72.5t56 -111.5t17 -144.5q0 -117 -33.5 -219.5t-98 -180.5t-160 -123t-218.5 -45h-247l75 365h347l51 239h-344zM125 635l-131 -635h610q211 0 370 67.5t264 187.5t158.5 283.5t53.5 354.5q0 272 -155.5 420.5t-465.5 148.5 h-528l-123 -588h-170l-49 -239h166z" />
<glyph unicode="&#xd1;" horiz-adv-x="1517" d="M1327 1866h-141q2 -29 -18.5 -50.5t-67.5 -21.5q-35 0 -69 11.5t-66 25.5l-65 23q-32 11 -66 12q-68 0 -113 -22.5t-74 -58.5t-45 -80t-27 -89h125q10 39 27.5 62.5t58.5 23.5q35 0 70 -10.5t74 -24.5l80 -23.5t88 -11.5q61 0 101 23.5t65.5 58.5t39 76t23.5 76z M301 1462l-307 -1462h299l209 1026h4l401 -1026h322l309 1462h-295l-209 -1040h-4l-397 1040h-332z" />
<glyph unicode="&#xd2;" horiz-adv-x="1593" d="M1073 1593l-180 291h-311l286 -291h205zM76 612q0 -313 169 -479t480 -166q193 0 341 73t249.5 197.5t155 288.5t53.5 344q0 154 -46 270.5t-130 196.5t-205 120t-269 40q-184 0 -332.5 -71.5t-252 -193.5t-158.5 -282t-55 -338zM397 612q0 104 29 214t87 199 t149.5 145.5t214.5 56.5q90 0 151.5 -31t100 -82t56 -119.5t17.5 -146.5q0 -104 -29.5 -213t-89 -198t-147.5 -145t-207 -56q-88 0 -150.5 30.5t-102.5 82.5t-59.5 119.5t-19.5 143.5z" />
<glyph unicode="&#xd3;" horiz-adv-x="1593" d="M1012 1593l286 291h-311l-180 -291h205zM76 612q0 -313 169 -479t480 -166q193 0 341 73t249.5 197.5t155 288.5t53.5 344q0 154 -46 270.5t-130 196.5t-205 120t-269 40q-184 0 -332.5 -71.5t-252 -193.5t-158.5 -282t-55 -338zM397 612q0 104 29 214t87 199 t149.5 145.5t214.5 56.5q90 0 151.5 -31t100 -82t56 -119.5t17.5 -146.5q0 -104 -29.5 -213t-89 -198t-147.5 -145t-207 -56q-88 0 -150.5 30.5t-102.5 82.5t-59.5 119.5t-19.5 143.5z" />
<glyph unicode="&#xd4;" horiz-adv-x="1593" d="M831 1884l-280 -291h223l178 166l103 -166h205l-170 291h-259zM76 612q0 -313 169 -479t480 -166q193 0 341 73t249.5 197.5t155 288.5t53.5 344q0 154 -46 270.5t-130 196.5t-205 120t-269 40q-184 0 -332.5 -71.5t-252 -193.5t-158.5 -282t-55 -338zM397 612 q0 104 29 214t87 199t149.5 145.5t214.5 56.5q90 0 151.5 -31t100 -82t56 -119.5t17.5 -146.5q0 -104 -29.5 -213t-89 -198t-147.5 -145t-207 -56q-88 0 -150.5 30.5t-102.5 82.5t-59.5 119.5t-19.5 143.5z" />
<glyph unicode="&#xd5;" horiz-adv-x="1593" d="M1311 1866h-142q2 -29 -18.5 -50.5t-67.5 -21.5q-35 0 -68.5 11.5t-66.5 25.5l-64 23q-32 11 -67 12q-68 0 -113 -22.5t-73.5 -58.5t-45 -80t-26.5 -89h125q10 39 27.5 62.5t58.5 23.5q35 0 69.5 -10.5t73.5 -24.5l80 -23.5t88 -11.5q61 0 101.5 23.5t66 58.5t39 76 t23.5 76zM76 612q0 -313 169 -479t480 -166q193 0 341 73t249.5 197.5t155 288.5t53.5 344q0 154 -46 270.5t-130 196.5t-205 120t-269 40q-184 0 -332.5 -71.5t-252 -193.5t-158.5 -282t-55 -338zM397 612q0 104 29 214t87 199t149.5 145.5t214.5 56.5q90 0 151.5 -31 t100 -82t56 -119.5t17.5 -146.5q0 -104 -29.5 -213t-89 -198t-147.5 -145t-207 -56q-88 0 -150.5 30.5t-102.5 82.5t-59.5 119.5t-19.5 143.5z" />
<glyph unicode="&#xd6;" horiz-adv-x="1593" d="M616 1866l-49 -240h269l49 240h-269zM1018 1866l-49 -240h268l49 240h-268zM76 612q0 -313 169 -479t480 -166q193 0 341 73t249.5 197.5t155 288.5t53.5 344q0 154 -46 270.5t-130 196.5t-205 120t-269 40q-184 0 -332.5 -71.5t-252 -193.5t-158.5 -282t-55 -338z M397 612q0 104 29 214t87 199t149.5 145.5t214.5 56.5q90 0 151.5 -31t100 -82t56 -119.5t17.5 -146.5q0 -104 -29.5 -213t-89 -198t-147.5 -145t-207 -56q-88 0 -150.5 30.5t-102.5 82.5t-59.5 119.5t-19.5 143.5z" />
<glyph unicode="&#xd7;" horiz-adv-x="1228" d="M131 190l156 -155l329 330l328 -330l156 155l-330 328l330 328l-156 155l-328 -327l-325 327l-156 -155l326 -328z" />
<glyph unicode="&#xd8;" horiz-adv-x="1593" d="M1432 1233l208 192l-84 93l-202 -189q-168 168 -480 168q-184 0 -332.5 -71.5t-252 -193.5t-158.5 -281.5t-55 -338.5q0 -231 96 -383l-209 -196l80 -88l207 190q166 -168 475 -168q193 0 341 73t249.5 197.5t155 288.5t53.5 344q0 111 -23.5 201t-68.5 162zM477 348 l705 653q20 -68 20 -153q0 -104 -29.5 -213t-89 -198t-147.5 -145t-207 -56q-86 0 -148.5 29.5t-103.5 82.5zM1126 1116l-706 -657q-23 74 -23 153q0 104 29 214t87 199t149.5 145.5t214.5 56.5q86 0 147 -29t102 -82z" />
<glyph unicode="&#xd9;" horiz-adv-x="1517" d="M1090 1593l-181 291h-311l287 -291h205zM1358 612l178 850h-322l-182 -866q-18 -82 -39.5 -149.5t-59.5 -113.5t-99.5 -71.5t-159.5 -25.5q-84 0 -137.5 20t-84 50t-42 65t-11.5 61q0 18 3.5 42t8.5 50.5t10 49.5l9 42l178 846h-321l-178 -846l-21 -107q-10 -54 -10 -110 q0 -121 50 -203.5t131 -133t184.5 -73t209.5 -22.5q170 0 289 42t201 123t132 201.5t83 278.5z" />
<glyph unicode="&#xda;" horiz-adv-x="1517" d="M973 1593l287 291h-312l-180 -291h205zM1358 612l178 850h-322l-182 -866q-18 -82 -39.5 -149.5t-59.5 -113.5t-99.5 -71.5t-159.5 -25.5q-84 0 -137.5 20t-84 50t-42 65t-11.5 61q0 18 3.5 42t8.5 50.5t10 49.5l9 42l178 846h-321l-178 -846l-21 -107q-10 -54 -10 -110 q0 -121 50 -203.5t131 -133t184.5 -73t209.5 -22.5q170 0 289 42t201 123t132 201.5t83 278.5z" />
<glyph unicode="&#xdb;" horiz-adv-x="1517" d="M848 1884l-281 -291h224l178 166l102 -166h205l-170 291h-258zM1358 612l178 850h-322l-182 -866q-18 -82 -39.5 -149.5t-59.5 -113.5t-99.5 -71.5t-159.5 -25.5q-84 0 -137.5 20t-84 50t-42 65t-11.5 61q0 18 3.5 42t8.5 50.5t10 49.5l9 42l178 846h-321l-178 -846 l-21 -107q-10 -54 -10 -110q0 -121 50 -203.5t131 -133t184.5 -73t209.5 -22.5q170 0 289 42t201 123t132 201.5t83 278.5z" />
<glyph unicode="&#xdc;" horiz-adv-x="1517" d="M633 1866l-49 -240h268l49 240h-268zM1034 1866l-49 -240h268l50 240h-269zM1358 612l178 850h-322l-182 -866q-18 -82 -39.5 -149.5t-59.5 -113.5t-99.5 -71.5t-159.5 -25.5q-84 0 -137.5 20t-84 50t-42 65t-11.5 61q0 18 3.5 42t8.5 50.5t10 49.5l9 42l178 846h-321 l-178 -846l-21 -107q-10 -54 -10 -110q0 -121 50 -203.5t131 -133t184.5 -73t209.5 -22.5q170 0 289 42t201 123t132 201.5t83 278.5z" />
<glyph unicode="&#xdd;" horiz-adv-x="1327" d="M879 1593l286 291h-311l-180 -291h205zM475 567l-117 -567h324l113 553l712 909h-379l-454 -622l-219 622h-330z" />
<glyph unicode="&#xde;" horiz-adv-x="1366" d="M297 1462l-303 -1462h319l70 328h399q115 0 217.5 34.5t181.5 100t125 161t46 214.5q0 121 -38 202.5t-105.5 131t-161 71t-203.5 21.5h-266l40 198h-321zM436 578l90 436h277q43 0 83 -8.5t72.5 -28t52 -55t19.5 -91.5q0 -129 -70.5 -191t-193.5 -62h-330z" />
<glyph unicode="&#xdf;" horiz-adv-x="1214" d="M201 1067l-224 -1067h289l213 1010q12 51 26.5 96t39 79t64.5 53t102 19q59 0 106 -37.5t47 -103.5q0 -117 -66.5 -170t-176.5 -53h-46l-38 -184h41q104 2 165.5 -46.5t61.5 -160.5q0 -61 -21.5 -114.5t-59.5 -92.5t-91 -61.5t-115 -22.5q-23 0 -45 1t-45 3l-47 -225 q41 -10 77 -13.5t70 -3.5q117 0 220.5 37t180.5 106.5t122 168t45 221.5q0 117 -56.5 194.5t-169.5 104.5v4q125 29 205 116t80 222q0 96 -40 162.5t-102.5 107.5t-141 60.5t-156.5 19.5q-428 0 -514 -430z" />
<glyph unicode="&#xe0;" horiz-adv-x="1175" d="M864 1190l-180 291h-311l286 -291h205zM123 737h272q14 80 75.5 118t139.5 38q29 0 60.5 -5t59.5 -19.5t46.5 -39t18.5 -65.5q0 -51 -25 -76.5t-75 -39t-125.5 -19.5t-178.5 -19q-193 -23 -298 -115t-105 -245q0 -55 20.5 -105.5t63.5 -88.5t107.5 -60.5t150.5 -22.5 q92 0 178 32t145 99v-104h291q-10 35 -10 61q0 31 3 73t11 71l94 426q23 102 23 178q2 90 -40 144.5t-107.5 84t-143.5 39.5t-149 10q-90 0 -174 -17t-152 -58t-115 -108t-61 -167zM737 508l-28 -102q-12 -43 -31 -86.5t-50.5 -77t-77.5 -55t-114 -21.5q-63 0 -111.5 29.5 t-48.5 89.5q0 49 18.5 80.5t48.5 50t69 28t80 13.5q63 4 126.5 11t118.5 40z" />
<glyph unicode="&#xe1;" horiz-adv-x="1175" d="M803 1190l287 291h-312l-180 -291h205zM123 737h272q14 80 75.5 118t139.5 38q29 0 60.5 -5t59.5 -19.5t46.5 -39t18.5 -65.5q0 -51 -25 -76.5t-75 -39t-125.5 -19.5t-178.5 -19q-193 -23 -298 -115t-105 -245q0 -55 20.5 -105.5t63.5 -88.5t107.5 -60.5t150.5 -22.5 q92 0 178 32t145 99v-104h291q-10 35 -10 61q0 31 3 73t11 71l94 426q23 102 23 178q2 90 -40 144.5t-107.5 84t-143.5 39.5t-149 10q-90 0 -174 -17t-152 -58t-115 -108t-61 -167zM737 508l-28 -102q-12 -43 -31 -86.5t-50.5 -77t-77.5 -55t-114 -21.5q-63 0 -111.5 29.5 t-48.5 89.5q0 49 18.5 80.5t48.5 50t69 28t80 13.5q63 4 126.5 11t118.5 40z" />
<glyph unicode="&#xe2;" horiz-adv-x="1175" d="M623 1481l-281 -291h223l178 166l103 -166h205l-170 291h-258zM123 737h272q14 80 75.5 118t139.5 38q29 0 60.5 -5t59.5 -19.5t46.5 -39t18.5 -65.5q0 -51 -25 -76.5t-75 -39t-125.5 -19.5t-178.5 -19q-193 -23 -298 -115t-105 -245q0 -55 20.5 -105.5t63.5 -88.5 t107.5 -60.5t150.5 -22.5q92 0 178 32t145 99v-104h291q-10 35 -10 61q0 31 3 73t11 71l94 426q23 102 23 178q2 90 -40 144.5t-107.5 84t-143.5 39.5t-149 10q-90 0 -174 -17t-152 -58t-115 -108t-61 -167zM737 508l-28 -102q-12 -43 -31 -86.5t-50.5 -77t-77.5 -55 t-114 -21.5q-63 0 -111.5 29.5t-48.5 89.5q0 49 18.5 80.5t48.5 50t69 28t80 13.5q63 4 126.5 11t118.5 40z" />
<glyph unicode="&#xe3;" horiz-adv-x="1175" d="M1102 1462h-141q2 -29 -18.5 -50t-68.5 -21q-35 0 -68.5 11t-66.5 25l-64 24q-32 11 -67 11q-68 0 -112.5 -22.5t-73.5 -58t-45.5 -80t-26.5 -89.5h125q10 39 27.5 62.5t58.5 23.5q35 0 70 -10t74 -24l79.5 -23.5t87.5 -11.5q61 0 101.5 23.5t66 58.5t39 75.5t23.5 75.5z M123 737h272q14 80 75.5 118t139.5 38q29 0 60.5 -5t59.5 -19.5t46.5 -39t18.5 -65.5q0 -51 -25 -76.5t-75 -39t-125.5 -19.5t-178.5 -19q-193 -23 -298 -115t-105 -245q0 -55 20.5 -105.5t63.5 -88.5t107.5 -60.5t150.5 -22.5q92 0 178 32t145 99v-104h291q-10 35 -10 61 q0 31 3 73t11 71l94 426q23 102 23 178q2 90 -40 144.5t-107.5 84t-143.5 39.5t-149 10q-90 0 -174 -17t-152 -58t-115 -108t-61 -167zM737 508l-28 -102q-12 -43 -31 -86.5t-50.5 -77t-77.5 -55t-114 -21.5q-63 0 -111.5 29.5t-48.5 89.5q0 49 18.5 80.5t48.5 50t69 28 t80 13.5q63 4 126.5 11t118.5 40z" />
<glyph unicode="&#xe4;" horiz-adv-x="1175" d="M408 1462l-50 -239h269l49 239h-268zM809 1462l-49 -239h268l49 239h-268zM123 737h272q14 80 75.5 118t139.5 38q29 0 60.5 -5t59.5 -19.5t46.5 -39t18.5 -65.5q0 -51 -25 -76.5t-75 -39t-125.5 -19.5t-178.5 -19q-193 -23 -298 -115t-105 -245q0 -55 20.5 -105.5 t63.5 -88.5t107.5 -60.5t150.5 -22.5q92 0 178 32t145 99v-104h291q-10 35 -10 61q0 31 3 73t11 71l94 426q23 102 23 178q2 90 -40 144.5t-107.5 84t-143.5 39.5t-149 10q-90 0 -174 -17t-152 -58t-115 -108t-61 -167zM737 508l-28 -102q-12 -43 -31 -86.5t-50.5 -77 t-77.5 -55t-114 -21.5q-63 0 -111.5 29.5t-48.5 89.5q0 49 18.5 80.5t48.5 50t69 28t80 13.5q63 4 126.5 11t118.5 40z" />
<glyph unicode="&#xe5;" horiz-adv-x="1175" d="M471 1343q0 -51 19.5 -97t53.5 -79.5t80 -53t97 -19.5q53 0 98 19.5t80 53t54.5 79.5t19.5 97q0 53 -19.5 98.5t-54.5 79t-80 53t-98 19.5q-51 0 -97 -19.5t-80 -53t-53.5 -79t-19.5 -98.5zM592 1343q0 59 35 101.5t94 42.5t95 -42t36 -102q0 -59 -36 -101t-95 -42 t-94 42t-35 101zM123 737h272q14 80 75.5 118t139.5 38q29 0 60.5 -5t59.5 -19.5t46.5 -39t18.5 -65.5q0 -51 -25 -76.5t-75 -39t-125.5 -19.5t-178.5 -19q-193 -23 -298 -115t-105 -245q0 -55 20.5 -105.5t63.5 -88.5t107.5 -60.5t150.5 -22.5q92 0 178 32t145 99v-104h291 q-10 35 -10 61q0 31 3 73t11 71l94 426q23 102 23 178q2 90 -40 144.5t-107.5 84t-143.5 39.5t-149 10q-90 0 -174 -17t-152 -58t-115 -108t-61 -167zM737 508l-28 -102q-12 -43 -31 -86.5t-50.5 -77t-77.5 -55t-114 -21.5q-63 0 -111.5 29.5t-48.5 89.5q0 49 18.5 80.5 t48.5 50t69 28t80 13.5q63 4 126.5 11t118.5 40z" />
<glyph unicode="&#xe6;" horiz-adv-x="1857" d="M774 510l-16 -90q-10 -53 -30.5 -99.5t-54.5 -81t-84 -54t-120 -19.5q-31 0 -61.5 5t-55 19.5t-39 39t-14.5 63.5q0 68 52 107.5t130 48t157 18.5t136 43zM147 737h281q6 47 27.5 77t52.5 47.5t69.5 24.5t81.5 7q29 0 57.5 -5t52.5 -20.5t39 -41t15 -68.5 q0 -51 -30.5 -78t-83 -40t-121 -17.5t-146.5 -10.5q-231 -18 -332.5 -111t-101.5 -245q0 -59 19.5 -110.5t64.5 -90.5t119 -60.5t180 -21.5q141 0 255 45t179 150q109 -195 385 -195q88 0 168 17.5t148.5 59.5t124 109.5t94.5 168.5h-291q-29 -88 -87 -125t-136 -37 q-53 0 -95 16.5t-71 44t-44 63.5t-15 75q0 27 2 47t8 47h762q4 41 7 76.5t3 72.5q0 106 -23.5 194.5t-75 152t-132 98t-197.5 34.5q-98 0 -192.5 -30.5t-157.5 -108.5q-23 41 -63 67.5t-87 42t-97 22.5t-95 7q-94 0 -180.5 -16t-155 -56t-117 -108t-68.5 -170zM1528 643 h-484q18 104 93 177t188 73q61 0 101 -19.5t62.5 -53.5t31 -79t8.5 -98z" />
<glyph unicode="&#xe7;" d="M803 692h291q-2 104 -40 180t-102.5 123t-150.5 69.5t-183 22.5q-143 0 -253.5 -52t-187.5 -143t-117 -211t-40 -255q0 -221 110 -329.5t308 -119.5l-100 -145l43 -49q37 14 82 14q35 0 58.5 -13t23.5 -52q0 -37 -22.5 -53.5t-59.5 -16.5q-53 0 -96 11.5t-76 25.5 l-43 -98l54.5 -18.5t53 -14.5t62.5 -9t84 -3q45 0 88 9t76.5 32.5t54 63.5t20.5 99q0 37 -16 65t-43 45t-60.5 25.5t-68.5 8.5q-45 0 -70 -10h-4l58 83q190 10 314 115t187 295h-290q-12 -39 -32 -75t-49.5 -62.5t-67.5 -43t-87 -16.5q-55 0 -93 18.5t-62.5 49.5t-35 73 t-10.5 89q0 68 15.5 146.5t50.5 146t92 111.5t139 44q98 0 146.5 -41t48.5 -135z" />
<glyph unicode="&#xe8;" horiz-adv-x="1175" d="M864 1190l-180 291h-311l286 -291h205zM817 643h-485q16 45 39.5 86t58.5 71.5t82 49t109 18.5q63 0 102 -19.5t59.5 -52t27.5 -72.5t7 -81zM301 459h780q16 88 17 166q0 115 -36 201.5t-100.5 145t-155.5 87t-202 28.5q-135 0 -243.5 -54t-183.5 -145t-116 -209 t-41 -245q0 -115 34 -201t95.5 -144t148.5 -87t194 -29q115 0 201.5 22.5t152 69t113 114t81.5 157.5h-290l-36 -51q-19 -27 -45 -47.5t-60 -34t-77 -13.5q-119 0 -176 57.5t-57 149.5v27v16q0 9 2 19z" />
<glyph unicode="&#xe9;" horiz-adv-x="1175" d="M803 1190l287 291h-312l-180 -291h205zM817 643h-485q16 45 39.5 86t58.5 71.5t82 49t109 18.5q63 0 102 -19.5t59.5 -52t27.5 -72.5t7 -81zM301 459h780q16 88 17 166q0 115 -36 201.5t-100.5 145t-155.5 87t-202 28.5q-135 0 -243.5 -54t-183.5 -145t-116 -209 t-41 -245q0 -115 34 -201t95.5 -144t148.5 -87t194 -29q115 0 201.5 22.5t152 69t113 114t81.5 157.5h-290l-36 -51q-19 -27 -45 -47.5t-60 -34t-77 -13.5q-119 0 -176 57.5t-57 149.5v27v16q0 9 2 19z" />
<glyph unicode="&#xea;" horiz-adv-x="1175" d="M623 1481l-281 -291h223l178 166l103 -166h205l-170 291h-258zM817 643h-485q16 45 39.5 86t58.5 71.5t82 49t109 18.5q63 0 102 -19.5t59.5 -52t27.5 -72.5t7 -81zM301 459h780q16 88 17 166q0 115 -36 201.5t-100.5 145t-155.5 87t-202 28.5q-135 0 -243.5 -54 t-183.5 -145t-116 -209t-41 -245q0 -115 34 -201t95.5 -144t148.5 -87t194 -29q115 0 201.5 22.5t152 69t113 114t81.5 157.5h-290l-36 -51q-19 -27 -45 -47.5t-60 -34t-77 -13.5q-119 0 -176 57.5t-57 149.5v27v16q0 9 2 19z" />
<glyph unicode="&#xeb;" horiz-adv-x="1175" d="M408 1462l-50 -239h269l49 239h-268zM809 1462l-49 -239h268l49 239h-268zM817 643h-485q16 45 39.5 86t58.5 71.5t82 49t109 18.5q63 0 102 -19.5t59.5 -52t27.5 -72.5t7 -81zM301 459h780q16 88 17 166q0 115 -36 201.5t-100.5 145t-155.5 87t-202 28.5 q-135 0 -243.5 -54t-183.5 -145t-116 -209t-41 -245q0 -115 34 -201t95.5 -144t148.5 -87t194 -29q115 0 201.5 22.5t152 69t113 114t81.5 157.5h-290l-36 -51q-19 -27 -45 -47.5t-60 -34t-77 -13.5q-119 0 -176 57.5t-57 149.5v27v16q0 9 2 19z" />
<glyph unicode="&#xec;" horiz-adv-x="530" d="M541 1190l-181 291h-311l287 -291h205zM268 0l226 1059h-293l-224 -1059h291z" />
<glyph unicode="&#xed;" horiz-adv-x="530" d="M479 1190l287 291h-311l-181 -291h205zM268 0l226 1059h-293l-224 -1059h291z" />
<glyph unicode="&#xee;" horiz-adv-x="530" d="M299 1481l-281 -291h224l178 166l102 -166h205l-170 291h-258zM268 0l226 1059h-293l-224 -1059h291z" />
<glyph unicode="&#xef;" horiz-adv-x="530" d="M84 1462l-49 -239h268l49 239h-268zM485 1462l-49 -239h269l49 239h-269zM268 0l226 1059h-293l-224 -1059h291z" />
<glyph unicode="&#xf0;" horiz-adv-x="1214" d="M621 1368l-256 -125l131 -127l247 121q45 -61 76 -132t41 -157l-4 -4q-45 53 -106.5 72.5t-120.5 19.5q-141 0 -254 -52t-192 -137t-121 -194.5t-42 -224.5q0 -227 132.5 -341t353.5 -114q131 0 227 41t165 106.5t112 148.5t68.5 168t34.5 164t9 136q0 356 -184 596 l254 125l-129 125l-248 -121q-84 78 -186 135l-191 -114q45 -18 90.5 -47t92.5 -68zM520 190q-51 0 -90 19.5t-65.5 52.5t-40 76t-13.5 90q0 57 18.5 129t55.5 135.5t95.5 106.5t137.5 43q115 0 164 -60.5t49 -146.5q0 -68 -19 -145.5t-57 -144t-96.5 -111t-138.5 -44.5z " />
<glyph unicode="&#xf1;" horiz-adv-x="1251" d="M1094 1462h-142q2 -29 -18.5 -50t-67.5 -21q-35 0 -68.5 11t-66.5 25l-64 24q-32 11 -67 11q-68 0 -113 -22.5t-73.5 -58t-45 -80t-26.5 -89.5h125q10 39 27.5 62.5t58.5 23.5q35 0 69.5 -10t73.5 -24l80 -23.5t88 -11.5q61 0 101.5 23.5t66 58.5t39 75.5t23.5 75.5z M197 1059l-220 -1059h289l119 563q12 55 35.5 108.5t59.5 94.5t86 66.5t116 25.5q51 0 95 -30.5t44 -77.5q0 -23 -7 -64l-11 -65l-129 -621h291l131 621q2 14 7 37.5t10 50t9 52t4 42.5q0 285 -309 284q-229 0 -371 -176h-4l33 148h-278z" />
<glyph unicode="&#xf2;" horiz-adv-x="1214" d="M883 1190l-181 291h-311l287 -291h205zM311 428q0 68 18.5 144.5t55.5 142t95.5 109.5t137.5 44q117 0 165 -63.5t48 -169.5q0 -68 -18 -145.5t-56 -144t-96.5 -111t-140.5 -44.5q-51 0 -90 19.5t-65.5 52.5t-40 76t-13.5 90zM20 428q0 -227 132.5 -341t353.5 -114 q145 0 259 51.5t193.5 141.5t121.5 212t42 261q0 115 -35.5 199t-101 139t-157 82.5t-199.5 27.5q-141 0 -254 -52t-192 -142t-121 -210t-42 -255z" />
<glyph unicode="&#xf3;" horiz-adv-x="1214" d="M821 1190l287 291h-311l-181 -291h205zM311 428q0 68 18.5 144.5t55.5 142t95.5 109.5t137.5 44q117 0 165 -63.5t48 -169.5q0 -68 -18 -145.5t-56 -144t-96.5 -111t-140.5 -44.5q-51 0 -90 19.5t-65.5 52.5t-40 76t-13.5 90zM20 428q0 -227 132.5 -341t353.5 -114 q145 0 259 51.5t193.5 141.5t121.5 212t42 261q0 115 -35.5 199t-101 139t-157 82.5t-199.5 27.5q-141 0 -254 -52t-192 -142t-121 -210t-42 -255z" />
<glyph unicode="&#xf4;" horiz-adv-x="1214" d="M641 1481l-281 -291h224l178 166l102 -166h205l-170 291h-258zM311 428q0 68 18.5 144.5t55.5 142t95.5 109.5t137.5 44q117 0 165 -63.5t48 -169.5q0 -68 -18 -145.5t-56 -144t-96.5 -111t-140.5 -44.5q-51 0 -90 19.5t-65.5 52.5t-40 76t-13.5 90zM20 428 q0 -227 132.5 -341t353.5 -114q145 0 259 51.5t193.5 141.5t121.5 212t42 261q0 115 -35.5 199t-101 139t-157 82.5t-199.5 27.5q-141 0 -254 -52t-192 -142t-121 -210t-42 -255z" />
<glyph unicode="&#xf5;" horiz-adv-x="1214" d="M1120 1462h-141q2 -29 -18.5 -50t-67.5 -21q-35 0 -68.5 11t-66.5 25l-65 24q-32 11 -66 11q-68 0 -113 -22.5t-73.5 -58t-45 -80t-26.5 -89.5h125q10 39 27.5 62.5t58.5 23.5q35 0 69.5 -10t73.5 -24l80 -23.5t88 -11.5q61 0 101 23.5t65.5 58.5t39 75.5t23.5 75.5z M311 428q0 68 18.5 144.5t55.5 142t95.5 109.5t137.5 44q117 0 165 -63.5t48 -169.5q0 -68 -18 -145.5t-56 -144t-96.5 -111t-140.5 -44.5q-51 0 -90 19.5t-65.5 52.5t-40 76t-13.5 90zM20 428q0 -227 132.5 -341t353.5 -114q145 0 259 51.5t193.5 141.5t121.5 212t42 261 q0 115 -35.5 199t-101 139t-157 82.5t-199.5 27.5q-141 0 -254 -52t-192 -142t-121 -210t-42 -255z" />
<glyph unicode="&#xf6;" horiz-adv-x="1214" d="M426 1462l-49 -239h268l49 239h-268zM827 1462l-49 -239h269l49 239h-269zM311 428q0 68 18.5 144.5t55.5 142t95.5 109.5t137.5 44q117 0 165 -63.5t48 -169.5q0 -68 -18 -145.5t-56 -144t-96.5 -111t-140.5 -44.5q-51 0 -90 19.5t-65.5 52.5t-40 76t-13.5 90zM20 428 q0 -227 132.5 -341t353.5 -114q145 0 259 51.5t193.5 141.5t121.5 212t42 261q0 115 -35.5 199t-101 139t-157 82.5t-199.5 27.5q-141 0 -254 -52t-192 -142t-121 -210t-42 -255z" />
<glyph unicode="&#xf7;" horiz-adv-x="1228" d="M442 92q0 -33 14.5 -64.5t38 -55t55.5 -38t68 -14.5q35 0 66 15.5t53.5 40t36.5 55t14 61.5q0 37 -14 67.5t-37.5 54.5t-54.5 37t-66 13t-66.5 -13t-55 -37t-38 -54.5t-14.5 -67.5zM442 942q0 -35 14.5 -66.5t38 -55t55.5 -37t68 -13.5q35 0 66 14.5t53.5 39t36.5 55 t14 63.5q0 37 -14 68.5t-37.5 55.5t-54.5 37t-66 13q-70 0 -122 -50t-52 -124zM98 627v-219h1035v219h-1035z" />
<glyph unicode="&#xf8;" horiz-adv-x="1214" d="M1186 1036l-62 68l-139 -127q-131 111 -356 110q-141 0 -254 -52t-192 -142t-121 -210t-42 -255q0 -164 74 -272l-147 -138l57 -65l150 135q61 -59 151 -87t201 -28q145 0 259 51.5t193.5 141.5t121.5 212t42 261q0 86 -19.5 151.5t-55.5 118.5zM356 274l469 431 q6 -31 6 -70q0 -68 -18 -145.5t-56 -144t-96.5 -111t-140.5 -44.5q-55 0 -96 22.5t-68 61.5zM788 795l-469 -433q-8 25 -8 66q0 68 18.5 144.5t55.5 142t95.5 109.5t137.5 44q125 1 170 -73z" />
<glyph unicode="&#xf9;" horiz-adv-x="1251" d="M901 1190l-180 291h-311l286 -291h205zM979 0l221 1059h-291l-118 -563q-12 -55 -36 -108.5t-60 -94.5t-86 -66.5t-115 -25.5q-51 0 -95.5 30.5t-44.5 77.5q0 10 1 27.5t4 36.5l7 36q3 17 7 29l129 621h-291l-131 -621q-4 -14 -9 -37.5l-10.5 -50t-8.5 -52.5t-3 -42 q0 -283 309 -283q229 0 371 174h4l-33 -147h279z" />
<glyph unicode="&#xfa;" horiz-adv-x="1251" d="M791 1190l286 291h-311l-180 -291h205zM979 0l221 1059h-291l-118 -563q-12 -55 -36 -108.5t-60 -94.5t-86 -66.5t-115 -25.5q-51 0 -95.5 30.5t-44.5 77.5q0 10 1 27.5t4 36.5l7 36q3 17 7 29l129 621h-291l-131 -621q-4 -14 -9 -37.5l-10.5 -50t-8.5 -52.5t-3 -42 q0 -283 309 -283q229 0 371 174h4l-33 -147h279z" />
<glyph unicode="&#xfb;" horiz-adv-x="1251" d="M659 1481l-280 -291h223l178 166l103 -166h204l-169 291h-259zM979 0l221 1059h-291l-118 -563q-12 -55 -36 -108.5t-60 -94.5t-86 -66.5t-115 -25.5q-51 0 -95.5 30.5t-44.5 77.5q0 10 1 27.5t4 36.5l7 36q3 17 7 29l129 621h-291l-131 -621q-4 -14 -9 -37.5l-10.5 -50 t-8.5 -52.5t-3 -42q0 -283 309 -283q229 0 371 174h4l-33 -147h279z" />
<glyph unicode="&#xfc;" horiz-adv-x="1251" d="M471 1462l-49 -239h268l49 239h-268zM872 1462l-49 -239h269l49 239h-269zM979 0l221 1059h-291l-118 -563q-12 -55 -36 -108.5t-60 -94.5t-86 -66.5t-115 -25.5q-51 0 -95.5 30.5t-44.5 77.5q0 10 1 27.5t4 36.5l7 36q3 17 7 29l129 621h-291l-131 -621q-4 -14 -9 -37.5 l-10.5 -50t-8.5 -52.5t-3 -42q0 -283 309 -283q229 0 371 174h4l-33 -147h279z" />
<glyph unicode="&#xfd;" horiz-adv-x="1062" d="M713 1190l286 291h-311l-180 -291h205zM438 -147l674 1206h-307l-367 -758h-4l-92 758h-299l188 -1049q-14 -18 -27.5 -42.5t-32.5 -46t-50 -37t-82 -15.5q-29 0 -58.5 6t-58.5 6l-49 -241q39 -2 78 -6.5t76 -4.5q82 0 142 9.5t107.5 34t86 68.5t75.5 112z" />
<glyph unicode="&#xfe;" horiz-adv-x="1251" d="M662 868q51 0 90 -19.5t64.5 -51t38.5 -74.5t13 -90q0 -70 -18.5 -147.5t-57 -143.5t-98 -109t-143.5 -43q-106 0 -157.5 62.5t-51.5 167.5q0 68 19.5 146.5t59.5 146t99.5 111.5t141.5 44zM266 1462l-385 -1833h289l111 512h4q39 -88 121.5 -128t177.5 -40 q147 0 254.5 59.5t179.5 158t106.5 223.5t34.5 256q0 193 -104.5 305t-296.5 112q-98 0 -183.5 -37.5t-130.5 -123.5h-4l117 536h-291z" />
<glyph unicode="&#xff;" horiz-adv-x="1062" d="M279 1462l-50 -239h269l49 239h-268zM680 1462l-49 -239h268l49 239h-268zM438 -147l674 1206h-307l-367 -758h-4l-92 758h-299l188 -1049q-14 -18 -27.5 -42.5t-32.5 -46t-50 -37t-82 -15.5q-29 0 -58.5 6t-58.5 6l-49 -241q39 -2 78 -6.5t76 -4.5q82 0 142 9.5 t107.5 34t86 68.5t75.5 112z" />
<glyph unicode="&#x152;" horiz-adv-x="2275" d="M870 1227q57 0 109.5 -13.5t92.5 -43t63.5 -74.5t23.5 -109q0 -39 -9 -106.5t-23.5 -141t-32 -141.5t-31.5 -109q-41 -117 -136.5 -185t-230.5 -68q-80 0 -137 27.5t-93 75.5t-52.5 113.5t-16.5 139.5q0 104 28 217t85 206t147 152.5t213 59.5zM1012 115l-25 -115h1028 l58 270h-754l78 359h674l53 250h-676l68 313h739l57 270h-1038l-29 -133q-66 92 -163 130t-208 38q-190 0 -338.5 -74.5t-251 -200.5t-155.5 -290t-53 -342q0 -131 35.5 -245t105.5 -198t175.5 -132t242.5 -48q102 0 204.5 37t168.5 115z" />
<glyph unicode="&#x153;" horiz-adv-x="1896" d="M311 412q0 59 17.5 138t55.5 149.5t97.5 119.5t143.5 49q49 0 83.5 -16t57 -43t33 -60.5t10.5 -70.5q0 -70 -16.5 -155t-51 -158.5t-92 -124t-139.5 -50.5q-51 0 -89 17.5t-62.5 48.5t-36 71t-11.5 85zM1761 330h-291q-25 -70 -86 -105t-147 -35q-98 0 -153.5 56.5 t-55.5 142.5q0 10 1 27.5t5 42.5h772q20 90 21 164q0 221 -124 342.5t-347 121.5q-47 0 -100.5 -12t-102.5 -34.5t-91 -54.5t-69 -71q-27 45 -66.5 78t-86.5 53.5t-99.5 30.5t-103.5 10q-135 0 -249 -55t-194.5 -145t-127 -205t-46.5 -231q0 -88 21.5 -174.5t74 -154 t139.5 -108.5t218 -41q111 0 213 40t168 134q66 -106 160 -140t217 -34q184 0 327.5 87.5t202.5 269.5zM1542 643h-479q18 47 41.5 88t57.5 72t81 48t111 17q94 0 143 -56t49 -124q0 -10 -1 -22.5t-3 -22.5z" />
<glyph unicode="&#x178;" horiz-adv-x="1327" d="M483 1866l-49 -240h268l50 240h-269zM885 1866l-49 -240h268l49 240h-268zM475 567l-117 -567h324l113 553l712 909h-379l-454 -622l-219 622h-330z" />
<glyph unicode="&#x2c6;" horiz-adv-x="530" d="M299 1481l-281 -291h224l178 166l102 -166h205l-170 291h-258z" />
<glyph unicode="&#x2dc;" horiz-adv-x="530" d="M778 1462h-141q2 -29 -18.5 -50t-67.5 -21q-35 0 -68.5 11t-66.5 25l-65 24q-32 11 -66 11q-68 0 -113 -22.5t-73.5 -58t-45 -80t-26.5 -89.5h125q10 39 27.5 62.5t58.5 23.5q35 0 69.5 -10t73.5 -24l80 -23.5t88 -11.5q61 0 101 23.5t65.5 58.5t39 75.5t23.5 75.5z" />
<glyph unicode="&#x2000;" horiz-adv-x="997" />
<glyph unicode="&#x2001;" horiz-adv-x="1996" />
<glyph unicode="&#x2002;" horiz-adv-x="997" />
<glyph unicode="&#x2003;" horiz-adv-x="1996" />
<glyph unicode="&#x2004;" horiz-adv-x="665" />
<glyph unicode="&#x2005;" horiz-adv-x="497" />
<glyph unicode="&#x2006;" horiz-adv-x="331" />
<glyph unicode="&#x2007;" horiz-adv-x="331" />
<glyph unicode="&#x2008;" horiz-adv-x="247" />
<glyph unicode="&#x2009;" horiz-adv-x="399" />
<glyph unicode="&#x200a;" horiz-adv-x="110" />
<glyph unicode="&#x2010;" horiz-adv-x="833" d="M109 684l-54 -250h617l53 250h-616z" />
<glyph unicode="&#x2011;" horiz-adv-x="833" d="M109 684l-54 -250h617l53 250h-616z" />
<glyph unicode="&#x2012;" horiz-adv-x="833" d="M109 684l-54 -250h617l53 250h-616z" />
<glyph unicode="&#x2013;" horiz-adv-x="1024" d="M-4 684l-53 -250h1022l53 250h-1022z" />
<glyph unicode="&#x2014;" horiz-adv-x="2048" d="M260 684l-53 -250h1515l54 250h-1516z" />
<glyph unicode="&#x2018;" horiz-adv-x="569" d="M483 805l66 315h-141q16 88 54 135.5t128 63.5l31 143q-100 -4 -169 -32.5t-114 -74.5t-71.5 -106.5t-41.5 -128.5l-65 -315h323z" />
<glyph unicode="&#x2019;" horiz-adv-x="569" d="M291 1462l-66 -315h142q-16 -88 -54.5 -135t-128.5 -64l-30 -143q100 4 168.5 31.5t113.5 73.5t72 106.5t41 130.5l65 315h-323z" />
<glyph unicode="&#x201a;" horiz-adv-x="569" d="M39 315l-64 -315h140q-16 -86 -54 -133t-127 -64l-30 -143q98 4 166.5 31.5t113.5 74t72 106.5t41 128l65 315h-323z" />
<glyph unicode="&#x201c;" horiz-adv-x="985" d="M891 805l65 315h-141q16 88 54 135.5t128 63.5l31 143q-100 -4 -168.5 -32.5t-114 -74.5t-72 -106.5t-40.5 -128.5l-66 -315h324zM459 805l65 315h-141q16 88 54 135.5t128 63.5l31 143q-100 -4 -169 -32.5t-114 -74.5t-71.5 -106.5t-40.5 -128.5l-66 -315h324z" />
<glyph unicode="&#x201d;" horiz-adv-x="985" d="M266 1462l-65 -315h141q-16 -88 -54 -135t-128 -64l-31 -143q100 4 169 31.5t114 73.5t71.5 106.5t40.5 130.5l66 315h-324zM698 1462l-65 -315h141q-16 -88 -54 -135t-128 -64l-31 -143q100 4 169 31.5t114 73.5t71.5 106.5t40.5 130.5l66 315h-324z" />
<glyph unicode="&#x201e;" horiz-adv-x="985" d="M475 315l-65 -315h141q-16 -86 -54 -133t-128 -64l-31 -143q100 4 168.5 31.5t114 74t72 106.5t40.5 128l66 315h-324zM43 315l-63 -315h139q-16 -86 -54 -133t-126 -64l-31 -143q98 4 166.5 31.5t113.5 74t72 106.5t41 128l66 315h-324z" />
<glyph unicode="&#x2022;" horiz-adv-x="1024" d="M147 731q0 -76 29 -142.5t78 -116.5t115.5 -78.5t142.5 -28.5t142.5 28.5t116.5 78.5t79 116.5t29 142.5t-29 142.5t-79 115.5t-116.5 78t-142.5 29t-142.5 -29t-115.5 -78t-78 -115.5t-29 -142.5z" />
<glyph unicode="&#x2026;" horiz-adv-x="2048" d="M100 315l-67 -315h323l68 315h-324zM1464 315l-67 -315h323l68 315h-324zM782 315l-67 -315h323l68 315h-324z" />
<glyph unicode="&#x202f;" horiz-adv-x="399" />
<glyph unicode="&#x2039;" horiz-adv-x="530" d="M35 446l262 -282l45 219l-158 174l226 139l53 252l-371 -235z" />
<glyph unicode="&#x203a;" horiz-adv-x="530" d="M418 666l-262 282l-45 -219l157 -174l-225 -139l-51 -252l368 235z" />
<glyph unicode="&#x205f;" horiz-adv-x="497" />
<glyph unicode="&#x20ac;" d="M1073 1116l125 232q-168 131 -369 131q-227 0 -397 -164q-147 -143 -215 -383h-76l-71 -146h116l-12 -92h-84l-72 -145h154q18 -264 137 -414q135 -166 387 -166q160 0 326 76l53 303q-199 -137 -338 -137q-254 0 -278 338h364l72 145h-436l10 92h465l72 146h-500 q111 301 328 301q126 0 239 -117z" />
<glyph unicode="&#x2122;" horiz-adv-x="2027" d="M815 1298v164h-688v-164h240v-680h208v680h240zM1901 618v844h-277l-211 -555l-211 555h-278v-844h196v599h4l217 -599h142l217 599h4v-599h197z" />
<glyph unicode="&#xe000;" horiz-adv-x="1060" d="M0 1060h1060v-1060h-1060v1060z" />
<glyph unicode="&#xfb01;" horiz-adv-x="1251" d="M217 864l-182 -864h291l182 864h209l41 195h-207l20.5 83t23.5 61.5t44 38.5t84 13q23 0 47 -2l47 -4l45 209q-47 8 -95 12.5t-95 4.5q-115 0 -185.5 -27t-113.5 -80t-67.5 -130t-45.5 -179h-174l-41 -195h172zM924 1059l-226 -1059h291l225 1059h-290zM1247 1223l53 239 h-290l-54 -239h291z" />
<glyph unicode="&#xfb02;" horiz-adv-x="1251" d="M217 864l-182 -864h291l182 864h209l41 195h-207l20.5 83t23.5 61.5t44 38.5t84 13q23 0 47 -2l47 -4l45 209q-47 8 -95 12.5t-95 4.5q-115 0 -185.5 -27t-113.5 -80t-67.5 -130t-45.5 -179h-174l-41 -195h172zM1008 1462l-312 -1462h291l311 1462h-290z" />
<glyph unicode="&#xfb03;" horiz-adv-x="1972" d="M1968 1223l54 239h-293l-54 -239h293zM1643 1059l-224 -1059h291l226 1059h-293zM938 864l-182 -864h291l182 864h209l41 195h-207l20.5 83t23.5 61.5t44 38.5t84 13q23 0 47 -2l47 -4l45 209q-47 8 -95 12.5t-95 4.5q-115 0 -185.5 -27t-113.5 -80t-67.5 -130 t-45.5 -179h-174l-41 -195h172zM217 864l-182 -864h291l182 864h209l41 195h-207l20.5 83t23.5 61.5t44 38.5t84 13q23 0 47 -2l47 -4l45 209q-47 8 -95 12.5t-95 4.5q-115 0 -185.5 -27t-113.5 -80t-67.5 -130t-45.5 -179h-174l-41 -195h172z" />
<glyph unicode="&#xfb04;" horiz-adv-x="1972" d="M1729 1462l-310 -1462h289l312 1462h-291zM938 864l-182 -864h291l182 864h209l41 195h-207l20.5 83t23.5 61.5t44 38.5t84 13q23 0 47 -2l47 -4l45 209q-47 8 -95 12.5t-95 4.5q-115 0 -185.5 -27t-113.5 -80t-67.5 -130t-45.5 -179h-174l-41 -195h172zM217 864 l-182 -864h291l182 864h209l41 195h-207l20.5 83t23.5 61.5t44 38.5t84 13q23 0 47 -2l47 -4l45 209q-47 8 -95 12.5t-95 4.5q-115 0 -185.5 -27t-113.5 -80t-67.5 -130t-45.5 -179h-174l-41 -195h172z" />
</font>
</defs>
</svg>
